<?xml version="1.0" encoding="UTF-8"?>
<svg width="24px" height="24px" viewBox="0 0 24 24" version="1.1" xmlns="http://www.w3.org/2000/svg" xmlns:xlink="http://www.w3.org/1999/xlink">
    <!-- Generator: Sketch 63.1 (92452) - https://sketch.com -->
    <title>atom/icon/settings/data-recovering</title>
    <desc>Created with Sketch.</desc>
    <g id="atom/icon/settings/data-recovering" stroke="none" stroke-width="1" fill="none" fill-rule="evenodd">
        <path d="M18.9452545,10 C20.0905654,10.0708396 21.0000052,11.0206147 21.0000052,12.1829085 L21.0000052,12.1829085 L21.0000052,21.8013493 C21.0026208,23.0108696 20.0224234,23.9921289 18.8142121,23.9921289 L18.8142121,23.9921289 L5.19104006,24 C3.98282876,24 3.00000522,23.0187406 3.00000522,21.8092204 L3.00000522,21.8092204 L3.00000522,12.1934033 C2.99738962,10.9838831 3.97758707,10 5.18579836,10 L5.18579836,10 Z M11.9954009,8.96083403e-13 C15.8547107,-0.00170089482 18.995976,2.64908284 18.9988539,5.90932317 L18.9988539,5.90932317 L19.0000052,7.21089105 C19.0002929,7.64652976 18.5824168,8 18.0664032,8 L18.0664032,8 L17.3538267,8 C16.8383887,8 16.4208004,7.64725906 16.4202248,7.21210656 L16.4202248,7.21210656 L16.4187859,5.91053868 C16.4176347,3.85219442 14.4338746,2.17819435 11.9971277,2.17916676 C9.56038078,2.18013916 7.57863527,3.85584095 7.57978644,5.91418521 L7.57978644,5.91418521 L7.58122541,7.21064795 C7.5815132,7.64628665 7.16334936,7.9997569 6.64762354,7.9997569 L6.64762354,7.9997569 L6.64762354,8 L5.93504703,8 C5.419609,8 5.00202075,7.64725906 5.00144516,7.21210656 L5.00144516,7.21210656 L5.00000522,5.91515762 C4.99799164,2.65491728 8.13609113,0.00170253257 11.9954009,8.96083403e-13 Z" id="Combined-Shape" fill="#001E62" fill-rule="nonzero"></path>
    </g>
</svg>