<?xml version="1.0" encoding="UTF-8"?>
<svg width="24px" height="24px" viewBox="0 0 24 24" version="1.1" xmlns="http://www.w3.org/2000/svg" xmlns:xlink="http://www.w3.org/1999/xlink">
    <!-- Generator: Sketch 63.1 (92452) - https://sketch.com -->
    <title>atom/icon/settings/FAQ</title>
    <desc>Created with Sketch.</desc>
    <g id="atom/icon/settings/FAQ" stroke="none" stroke-width="1" fill="none" fill-rule="evenodd">
        <path d="M12,0 C18.627417,0 24,5.372583 24,12 C24,18.627417 18.627417,24 12,24 C5.372583,24 0,18.627417 0,12 C0,5.372583 5.372583,0 12,0 Z M11.6175,16.417 C11.3295,16.417 11.3295,16.417 11.0775,16.525 C10.8255,16.633 10.8255,16.633 10.641,16.813 C10.4565,16.993 10.4565,16.993 10.353,17.245 C10.2495,17.497 10.2495,17.497 10.2495,17.776 C10.2495,18.064 10.2495,18.064 10.353,18.3115 C10.4565,18.559 10.4565,18.559 10.641,18.739 C10.8255,18.919 10.8255,18.919 11.0775,19.0225 C11.3295,19.126 11.3295,19.126 11.6175,19.126 C11.8965,19.126 11.8965,19.126 12.1485,19.0225 C12.4005,18.919 12.4005,18.919 12.5805,18.739 C12.7605,18.559 12.7605,18.559 12.8685,18.3115 C12.9765,18.064 12.9765,18.064 12.9765,17.776 C12.9765,17.497 12.9765,17.497 12.8685,17.245 C12.7605,16.993 12.7605,16.993 12.5805,16.813 C12.4005,16.633 12.4005,16.633 12.1485,16.525 C11.8965,16.417 11.8965,16.417 11.6175,16.417 Z M11.9955,5.842 C11.4195,5.842 11.4195,5.842 10.9245,5.9455 C10.4295,6.049 10.4295,6.049 10.0065,6.229 C9.5835,6.409 9.5835,6.409 9.219,6.652 C8.976,6.814 8.976,6.814 8.759,6.988 L8.5485,7.165 L9.1335,8.092 C9.2775,8.362 9.2775,8.362 9.6015,8.362 C9.7365,8.362 9.7365,8.362 9.9075,8.2495 C10.0785,8.137 10.0785,8.137 10.326,7.9975 C10.5735,7.858 10.5735,7.858 10.929,7.7455 C11.2845,7.633 11.2845,7.633 11.7975,7.633 C12.1485,7.633 12.1485,7.633 12.45,7.732 C12.7515,7.831 12.7515,7.831 12.9675,8.0155 C13.1835,8.2 13.1835,8.2 13.305,8.4565 C13.4265,8.713 13.4265,8.713 13.4265,9.037 C13.4265,9.523 13.4265,9.523 13.2285,9.883 C13.0305,10.243 13.0305,10.243 12.7335,10.5265 C12.4365,10.81 12.4365,10.81 12.0945,11.053 C11.7525,11.296 11.7525,11.296 11.4555,11.5525 C11.1585,11.809 11.1585,11.809 10.9605,12.1015 C10.8021,12.3355 10.8021,12.3355 10.77042,12.63574 L10.7625,12.79 L10.7625,12.8665 L10.76475,12.901375 L10.76475,12.901375 L10.7715,12.943 L10.9245,14.41 L12.4455,14.41 L12.6525,13.096 C12.6975,12.808 12.6975,12.808 12.927,12.5785 C13.1565,12.349 13.1565,12.349 13.4715,12.1105 C13.7865,11.872 13.7865,11.872 14.1375,11.602 C14.4885,11.332 14.4885,11.332 14.79,10.963 C15.0915,10.594 15.0915,10.594 15.2895,10.0945 C15.4875,9.595 15.4875,9.595 15.4875,8.911 C15.4875,8.209 15.4875,8.209 15.2355,7.642 C14.9835,7.075 14.9835,7.075 14.5245,6.6745 C14.0655,6.274 14.0655,6.274 13.422,6.058 C12.7785,5.842 12.7785,5.842 11.9955,5.842 Z" id="Combined-Shape" fill="#001E62" fill-rule="nonzero"></path>
    </g>
</svg>