<?xml version="1.0" encoding="UTF-8"?>
<svg width="24px" height="24px" viewBox="0 0 24 24" version="1.1" xmlns="http://www.w3.org/2000/svg" xmlns:xlink="http://www.w3.org/1999/xlink">
    <!-- Generator: Sketch 64 (93537) - https://sketch.com -->
    <title>atom/icon/settings/notifications</title>
    <desc>Created with Sketch.</desc>
    <g id="atom/icon/settings/notifications" stroke="none" stroke-width="1" fill="none" fill-rule="evenodd">
        <path d="M16,21 C15.3202128,22.79 13.5223404,23.988 11.5,24 C9.4787234,23.988 7.67978723,22.79 7,21 L7,21 Z M12.0001059,0 C16.8265961,0 20.7405807,3.73083333 20.7405807,8.33333333 L20.7405807,8.33333333 L20.7405807,14.2166667 C20.7414547,14.5566667 20.8515847,14.8883333 21.0552378,15.1666667 L21.0552378,15.1666667 L22.549859,17.2166667 C22.8382946,17.5216667 22.9991194,17.9183333 23,18.3291667 C23.0026156,19.2491667 22.2212171,19.9975 21.2562687,20 L21.2562687,20 L2.74394308,20 C2.31216363,19.9991667 1.89699107,19.8458333 1.57621565,19.57 C0.860370764,18.9541667 0.803557678,17.9 1.45035281,17.2166667 L1.45035281,17.2166667 L2.944974,15.1666667 C3.14862707,14.8883333 3.25875705,14.5566667 3.2596311,14.2166667 L3.2596311,14.2166667 L3.2596311,8.33333333 C3.2596311,3.73083333 7.17274166,0 12.0001059,0 Z" id="Combined-Shape" fill="#001E62" fill-rule="nonzero"></path>
    </g>
</svg>