<?xml version="1.0" encoding="UTF-8"?>
<svg width="24px" height="24px" viewBox="0 0 24 24" version="1.1" xmlns="http://www.w3.org/2000/svg" xmlns:xlink="http://www.w3.org/1999/xlink">
    <!-- Generator: Sketch 63.1 (92452) - https://sketch.com -->
    <title>atom/icon/settings/password-reset</title>
    <desc>Created with Sketch.</desc>
    <g id="atom/icon/settings/password-reset" stroke="none" stroke-width="1" fill="none" fill-rule="evenodd">
        <path d="M14.2009323,6.00000031 C14.646331,6.02530016 15.000002,6.36450555 15.000002,6.7796105 L15.000002,6.7796105 L15.000002,10.2147679 C15.0010192,10.6467394 14.6198313,10.9971892 14.1499714,10.9971892 L14.1499714,10.9971892 L8.85207113,11.0000003 C8.38221119,11.0000003 8.00000203,10.6495505 8.00000203,10.217579 L8.00000203,10.217579 L8.00000203,6.78335863 C7.99898485,6.35138711 8.38017275,6.00000031 8.8500327,6.00000031 L8.8500327,6.00000031 Z M11.4983576,2.00000031 C12.8766826,1.99936247 13.998563,2.99340637 13.9995908,4.2159965 L13.9995908,4.2159965 L14.000002,4.70408445 C14.0001048,4.86744897 13.8508633,5.00000031 13.6665727,5.00000031 L13.6665727,5.00000031 L13.4120811,5.00000031 C13.2279961,5.00000031 13.0788575,4.86772245 13.0786519,4.70454027 L13.0786519,4.70454027 L13.078138,4.21645231 C13.0777268,3.44457321 12.3692411,2.81682319 11.4989743,2.81718784 C10.6287076,2.81755249 9.92094133,3.44594066 9.92135247,4.21781976 L9.92135247,4.21781976 L9.92186638,4.70399329 C9.92196917,4.8673578 9.77262494,4.99990914 9.58843715,4.99990914 L9.58843715,4.99990914 L9.58843715,5.00000031 L9.33394553,5.00000031 C9.14986052,5.00000031 9.00072186,4.86772245 9.00051629,4.70454027 L9.00051629,4.70454027 L9.00000203,4.21818442 C8.99928289,2.99559429 10.1200327,2.00063876 11.4983576,2.00000031 Z" id="Combined-Shape" fill="#001E62" fill-rule="nonzero"></path>
        <path d="M22,13 C23.1045695,13 24,13.8954305 24,15 L24,20 C24,21.1045695 23.1045695,22 22,22 L2,22 C0.8954305,22 0,21.1045695 0,20 L0,15 C0,13.8954305 0.8954305,13 2,13 L22,13 Z M22,14 L2,14 C1.48716416,14 1.06449284,14.3860402 1.00672773,14.8833789 L1,15 L1,20 C1,20.5128358 1.38604019,20.9355072 1.88337887,20.9932723 L2,21 L22,21 C22.5128358,21 22.9355072,20.6139598 22.9932723,20.1166211 L23,20 L23,15 C23,14.4871642 22.6139598,14.0644928 22.1166211,14.0067277 L22,14 Z M4.5,16 C5.32842712,16 6,16.6715729 6,17.5 C6,18.3284271 5.32842712,19 4.5,19 C3.67157288,19 3,18.3284271 3,17.5 C3,16.6715729 3.67157288,16 4.5,16 Z M9.5,16 C10.3284271,16 11,16.6715729 11,17.5 C11,18.3284271 10.3284271,19 9.5,19 C8.67157288,19 8,18.3284271 8,17.5 C8,16.6715729 8.67157288,16 9.5,16 Z M14.5,16 C15.3284271,16 16,16.6715729 16,17.5 C16,18.3284271 15.3284271,19 14.5,19 C13.6715729,19 13,18.3284271 13,17.5 C13,16.6715729 13.6715729,16 14.5,16 Z M19.5,16 C20.3284271,16 21,16.6715729 21,17.5 C21,18.3284271 20.3284271,19 19.5,19 C18.6715729,19 18,18.3284271 18,17.5 C18,16.6715729 18.6715729,16 19.5,16 Z M4.5,17 C4.22385763,17 4,17.2238576 4,17.5 C4,17.7761424 4.22385763,18 4.5,18 C4.77614237,18 5,17.7761424 5,17.5 C5,17.2238576 4.77614237,17 4.5,17 Z M9.5,17 C9.22385763,17 9,17.2238576 9,17.5 C9,17.7761424 9.22385763,18 9.5,18 C9.77614237,18 10,17.7761424 10,17.5 C10,17.2238576 9.77614237,17 9.5,17 Z M14.5,17 C14.2238576,17 14,17.2238576 14,17.5 C14,17.7761424 14.2238576,18 14.5,18 C14.7761424,18 15,17.7761424 15,17.5 C15,17.2238576 14.7761424,17 14.5,17 Z M19.5,17 C19.2238576,17 19,17.2238576 19,17.5 C19,17.7761424 19.2238576,18 19.5,18 C19.7761424,18 20,17.7761424 20,17.5 C20,17.2238576 19.7761424,17 19.5,17 Z" id="Combined-Shape" fill="#001E62" fill-rule="nonzero"></path>
    </g>
</svg>