<?xml version="1.0" encoding="UTF-8"?>
<svg width="24px" height="24px" viewBox="0 0 24 24" version="1.1" xmlns="http://www.w3.org/2000/svg" xmlns:xlink="http://www.w3.org/1999/xlink">
    <!-- Generator: Sketch 63.1 (92452) - https://sketch.com -->
    <title>atom/icon/settings/privacy-policy</title>
    <desc>Created with Sketch.</desc>
    <g id="atom/icon/settings/privacy-policy" stroke="none" stroke-width="1" fill="none" fill-rule="evenodd">
        <g id="Group-3" fill-rule="nonzero">
            <path d="M14.6745064,0.0657370518 C14.9238164,-0.0687250996 15.2008275,0.0119521912 15.339333,0.227091633 L15.339333,0.227091633 L16.6966875,2.27091633 L19.1897874,2.40537849 C19.4390974,2.40537849 19.6607063,2.62051793 19.6607063,2.8625498 L19.6607063,2.8625498 L19.7992119,5.28286853 L21.9047733,6.60059761 C22.1261052,6.73505976 22.1817844,7.03087649 22.0707029,7.24601594 L22.0707029,7.24601594 L20.9352344,9.39741036 L22.0707029,11.5488048 C22.2092085,11.7908367 22.1261052,12.059761 21.9047733,12.1942231 L21.9047733,12.1942231 L20.6302452,12.9741036 L24.8962162,18.4601594 C25.0070207,18.5946215 25.0347218,18.7828685 24.9518955,18.9442231 C24.8685151,19.1055777 24.7300096,19.2131474 24.5363788,19.2400398 L24.5363788,19.2400398 L20.1593263,19.750996 L18.4695586,23.7041833 C18.3864552,23.8655378 18.2479497,23.9731076 18.0540419,24 L18.0540419,24 L17.9986397,24 C17.832433,24 17.6662263,23.9462151 17.583123,23.811753 L17.583123,23.811753 L13.0404179,17.8954183 C13.0124398,17.8954183 13.0124398,17.8685259 13.0124398,17.8685259 L13.0124398,17.8685259 L12.4584175,17.5996016 L12.0151998,17.814741 C11.9874987,17.8685259 11.9874987,17.8954183 11.9597975,17.9223108 L11.9597975,17.9223108 L7.4168154,23.7848606 C7.30601096,23.8924303 7.1675054,23.9731076 7.00129874,23.9731076 L7.00129874,23.9731076 L6.94589652,23.9731076 C6.75198874,23.9462151 6.61348319,23.8386454 6.53037986,23.6772908 L6.53037986,23.6772908 L4.84061211,19.7241036 L0.463836626,19.2400398 C0.269928851,19.2131474 0.131423298,19.1055777 0.0483199659,18.9442231 C-0.034783366,18.7828685 -0.00708225537,18.5946215 0.103722187,18.4601594 L0.103722187,18.4601594 L4.2865899,13.000996 L3.01233881,12.1942231 C2.79072992,12.059761 2.7353277,11.7639442 2.84613214,11.5488048 L2.84613214,11.5488048 L3.98187768,9.39741036 L2.84613214,7.24601594 C2.70762659,7.00398406 2.79072992,6.73505976 3.01233881,6.60059761 L3.01233881,6.60059761 L5.11762322,5.28286853 L5.25612877,2.8625498 C5.25612877,2.62051793 5.47773765,2.40537849 5.72704765,2.40537849 L5.72704765,2.40537849 L8.22014761,2.27091633 L9.57750203,0.227091633 C9.71600758,0.0119521912 10.0207198,-0.0418326693 10.2423287,0.0657370518 L10.2423287,0.0657370518 L12.4584175,1.16832669 Z M12.5,4 C9.46243388,4 7,6.46243388 7,9.5 C7,12.5375661 9.46243388,15 12.5,15 C15.5375661,15 18,12.5375661 18,9.5 C18,6.46243388 15.5375661,4 12.5,4 Z" id="Combined-Shape" fill="#001E62"></path>
            <path d="" id="Path-11" stroke="#001E62" stroke-width="2"></path>
        </g>
    </g>
</svg>