<?xml version="1.0" encoding="UTF-8"?>
<svg width="24px" height="24px" viewBox="0 0 24 24" version="1.1" xmlns="http://www.w3.org/2000/svg" xmlns:xlink="http://www.w3.org/1999/xlink">
    <!-- Generator: Sketch 63.1 (92452) - https://sketch.com -->
    <title>atom/icon/settings/sensor</title>
    <desc>Created with Sketch.</desc>
    <g id="atom/icon/settings/sensor" stroke="none" stroke-width="1" fill="none" fill-rule="evenodd">
        <path d="M10.3613586,0.7931611 C10.9597517,-0.424373951 12.6721064,-0.166392759 12.9773913,1.06427394 L13.0189403,1.32322743 L14.2540769,17.0891628 L16.4765237,12.2986274 C16.6758879,11.8686205 17.0677575,11.572209 17.5177414,11.4962956 L17.7469541,11.4771161 L22.5941893,11.4771161 C23.3705971,11.4771161 24,12.1203167 24,12.9137449 C24,13.6190144 23.502694,14.2055855 22.8468856,14.3272277 L22.5941893,14.3503737 L18.6345829,14.3480751 L14.5440949,23.1772612 C13.9663998,24.4232866 12.2246771,24.1817193 11.9145187,22.9386861 L11.8723436,22.6768706 L10.6158388,6.67647744 L7.23376796,13.5585381 C7.0349503,13.9630672 6.66423769,14.243267 6.23856811,14.3254299 L5.97750703,14.3503737 L1.40581068,14.3503737 C0.629402882,14.3503737 0,13.7071731 0,12.9137449 C0,12.2084754 0.497305981,11.6219043 1.15311444,11.5002621 L1.40581068,11.4771161 L5.11068416,11.4748175 L10.3613586,0.7931611 Z" id="Stroke-3" fill="#001E62" fill-rule="nonzero"></path>
    </g>
</svg>