<?xml version="1.0" encoding="UTF-8"?>
<svg width="24px" height="24px" viewBox="0 0 24 24" version="1.1" xmlns="http://www.w3.org/2000/svg" xmlns:xlink="http://www.w3.org/1999/xlink">
    <!-- Generator: Sketch 63.1 (92452) - https://sketch.com -->
    <title>atom/icon/settings/sounds</title>
    <desc>Created with Sketch.</desc>
    <g id="atom/icon/settings/sounds" stroke="none" stroke-width="1" fill="none" fill-rule="evenodd">
        <path d="M17.02762,23.9078971 C23.0853751,20.9523266 25.6920111,13.4486323 22.8498906,7.14822667 C21.648578,4.4845059 19.5887517,2.3421708 17.02762,1.09234386 C16.2385002,0.799310914 15.3705064,1.22683139 15.0887591,2.04716589 C14.8411401,2.76732493 15.1259209,3.56833424 15.7648767,3.94773895 C20.3062022,6.18788316 22.2416503,11.8328099 20.0877817,16.5560436 C19.1886933,18.5283959 17.6612669,20.1173996 15.7648767,21.0528964 C15.0371876,21.4847552 14.784639,22.4486483 15.2002446,23.2050913 C15.5650371,23.8688524 16.3351968,24.1650404 17.02762,23.9078971 M16.2815133,15.777526 C18.5728289,13.401336 18.5728289,9.59874451 16.2815133,7.22255446 C15.9876296,6.92505333 15.5114779,6.92581713 15.2187216,7.22484587 C15.0849331,7.36080274 15.0071404,7.54258777 15,7.73430224 L15,15.2653964 C15.0161598,15.6870154 15.3649118,16.0158325 15.7798065,15.9994107 C15.9684632,15.9921546 16.147349,15.9127191 16.2815133,15.777526 M0,15.1422126 L0,8.85756612 C0,7.55625151 1.00724864,6.50082369 2.24999697,6.50082369 L5.24999294,6.50082369 L10.3687361,1.32777404 C10.7114856,0.924378296 11.3017348,0.888241579 11.6868593,1.2476448 C11.887484,1.43422024 12.0014839,1.70249609 12,1.98373402 L12,22.0160447 C12.0029839,22.5561315 11.5874844,22.9964496 11.0714851,23 C10.8033605,23.0015558 10.5472358,22.8821476 10.3687361,22.6720047 L5.24999294,17.4989551 L2.24999697,17.4989551 C1.00724864,17.4989551 0,16.44392 0,15.1422126" id="Fill-1" fill="#001E62" fill-rule="nonzero"></path>
    </g>
</svg>