<?xml version="1.0" encoding="UTF-8"?>
<svg width="24px" height="24px" viewBox="0 0 24 24" version="1.1" xmlns="http://www.w3.org/2000/svg" xmlns:xlink="http://www.w3.org/1999/xlink">
    <!-- Generator: Sketch 63.1 (92452) - https://sketch.com -->
    <title>atom/icon/settings/support</title>
    <desc>Created with Sketch.</desc>
    <g id="atom/icon/settings/support" stroke="none" stroke-width="1" fill="none" fill-rule="evenodd">
        <path d="M19.1111111,6 L4.88888889,6 C4.39822222,6 4,5.552 4,5 C4,4.448 4.39822222,4 4.88888889,4 L19.1111111,4 C19.6026667,4 20,4.448 20,5 C20,5.552 19.6026667,6 19.1111111,6 M19.1111111,10 L4.88888889,10 C4.39822222,10 4,9.552 4,9 C4,8.448 4.39822222,8 4.88888889,8 L19.1111111,8 C19.6026667,8 20,8.448 20,9 C20,9.552 19.6026667,10 19.1111111,10 M12.1818182,15 L4.81818182,15 C4.36654545,15 4,14.552 4,14 C4,13.448 4.36654545,13 4.81818182,13 L12.1818182,13 C12.6342727,13 13,13.448 13,14 C13,14.552 12.6342727,15 12.1818182,15 M20.5714286,0 L3.42857143,0 C1.53514286,0 0,1.53513051 0,3.42854386 L0,15.4284474 C0,17.3218607 1.53514286,18.8569912 3.42857143,18.8569912 L6.50571429,18.8569912 L11.3914286,23.7512376 C11.5534286,23.911522 11.772,24.0015213 12,24 C12.1122857,24.0023784 12.2237143,23.9792358 12.3257143,23.9312362 C12.6454286,23.8000944 12.8554286,23.4880969 12.8571429,23.1426711 L12.8571429,18.8569912 L20.5714286,18.8569912 C22.4648571,18.8569912 24,17.3218607 24,15.4284474 L24,3.42854386 C24,1.53513051 22.4648571,0 20.5714286,0" id="Fill-1" fill="#001E62" fill-rule="nonzero"></path>
    </g>
</svg>