<?xml version="1.0" encoding="UTF-8"?>
<svg width="24px" height="24px" viewBox="0 0 24 24" version="1.1" xmlns="http://www.w3.org/2000/svg" xmlns:xlink="http://www.w3.org/1999/xlink">
    <!-- Generator: Sketch 63.1 (92452) - https://sketch.com -->
    <title>atom/icon/settings/terms-of-use</title>
    <desc>Created with Sketch.</desc>
    <g id="atom/icon/settings/terms-of-use" stroke="none" stroke-width="1" fill="none" fill-rule="evenodd">
        <path d="M19,0 C20.1045695,-2.02906125e-16 21,0.8954305 21,2 L21,22 C21,23.1045695 20.1045695,24 19,24 L5,24 C3.8954305,24 3,23.1045695 3,22 L3,2 C3,0.8954305 3.8954305,2.02906125e-16 5,0 L19,0 Z M17,17 L13,17 L12.8833789,17.0067277 C12.3860402,17.0644928 12,17.4871642 12,18 C12,18.5522847 12.4477153,19 13,19 L13,19 L17,19 L17.1166211,18.9932723 C17.6139598,18.9355072 18,18.5128358 18,18 C18,17.4477153 17.5522847,17 17,17 L17,17 Z M18,13 L6,13 L5.88337887,13.0067277 C5.38604019,13.0644928 5,13.4871642 5,14 C5,14.5522847 5.44771525,15 6,15 L6,15 L18,15 L18.1166211,14.9932723 C18.6139598,14.9355072 19,14.5128358 19,14 C19,13.4477153 18.5522847,13 18,13 L18,13 Z M18,9 L6,9 L5.88337887,9.00672773 C5.38604019,9.06449284 5,9.48716416 5,10 C5,10.5522847 5.44771525,11 6,11 L6,11 L18,11 L18.1166211,10.9932723 C18.6139598,10.9355072 19,10.5128358 19,10 C19,9.44771525 18.5522847,9 18,9 L18,9 Z M18,5 L6,5 L5.88337887,5.00672773 C5.38604019,5.06449284 5,5.48716416 5,6 C5,6.55228475 5.44771525,7 6,7 L6,7 L18,7 L18.1166211,6.99327227 C18.6139598,6.93550716 19,6.51283584 19,6 C19,5.44771525 18.5522847,5 18,5 L18,5 Z" id="Combined-Shape" fill="#001E62" fill-rule="nonzero"></path>
    </g>
</svg>