<?xml version="1.0" encoding="UTF-8"?>
<svg width="24px" height="24px" viewBox="0 0 24 24" version="1.1" xmlns="http://www.w3.org/2000/svg" xmlns:xlink="http://www.w3.org/1999/xlink">
    <!-- Generator: Sketch 63.1 (92452) - https://sketch.com -->
    <title>atom/icon/settings/website</title>
    <desc>Created with Sketch.</desc>
    <g id="atom/icon/settings/website" stroke="none" stroke-width="1" fill="none" fill-rule="evenodd">
        <path d="M22,12.5 C22.0015952,13.343125 21.8932085,14.183125 21.677403,15 L18,15 C18.1741928,13.3375 18.1741928,11.6621875 18,10 L21.677403,10 C21.8932085,10.816875 22.0015952,11.656875 22,12.5 L22,12.5 Z M16,21 C16.591204,19.7333385 17.0263879,18.3885994 17.294881,17 L20,17 C19.0687815,18.7357493 17.674982,20.1296368 16,21 L16,21 Z M15.8548439,15 L9.13100653,15 C9.04251966,14.17 8.99885838,13.3353125 9,12.5 C9,11.6646875 9.04368396,10.83 9.13100653,10 L15.8548439,10 C16.0300712,11.664375 16.0658734,13.34 15.8548439,15 L15.8548439,15 Z M14.0750988,19.721875 C13.3310277,21.284375 12.5335968,22 12,22 C11.4664032,22 10.6719368,21.2903125 9.92490119,19.721875 C9.52470356,18.8521875 9.21462451,17.9396875 9,17 L15,17 C14.7853755,17.9396875 14.4752964,18.8521875 14.0750988,19.721875 L14.0750988,19.721875 Z M6.70223504,7 L4,7 C4.93121846,5.26407465 6.32501802,3.87060653 8,3 C7.40879596,4.26687403 6.97332372,5.61150855 6.70511896,7 L6.70223504,7 Z M4,17 L6.70511896,17 C6.97361211,18.3885994 7.40879596,19.7333385 8,21 C6.3258832,20.1293258 4.93352559,18.7354382 4.00288392,17 L4,17 Z M2.32561794,15 C1.89146069,13.3596875 1.89146069,11.64 2.32561794,10 L6,10 C5.82595032,11.6621875 5.82595032,13.3375 6,15 L2.32561794,15 Z M9.92490119,4.278125 C10.6689723,2.715625 11.4664032,2 12,2 C12.5335968,2 13.3280632,2.709375 14.0750988,4.278125 C14.4747036,5.1478125 14.7847826,6.060625 15,7 L9,7 C9.21462451,6.0603125 9.52470356,5.1478125 9.92490119,4.278125 L9.92490119,4.278125 Z M20,7 L17.294881,7 C17.0263879,5.61150855 16.591204,4.26687403 16,3 C17.674982,3.87060653 19.0687815,5.26407465 20,7 L20,7 Z M12,0 C5.3727,0 0,5.3724 0,12 C0,18.6273 5.3727,24 12,24 C18.6276,24 24,18.6273 24,12 C24,5.3724 18.6276,0 12,0 L12,0 Z" id="Fill-1" fill="#001E62" fill-rule="nonzero"></path>
    </g>
</svg>