<?xml version="1.0" encoding="UTF-8"?>
<svg width="24px" height="24px" viewBox="0 0 24 24" version="1.1" xmlns="http://www.w3.org/2000/svg" xmlns:xlink="http://www.w3.org/1999/xlink">
    <!-- Generator: Sketch 63.1 (92452) - https://sketch.com -->
    <title>atom/icon/user/add</title>
    <desc>Created with Sketch.</desc>
    <g id="atom/icon/user/add" stroke="none" stroke-width="1" fill="none" fill-rule="evenodd">
        <path d="M7,13 C10.0281009,13 12.7718468,14.9641785 14,18.0111233 C10.0354106,21.9962922 3.96458936,21.9962922 1.0125234e-13,18.0111233 C1.22815318,14.9641785 3.97189909,13 7,13 Z M19.5922764,4.08570394 C20.1421871,4.0755694 20.5884033,4.47870522 20.6451627,5.00934902 L20.6510735,5.14450101 L20.589,8.497 L23.8628879,8.55752295 C24.4586245,8.56850204 24.9504647,9.06034224 24.9614438,9.6560788 C24.9715783,10.2059895 24.5684425,10.6522057 24.0377987,10.7089651 L23.9026467,10.7148759 L20.549,10.653 L20.4892229,13.9266829 C20.4782438,14.5224195 19.9864036,15.0142597 19.3906671,15.0252388 C18.8407564,15.0353733 18.3945402,14.6322375 18.3377808,14.1015937 L18.33187,13.9664417 L18.393,10.613 L15.1204648,10.5530253 C14.5247282,10.5420462 14.032888,10.050206 14.021909,9.45446947 C14.0117744,8.9045588 14.4149102,8.45834258 14.945554,8.40158319 L15.080706,8.3956724 L18.433,8.457 L18.4937206,5.18425978 C18.5046996,4.58852322 18.9965399,4.09668302 19.5922764,4.08570394 Z M6.5,3 C8.98528137,3 11,5.01471863 11,7.5 C11,9.98528137 8.98528137,12 6.5,12 C4.01471863,12 2,9.98528137 2,7.5 C2,5.01471863 4.01471863,3 6.5,3 Z" id="Combined-Shape" fill="#001E62" fill-rule="nonzero"></path>
    </g>
</svg>