<?xml version="1.0" encoding="UTF-8"?>
<svg width="20px" height="20px" viewBox="0 0 20 20" version="1.1" xmlns="http://www.w3.org/2000/svg" xmlns:xlink="http://www.w3.org/1999/xlink">
    <!-- Generator: Sketch 64 (93537) - https://sketch.com -->
    <title>atom/icon/user/date</title>
    <desc>Created with Sketch.</desc>
    <g id="atom/icon/user/date" stroke="none" stroke-width="1" fill="none" fill-rule="evenodd">
        <path d="M5.5,12.0017747 C7.87922214,12.0017747 10.0350225,13.4749085 11,15.7601172 C7.8849655,18.7489938 3.1150345,18.7489938 0,15.7601172 C0.964977498,13.4749085 3.12077786,12.0017747 5.5,12.0017747 Z M5.5,4.00177468 C7.43299662,4.00177468 9,5.56877805 9,7.50177468 C9,9.4347713 7.43299662,11.0017747 5.5,11.0017747 C3.56700338,11.0017747 2,9.4347713 2,7.50177468 C2,5.56877805 3.56700338,4.00177468 5.5,4.00177468 Z" id="Combined-Shape" fill="#001E62" fill-rule="nonzero"></path>
        <g id="atom/icon/date" transform="translate(12.000000, 2.000000)" fill="#001E62" fill-rule="nonzero">
            <path d="M1.75,4.95833333 C1.91107292,4.95833333 2.04166667,5.08892708 2.04166667,5.25 C2.04166667,5.41107292 1.91107292,5.54166667 1.75,5.54166667 C1.58892708,5.54166667 1.45833333,5.41107292 1.45833333,5.25 C1.45833333,5.08892708 1.58892708,4.95833333 1.75,4.95833333 Z M2.91666667,4.95833333 C3.07773958,4.95833333 3.20833333,5.08892708 3.20833333,5.25 C3.20833333,5.41107292 3.07773958,5.54166667 2.91666667,5.54166667 C2.75559375,5.54166667 2.625,5.41107292 2.625,5.25 C2.625,5.08892708 2.75559375,4.95833333 2.91666667,4.95833333 Z M4.08333333,4.95833333 C4.24440625,4.95833333 4.375,5.08892708 4.375,5.25 C4.375,5.41107292 4.24440625,5.54166667 4.08333333,5.54166667 C3.92226042,5.54166667 3.79166667,5.41107292 3.79166667,5.25 C3.79166667,5.08892708 3.92226042,4.95833333 4.08333333,4.95833333 Z M5.25,4.95833333 C5.41107292,4.95833333 5.54166667,5.08892708 5.54166667,5.25 C5.54166667,5.41107292 5.41107292,5.54166667 5.25,5.54166667 C5.08892708,5.54166667 4.95833333,5.41107292 4.95833333,5.25 C4.95833333,5.08892708 5.08892708,4.95833333 5.25,4.95833333 Z M1.75,3.79166667 C1.91107292,3.79166667 2.04166667,3.92226042 2.04166667,4.08333333 C2.04166667,4.24440625 1.91107292,4.375 1.75,4.375 C1.58892708,4.375 1.45833333,4.24440625 1.45833333,4.08333333 C1.45833333,3.92226042 1.58892708,3.79166667 1.75,3.79166667 Z M2.91666667,3.79166667 C3.07773958,3.79166667 3.20833333,3.92226042 3.20833333,4.08333333 C3.20833333,4.24440625 3.07773958,4.375 2.91666667,4.375 C2.75559375,4.375 2.625,4.24440625 2.625,4.08333333 C2.625,3.92226042 2.75559375,3.79166667 2.91666667,3.79166667 Z M4.08333333,3.79166667 C4.24440625,3.79166667 4.375,3.92226042 4.375,4.08333333 C4.375,4.24440625 4.24440625,4.375 4.08333333,4.375 C3.92226042,4.375 3.79166667,4.24440625 3.79166667,4.08333333 C3.79166667,3.92226042 3.92226042,3.79166667 4.08333333,3.79166667 Z M5.25,3.79166667 C5.41107292,3.79166667 5.54166667,3.92226042 5.54166667,4.08333333 C5.54166667,4.24440625 5.41107292,4.375 5.25,4.375 C5.08892708,4.375 4.95833333,4.24440625 4.95833333,4.08333333 C4.95833333,3.92226042 5.08892708,3.79166667 5.25,3.79166667 Z M5.83333333,6.41666667 L1.16666667,6.41666667 C0.844520833,6.41666667 0.583333333,6.15547917 0.583333333,5.83333333 L0.583333333,2.91666667 L6.41666667,2.91666667 L6.41666667,5.83333333 C6.41666667,6.15547917 6.15547917,6.41666667 5.83333333,6.41666667 M1.16666667,1.16666667 L1.45833333,1.16666667 L1.45833333,1.45833333 C1.45833333,1.61940625 1.58892708,1.75 1.75,1.75 C1.91107292,1.75 2.04166667,1.61940625 2.04166667,1.45833333 L2.04166667,1.16666667 L3.20833333,1.16666667 L3.20833333,1.45833333 C3.20833333,1.61940625 3.33892708,1.75 3.5,1.75 C3.66107292,1.75 3.79166667,1.61940625 3.79166667,1.45833333 L3.79166667,1.16666667 L4.95833333,1.16666667 L4.95833333,1.45833333 C4.95833333,1.61940625 5.08892708,1.75 5.25,1.75 C5.41107292,1.75 5.54166667,1.61940625 5.54166667,1.45833333 L5.54166667,1.16666667 L5.83333333,1.16666667 C6.15547917,1.16666667 6.41666667,1.42785417 6.41666667,1.75 L6.41666667,2.33333333 L0.583333333,2.33333333 L0.583333333,1.75 C0.583333333,1.42785417 0.844520833,1.16666667 1.16666667,1.16666667 M5.83333333,0.583333333 L5.54166667,0.583333333 L5.54166667,0.291666667 C5.54166667,0.13059375 5.41107292,0 5.25,0 C5.08892708,0 4.95833333,0.13059375 4.95833333,0.291666667 L4.95833333,0.583333333 L3.79166667,0.583333333 L3.79166667,0.291666667 C3.79166667,0.13059375 3.66107292,0 3.5,0 C3.33892708,0 3.20833333,0.13059375 3.20833333,0.291666667 L3.20833333,0.583333333 L2.04166667,0.583333333 L2.04166667,0.291666667 C2.04166667,0.13059375 1.91107292,0 1.75,0 C1.58892708,0 1.45833333,0.13059375 1.45833333,0.291666667 L1.45833333,0.583333333 L1.16666667,0.583333333 C0.522375,0.583333333 0,1.10570833 0,1.75 L0,5.83333333 C0,6.47769792 0.522375,7 1.16666667,7 L5.83333333,7 C6.47769792,7 7,6.47769792 7,5.83333333 L7,1.75 C7,1.10570833 6.47769792,0.583333333 5.83333333,0.583333333" id="Fill-1"></path>
        </g>
    </g>
</svg>