<?xml version="1.0" encoding="UTF-8"?>
<svg width="24px" height="24px" viewBox="0 0 24 24" version="1.1" xmlns="http://www.w3.org/2000/svg" xmlns:xlink="http://www.w3.org/1999/xlink">
    <!-- Generator: Sketch 63.1 (92452) - https://sketch.com -->
    <title>atom/icon/user/setting</title>
    <desc>Created with Sketch.</desc>
    <g id="atom/icon/user/setting" stroke="none" stroke-width="1" fill="none" fill-rule="evenodd">
        <path d="M7,13 C10.0281009,13 12.7718468,14.9641785 14,18.0111233 C10.0354106,21.9962922 3.96458936,21.9962922 -4.26325641e-14,18.0111233 C1.22815318,14.9641785 3.97189909,13 7,13 Z M6.5,3 C8.98528137,3 11,5.01471863 11,7.5 C11,9.98528137 8.98528137,12 6.5,12 C4.01471863,12 2,9.98528137 2,7.5 C2,5.01471863 4.01471863,3 6.5,3 Z M18.8100023,3.00000249 C18.9140911,3.00099884 19.0102253,3.05587854 19.0640022,3.14500485 C19.1250022,3.24100474 19.453002,3.79400412 19.5530019,4.01000388 L19.5530019,4.01000388 L20.2280016,4.28900357 C20.4660014,4.19900367 21.1030011,4.03800385 21.186001,4.01900387 C21.286744,3.99616947 21.3921485,4.02677075 21.4650009,4.10000378 L21.4650009,4.10000378 L21.9000006,4.5350033 C21.9750388,4.60684102 22.0075723,4.7123859 21.9860006,4.81400299 C21.9580006,4.92300287 21.7990007,5.54900217 21.7160007,5.77200192 L21.7160007,5.77200192 L21.9950006,6.44700117 C22.2200005,6.55100106 22.7880001,6.89000068 22.8600001,6.93600063 C22.9472115,6.99098631 23.0000025,7.08690217 23.0000025,7.19000034 L23.0000025,7.19000034 L23.0000025,7.80999965 C22.9997007,7.91480234 22.9447314,8.01185152 22.8550001,8.06599937 C22.7590002,8.1269993 22.2060005,8.45499894 21.9900006,8.55499883 L21.9900006,8.55499883 L21.7110007,9.22999807 C21.8010007,9.46799781 21.9620006,10.1049971 21.9810006,10.187997 C22.003835,10.2887399 21.9732337,10.3941443 21.9000006,10.4669967 L21.9000006,10.4669967 L21.4640009,10.8999962 C21.3921631,10.9750343 21.2866182,11.0075679 21.185001,10.9859961 C21.0760011,10.9579962 20.4500014,10.7989963 20.2270016,10.7159964 L20.2270016,10.7159964 L19.5520019,10.9949961 C19.448002,11.2199959 19.1090022,11.7879952 19.0630022,11.8599951 C19.0078274,11.9475082 18.9114558,12.0004181 18.8080023,12.0000025 L18.8080023,12.0000025 L18.1900027,12.0000025 C18.0850443,12.0002572 17.987581,11.9456475 17.9330028,11.8559952 C17.8720029,11.7599953 17.544003,11.2069959 17.4440031,10.9909961 L17.4440031,10.9909961 L16.7690035,10.7119964 C16.5310036,10.8019963 15.894004,10.9629961 15.811004,10.9819961 C15.710261,11.0048305 15.6048566,10.9742293 15.5320042,10.9009962 L15.5320042,10.9009962 L15.0950044,10.4639967 C15.0217713,10.3911443 14.99117,10.2857399 15.0140044,10.184997 C15.0420044,10.0759971 15.2010043,9.44999783 15.2840043,9.22699808 L15.2840043,9.22699808 L15.0050045,8.55199883 C14.7800046,8.44799895 14.2120049,8.10899932 14.1400049,8.06299937 C14.0524919,8.00782465 13.9995819,7.91145303 14.0000025,7.80799966 L14.0000025,7.80799966 L14.0000025,7.19000034 C14.0003578,7.08650828 14.0540283,6.99050617 14.1420049,6.93600063 C14.2380049,6.8750007 14.7910046,6.54700106 15.0070045,6.44700117 L15.0070045,6.44700117 L15.2860043,5.77200192 C15.1960043,5.53400219 15.0350044,4.8970029 15.0160044,4.81400299 C14.99317,4.71326008 15.0237713,4.60785566 15.0970044,4.5350033 L15.0970044,4.5350033 L15.5340042,4.09500379 C15.6068566,4.02177075 15.712261,3.99116947 15.813004,4.01400388 C15.9220039,4.04200385 16.5480036,4.20100367 16.7710035,4.28400358 L16.7710035,4.28400358 L17.4460031,4.00500389 C17.550003,3.78000414 17.8890029,3.21200477 17.9350028,3.14000485 C17.9901776,3.05249183 18.0865493,2.99958192 18.1900027,3.00000249 L18.1900027,3.00000249 Z M18.5040032,5.53700318 C17.4209742,5.53589984 16.5421104,6.41297233 16.5410046,7.49600069 C16.5399009,8.57902905 17.4169736,9.45789269 18.5000025,9.45899884 C19.0200918,9.45952852 19.5190905,9.25343278 19.8872242,8.88604937 C20.255358,8.51866595 20.4624713,8.02008904 20.4630025,7.5 C20.4641054,6.41697164 19.5870322,5.5381086 18.5040032,5.53700318 Z" id="Combined-Shape" fill="#001E62" fill-rule="nonzero"></path>
    </g>
</svg>