<?xml version="1.0" encoding="UTF-8"?>
<svg width="24px" height="24px" viewBox="0 0 24 24" version="1.1" xmlns="http://www.w3.org/2000/svg" xmlns:xlink="http://www.w3.org/1999/xlink">
    <!-- Generator: Sketch 63.1 (92452) - https://sketch.com -->
    <title>atom/icon/remediation/apple</title>
    <desc>Created with Sketch.</desc>
    <g id="atom/icon/remediation/apple" stroke="none" stroke-width="1" fill="none" fill-rule="evenodd">
        <g id="atom/icon/apple" fill="#001E62" fill-rule="nonzero">
            <path d="M15.2307692,3.42857143 C14.7064615,3.42857143 14.1876923,3.47057143 13.6763077,3.54771429 C14.4535385,2.71114286 15.7504615,1.71428571 17.5384615,1.71428571 C18.048,1.71428571 18.4615385,1.33028571 18.4615385,0.857142857 C18.4615385,0.384 18.048,0 17.5384615,0 C14.8726154,0 13.0707692,1.49571429 12.0821538,2.63657143 C11.8449231,2.154 11.5246154,1.70485714 11.1110769,1.32085714 C9.88430769,0.181714286 8.04738462,-0.264 6.36184615,0.160285714 C6.04523077,0.240857143 5.79784615,0.470571429 5.712,0.764571429 C5.40830769,1.80428571 5.52,2.89028571 5.97969231,3.83914286 C2.35476923,4.95257143 0,8.24914286 0,12.4285714 C0,17.1582857 3.12276923,24 8.76923077,24 C9.87692308,24 10.9615385,23.8268571 12,23.484 C13.0384615,23.8268571 14.1230769,24 15.2307692,24 C20.8772308,24 24,17.1582857 24,12.4285714 C24,7.21371429 20.3123077,3.42857143 15.2307692,3.42857143 Z M9.68448322,2.88004754 C10.1890587,3.23116295 10.4315735,3.70602389 10.368592,4.1934606 C10.2976474,4.19798788 10.2267028,4.2 10.1557582,4.2 C9.51942839,4.2 8.92291446,4.02947261 8.47697687,3.71910269 C7.97240137,3.36849032 7.73061053,2.89312634 7.79359198,2.40568963 C8.50231423,2.36595021 9.18931874,2.53547154 9.68448322,2.88004754 Z M14.992629,21.6 C14.0708993,21.6 13.1705455,21.44244 12.3163636,21.13278 C12.1137199,21.05868 11.8871351,21.05868 11.6844914,21.13278 C10.8294545,21.44244 9.92910074,21.6 9.00737101,21.6 C5.09301229,21.6 2.59459459,16.28742 2.59459459,12.63 C2.59459459,9.3306 4.55006388,6.78234 7.50079607,6.15522 C8.33103686,6.84318 9.38957248,7.23162 10.5242064,7.23162 C10.932059,7.23162 11.3382015,7.18248 11.7332285,7.08498 C12.0265061,7.01244 12.255656,6.8034 12.3351744,6.53586 C12.3428698,6.50934 12.3454349,6.48282 12.3531302,6.45552 C13.1953415,6.15444 14.0837248,6 14.992629,6 C18.7684717,6 21.4054054,8.7261 21.4054054,12.63 C21.4054054,16.28742 18.9069877,21.6 14.992629,21.6 Z" id="Shape"></path>
        </g>
    </g>
</svg>