<?xml version="1.0" encoding="UTF-8"?>
<svg width="24px" height="24px" viewBox="0 0 24 24" version="1.1" xmlns="http://www.w3.org/2000/svg" xmlns:xlink="http://www.w3.org/1999/xlink">
    <!-- Generator: Sketch 63.1 (92452) - https://sketch.com -->
    <title>atom/icon/remediation/energy</title>
    <desc>Created with Sketch.</desc>
    <g id="atom/icon/remediation/energy" stroke="none" stroke-width="1" fill="none" fill-rule="evenodd">
        <path d="M21.0289647,16 C21.1970882,16 21.3335362,16.1364439 21.3335362,16.3045623 L21.3335362,16.3045623 L21.3335362,18.6795622 L23.6956303,18.6795622 C23.8637539,18.6795622 24.0002019,18.8160061 24,18.9841246 L24,18.9841246 L24,21.0399382 C24,21.2080566 23.8635508,21.3445005 23.6954273,21.3445005 L23.6954273,21.3445005 L21.3333332,21.3445005 L21.3333332,23.6954377 C21.3333332,23.8635561 21.1968851,24 21.0287616,24 L21.0287616,24 L18.980037,24 C18.8119135,24 18.6754654,23.8635561 18.6754654,23.6954377 L18.6754654,23.6954377 L18.6754654,21.3445005 L16.3045716,21.3445005 C16.1364481,21.3445005 16,21.2080566 16,21.0399382 L16,21.0399382 L16,18.9841246 C16,18.8160061 16.1364481,18.6795622 16.3045716,18.6795622 L16.3045716,18.6795622 L18.6754654,18.6795622 L18.6754654,16.3045623 C18.6754654,16.1364439 18.8119135,16 18.980037,16 L18.980037,16 Z M18.5176653,0 C19,0 19,0.478015337 19,0.956030675 C14.6589878,7.6482454 18.0353306,22.4667209 5.01229416,21.9887055 C4.52995948,21.9887055 4.52995948,21.9887055 4.52995948,21.5106902 C5.01229416,13.8624448 7.90630227,8.12626074 13.6943185,3.8241227 C7.42396758,7.6482454 4.0476248,12.4283988 3.08295543,19.5986288 C3.08295543,20.0766442 2.60062074,20.5546595 2.11828606,20.0766442 C-3.66973015,14.3404601 2.60062074,0.478015337 18.5176653,0 Z" id="Combined-Shape" fill="#001E62" fill-rule="nonzero"></path>
    </g>
</svg>