<?xml version="1.0" encoding="UTF-8"?>
<svg width="24px" height="24px" viewBox="0 0 24 24" version="1.1" xmlns="http://www.w3.org/2000/svg" xmlns:xlink="http://www.w3.org/1999/xlink">
    <!-- Generator: Sketch 63.1 (92452) - https://sketch.com -->
    <title>atom/icon/remediation/training</title>
    <desc>Created with Sketch.</desc>
    <g id="atom/icon/remediation/training" stroke="none" stroke-width="1" fill="none" fill-rule="evenodd">
        <g id="atom/icon/training" transform="translate(2.000000, 0.000000)" fill="#001E62" fill-rule="nonzero">
            <path d="M10,4 C4.4771525,4 0,8.4771525 0,14 C0,19.5228475 4.4771525,24 10,24 C15.5228475,24 20,19.5228475 20,14 C20,8.4771525 15.5228475,4 10,4 Z M10,6 C14.418278,6 18,9.581722 18,14 C18,18.418278 14.418278,22 10,22 C5.581722,22 2,18.418278 2,14 C2,9.581722 5.581722,6 10,6 Z" id="Oval"></path>
            <path d="M10,7 C10.5377509,7 10.9763636,7.44214723 10.9990761,7.99648133 L11,8.04166667 L11,10.9583333 C11,11.5336299 10.5522847,12 10,12 C9.46224906,12 9.02363638,11.5578528 9.0009239,11.0035187 L9,10.9583333 L9,8.04166667 C9,7.46637005 9.44771525,7 10,7 Z" id="Path"></path>
            <path d="M18.5735931,4.71067812 L20.2893219,6.42640687 L17.7157288,9 L16,7.28427125 L18.5735931,4.71067812 Z M17.6250414,4.26465173 C17.9672174,3.92247576 18.5155518,3.91210679 18.8702223,4.23354483 L18.902893,4.26465173 L20.7353483,6.09710697 C21.0882172,6.44997595 21.0882172,7.0220896 20.7353483,7.37495857 C20.3931723,7.71713455 19.8448379,7.72750352 19.4901674,7.40606548 L19.4574967,7.37495857 L17.6250414,5.54250334 C17.2721724,5.18963436 17.2721724,4.61752071 17.6250414,4.26465173 Z" id="Path"></path>
            <path d="M10,10 C7.790861,10 6,11.790861 6,14 C6,16.209139 7.790861,18 10,18 C12.209139,18 14,16.209139 14,14 C14,11.790861 12.209139,10 10,10 Z M10,12 C11.1045695,12 12,12.8954305 12,14 C12,15.1045695 11.1045695,16 10,16 C8.8954305,16 8,15.1045695 8,14 C8,12.8954305 8.8954305,12 10,12 Z" id="Oval"></path>
            <path d="M10,0 C8.34314575,0 7,1.34314575 7,3 C7,4.65685425 8.34314575,6 10,6 C11.6568542,6 13,4.65685425 13,3 C13,1.34314575 11.6568542,0 10,0 Z M10,2 C10.5522847,2 11,2.44771525 11,3 C11,3.55228475 10.5522847,4 10,4 C9.44771525,4 9,3.55228475 9,3 C9,2.44771525 9.44771525,2 10,2 Z" id="Oval"></path>
        </g>
    </g>
</svg>