<?xml version="1.0" encoding="UTF-8"?>
<svg width="32px" height="32px" viewBox="0 0 32 32" version="1.1" xmlns="http://www.w3.org/2000/svg" xmlns:xlink="http://www.w3.org/1999/xlink">
    <!-- Generator: Sketch 64 (93537) - https://sketch.com -->
    <title>atom/icon/form/altitude</title>
    <desc>Created with Sketch.</desc>
    <g id="atom/icon/form/altitude" stroke="none" stroke-width="1" fill="none" fill-rule="evenodd">
        <path d="M2.18613904,28 C0.978767786,28 0,27.0233808 0,25.8186599 C0,25.4679925 0.084727406,25.1224936 0.247001045,24.8114464 L0.247001045,24.8114464 L11.5349775,3.17457566 C12.0924699,2.10597027 13.4125885,1.69063929 14.4835449,2.24690796 C14.8802749,2.45297472 15.2041144,2.77550271 15.4113722,3.17097782 L15.4113722,3.17097782 L21.165,14.149 L21.9108041,12.7228158 C22.2745055,12.0652125 23.1357351,11.8096242 23.8344142,12.1519434 C24.0500992,12.2576186 24.2327613,12.4130636 24.3659054,12.6027819 L24.4397177,12.7206017 L31.8373407,26.0355991 C32.2023413,26.6925645 31.9323909,27.5036359 31.2343896,27.8471779 C31.0712154,27.9274889 30.893459,27.9771084 30.7110354,27.9937438 L30.5734976,28 Z M13.5306144,14.8506885 L11.2688917,17.6650357 L8.513,15.617 L3.62019061,25.0273933 L23.3821134,25.0273933 L18.606,15.611 L16.3157903,17.6650357 L13.5306144,14.8506885 Z M23.0239236,14.5265098 L22.273,16.264 L26.750671,24.8078486 C26.7847486,24.8728732 26.8152155,24.9388269 26.8421433,25.0054813 L29.3009881,25.0057703 L23.0239236,14.5265098 Z M13.6245912,5.7898754 L9.736,13.266 L11.0333972,14.161391 L13.4336986,11.3186717 L16.499632,14.2031677 L17.508,13.447 L13.6245912,5.7898754 Z" id="Combined-Shape" fill="#001E62" fill-rule="nonzero"></path>
    </g>
</svg>