<?xml version="1.0" encoding="UTF-8"?>
<svg width="24px" height="24px" viewBox="0 0 24 24" version="1.1" xmlns="http://www.w3.org/2000/svg" xmlns:xlink="http://www.w3.org/1999/xlink">
    <!-- Generator: Sketch 63.1 (92452) - https://sketch.com -->
    <title>atom/icon/form/altitude-small</title>
    <desc>Created with Sketch.</desc>
    <g id="atom/icon/form/altitude-small" stroke="none" stroke-width="1" fill="none" fill-rule="evenodd">
        <path d="M9.11720636,3.81316777 C9.50951588,3.07336403 10.4384882,2.7858272 11.1921242,3.17093628 C11.4713046,3.31359788 11.6991916,3.53688649 11.8450397,3.81067695 L11.8450397,3.81067695 L15.628,10.913 L16.0044346,10.1786612 C16.256615,9.71285883 16.8537674,9.53181713 17.3382119,9.77429322 C17.4817798,9.84615239 17.6042457,9.95050127 17.6954906,10.0776284 L17.7579123,10.1770929 L22.8872166,19.6085494 C23.1402978,20.0738998 22.9531218,20.6484088 22.4691472,20.891751 C22.3630781,20.9450825 22.2481224,20.9793068 22.1299449,20.9930858 L22.0109032,21 L17.8600406,21 L17.86,20.999 L2.53839414,21 C1.73596427,21 1.07702568,20.3969168 1.00628691,19.6272967 L1,19.4898415 C1,19.2470718 1.05962299,19.0078802 1.17381555,18.7925398 L1.17381555,18.7925398 Z M10.1938462,11.6859043 L8.62563107,13.6794003 L6.987,12.434 L3.54754154,18.9420415 L17.4540798,18.9420415 L13.902,12.052 L12.125009,13.6794003 L10.1938462,11.6859043 Z M16.7762404,11.4562777 L16.396,12.355 L19.8245462,18.790049 C19.8401613,18.8193621 19.8546991,18.848948 19.8681734,18.8787629 L21.1285809,18.8790873 L16.7762404,11.4562777 Z M10.5876753,5.6237599 L7.864,10.775 L8.46234577,11.197652 L10.1266474,9.18405909 L12.2524797,11.2272438 L13.13,10.555 L10.5876753,5.6237599 Z" id="Combined-Shape" fill="#001E62" fill-rule="nonzero"></path>
    </g>
</svg>