<?xml version="1.0" encoding="UTF-8"?>
<svg width="32px" height="32px" viewBox="0 0 32 32" version="1.1" xmlns="http://www.w3.org/2000/svg" xmlns:xlink="http://www.w3.org/1999/xlink">
    <!-- Generator: Sketch 63.1 (92452) - https://sketch.com -->
    <title>atom/icon/form/breathing</title>
    <desc>Created with Sketch.</desc>
    <g id="atom/icon/form/breathing" stroke="none" stroke-width="1" fill="none" fill-rule="evenodd">
        <path d="M16.0527483,0 C16.5620133,0 16.9864007,0.411818178 16.9864007,0.905999992 L16.9864007,0.905999992 L16.9864007,11.077909 L18.1322469,12.6016363 C18.4293181,8.40109083 19.278093,4.52999996 21.3575915,4.61236359 C21.5273465,4.61236359 21.6971015,4.65354541 21.8668565,4.73590905 C23.0975801,5.23009086 29.2087596,7.94809084 31.1185031,17.1316362 C31.1185031,17.1316362 32.5614205,22.8147271 31.7550843,30.4333634 C31.6702068,31.3393634 30.8638706,32.0394543 29.9302182,31.9982724 C29.3360758,31.9570906 28.5297396,31.7511815 27.468771,31.1746361 C27.468771,31.1746361 23.2248964,29.5685452 20.3815004,26.5622725 C18.8537055,24.9973634 18.0473694,22.8970907 17.9624919,20.7556362 C17.9200531,19.6025453 17.8776144,17.9964544 17.9200531,16.2256362 L17.9200531,16.2256362 L16.0103096,13.5076362 L14.0581272,16.266818 C14.100566,17.9964544 14.0581272,19.5613635 14.0156885,20.7144544 C13.930811,22.8559089 13.1244748,24.9561816 11.59668,26.5210907 C8.753284,29.5273634 4.5094094,31.1334543 4.5094094,31.1334543 C3.44844075,31.7099997 2.64210458,31.9159088 2.04796213,31.9570906 C1.11430972,31.9982724 0.30797355,31.2981815 0.223096058,30.3921815 C-0.54080137,22.7735453 0.902115993,17.1316362 0.902115993,17.1316362 C2.81185956,7.94809084 8.92303898,5.18890904 10.1537626,4.73590905 C10.3235176,4.65354541 10.4932726,4.61236359 10.6630276,4.61236359 C12.7849649,4.48881814 13.6337398,8.44227265 13.930811,12.6428181 L13.930811,12.6428181 L15.1190959,11.077909 L15.1190959,0.905999992 C15.1190959,0.411818178 15.5434834,0 16.0527483,0 Z M9.36211597,9.46803639 C9.27450203,9.46803639 8.43012411,9.84413388 8.34251016,9.89439191 C7.70730905,10.1959401 4.72396193,12.5908309 3.73830503,18.1946013 C3.73830503,18.1946013 2.69967404,21.7248171 3.11584029,26.3736849 C3.15964726,26.9265232 3.25642832,27.4917108 3.73830503,27.4665817 C4.04495384,27.4414527 5.52800602,26.7164954 6.07559319,26.3646892 C6.07559319,26.3646892 8.26370988,25.0609772 9.73124349,23.2265591 C10.519769,22.2716565 10.9426633,21.1527115 10.9864702,19.8460027 C11.0083737,19.1423903 11.0302772,18.1623587 11.0083737,17.0818111 L11.0083737,17.0818111 L10.8988563,14.8704578 C10.7455319,12.3072982 10.4353868,9.41777836 9.36211597,9.46803639 Z M22.637884,9.46803639 C21.5646132,9.41777836 21.2544681,12.3072982 21.1011437,14.8704578 L20.9916263,17.0818111 C20.9697228,18.1623587 20.9916263,19.1423903 21.0135298,19.8460027 C21.0573367,21.1527115 21.480231,22.2716565 22.2687565,23.2265591 C23.7362901,25.0609772 25.9244068,26.3646892 25.9244068,26.3646892 C26.471994,26.7164954 27.9550462,27.4414527 28.261695,27.4665817 C28.7435717,27.4917108 28.8403527,26.9265232 28.8841597,26.3736849 C29.300326,21.7248171 28.261695,18.1946013 28.261695,18.1946013 C27.2760381,12.5908309 24.292691,10.1959401 23.6574898,9.89439191 C23.5698759,9.84413388 22.725498,9.46803639 22.637884,9.46803639 Z" id="Combined-Shape" fill="#001E62" fill-rule="nonzero"></path>
    </g>
</svg>