<?xml version="1.0" encoding="UTF-8"?>
<svg width="24px" height="24px" viewBox="0 0 24 24" version="1.1" xmlns="http://www.w3.org/2000/svg" xmlns:xlink="http://www.w3.org/1999/xlink">
    <!-- Generator: Sketch 63.1 (92452) - https://sketch.com -->
    <title>atom/icon/form/breathing-small</title>
    <desc>Created with Sketch.</desc>
    <g id="atom/icon/form/breathing-small" stroke="none" stroke-width="1" fill="none" fill-rule="evenodd">
        <path d="M12.0395612,0 C12.4215099,0 12.7398005,0.308863634 12.7398005,0.679499994 L12.7398005,0.679499994 L12.7398005,8.30843174 L13.5991851,9.45122719 C13.8219886,6.30081813 14.4585697,3.39749997 16.0181937,3.4592727 C16.1455099,3.4592727 16.2728261,3.49015906 16.4001424,3.55193179 C17.3231851,3.92256815 21.9065697,5.96106813 23.3388773,12.8487272 C23.3388773,12.8487272 24.4210654,17.1110453 23.8163132,22.8250225 C23.7526551,23.5045225 23.147903,24.0295907 22.4476637,23.9987043 C22.0020568,23.967818 21.3973047,23.8133861 20.6015782,23.3809771 C20.6015782,23.3809771 17.4186723,22.1764089 15.2861253,19.9217044 C14.1402792,18.7480226 13.535527,17.172818 13.4718689,15.5667271 C13.4400398,14.701909 13.4082108,13.4973408 13.4400398,12.1692272 L13.4400398,12.1692272 L12.0077322,10.1307272 L10.5435954,12.2001135 C10.5754245,13.4973408 10.5435954,14.6710226 10.5117664,15.5358408 C10.4481083,17.1419317 9.84335612,18.7171362 8.69750998,19.890818 C6.564963,22.1455225 3.38205705,23.3500907 3.38205705,23.3500907 C2.58633056,23.7824998 1.98157843,23.9369316 1.5359716,23.967818 C0.835732292,23.9987043 0.230980162,23.4736362 0.167322043,22.7941362 C-0.405601027,17.0801589 0.676586995,12.8487272 0.676586995,12.8487272 C2.10889467,5.96106813 6.69227924,3.89168178 7.61532196,3.55193179 C7.7426382,3.49015906 7.86995444,3.4592727 7.99727067,3.4592727 C9.58872365,3.36661361 10.2253048,6.33170449 10.4481083,9.48211355 L10.4481083,9.48211355 L11.3393219,8.30843174 L11.3393219,0.679499994 C11.3393219,0.308863634 11.6576125,0 12.0395612,0 Z M6.75850215,7.0005028 C6.69279169,7.0005028 6.05950825,7.29302307 5.99379779,7.33211265 L5.95137578,7.35471424 C5.39754488,7.66915931 3.25990709,9.54713998 2.54064394,13.7878311 C2.54064394,13.7878311 1.7616707,16.5335545 2.07379539,20.1493405 C2.10665062,20.5793259 2.17923641,21.0189162 2.54064394,20.9993714 C2.77063055,20.9798266 3.88291969,20.415971 4.29361006,20.1423439 C4.29361006,20.1423439 5.93469758,19.1283456 7.03534779,17.701576 C7.62674193,16.958874 7.94391261,16.0885834 7.97676784,15.0722544 C7.99319546,14.5250003 8.00962307,13.7627535 7.99319546,12.9223276 L7.99319546,12.9223276 L7.91105738,11.2023861 C7.79606408,9.20881756 7.56345529,6.96141322 6.75850215,7.0005028 Z M17.2414978,7.0005028 C16.4365447,6.96141322 16.2039359,9.20881756 16.0889426,11.2023861 L16.0068045,12.9223276 C15.9903769,13.7627535 16.0068045,14.5250003 16.0232322,15.0722544 C16.0560874,16.0885834 16.3732581,16.958874 16.9646522,17.701576 C18.0653024,19.1283456 19.7063899,20.1423439 19.7063899,20.1423439 C20.1170803,20.415971 21.2293694,20.9798266 21.4593561,20.9993714 C21.8207636,21.0189162 21.8933494,20.5793259 21.9262046,20.1493405 C22.2383293,16.5335545 21.4593561,13.7878311 21.4593561,13.7878311 C20.7400929,9.54713998 18.6024551,7.66915931 18.0486242,7.35471424 L18.0062022,7.33211265 C17.9404917,7.29302307 17.3072083,7.0005028 17.2414978,7.0005028 Z" id="Combined-Shape" fill="#001E62" fill-rule="nonzero"></path>
    </g>
</svg>