<?xml version="1.0" encoding="UTF-8"?>
<svg width="32px" height="32px" viewBox="0 0 32 32" version="1.1" xmlns="http://www.w3.org/2000/svg" xmlns:xlink="http://www.w3.org/1999/xlink">
    <!-- Generator: Sketch 64 (93537) - https://sketch.com -->
    <title>atom/icon/form/calendar</title>
    <desc>Created with Sketch.</desc>
    <g id="atom/icon/form/calendar" stroke="none" stroke-width="1" fill="none" fill-rule="evenodd">
        <path d="M23.75,2 C24.4173021,2 24.9583333,2.54103125 24.9583333,3.20833333 L24.9583333,3.20833333 L24.9583333,4.41666667 L26.1666667,4.41666667 C28.8361771,4.41666667 31,6.58079167 31,9.25 L31,9.25 L31,26.1666667 C31,28.8361771 28.8361771,31 26.1666667,31 L26.1666667,31 L6.83333333,31 C4.164125,31 2,28.8361771 2,26.1666667 L2,26.1666667 L2,9.25 C2,6.58079167 4.164125,4.41666667 6.83333333,4.41666667 L6.83333333,4.41666667 L8.04166667,4.41666667 L8.04166667,3.20833333 C8.04166667,2.54103125 8.58269792,2 9.25,2 C9.91730208,2 10.4583333,2.54103125 10.4583333,3.20833333 L10.4583333,3.20833333 L10.4583333,4.41666667 L15.2916667,4.41666667 L15.2916667,3.20833333 C15.2916667,2.54103125 15.8326979,2 16.5,2 C17.1673021,2 17.7083333,2.54103125 17.7083333,3.20833333 L17.7083333,3.20833333 L17.7083333,4.41666667 L22.5416667,4.41666667 L22.5416667,3.20833333 C22.5416667,2.54103125 23.0826979,2 23.75,2 Z M28.5833333,14.0833333 L4.41666667,14.0833333 L4.41666667,26.1666667 C4.41666667,27.5012708 5.49872917,28.5833333 6.83333333,28.5833333 L6.83333333,28.5833333 L26.1666667,28.5833333 C27.5012708,28.5833333 28.5833333,27.5012708 28.5833333,26.1666667 L28.5833333,26.1666667 L28.5833333,14.0833333 Z M9,22 C10.1045,22 11,22.8955 11,24 C11,25.1045 10.1045,26 9,26 C7.8955,26 7,25.1045 7,24 C7,22.8955 7.8955,22 9,22 Z M14,22 C15.1045,22 16,22.8955 16,24 C16,25.1045 15.1045,26 14,26 C12.8955,26 12,25.1045 12,24 C12,22.8955 12.8955,22 14,22 Z M19,22 C20.1045,22 21,22.8955 21,24 C21,25.1045 20.1045,26 19,26 C17.8955,26 17,25.1045 17,24 C17,22.8955 17.8955,22 19,22 Z M24,22 C25.1045,22 26,22.8955 26,24 C26,25.1045 25.1045,26 24,26 C22.8955,26 22,25.1045 22,24 C22,22.8955 22.8955,22 24,22 Z M9,17 C10.1045,17 11,17.8955 11,19 C11,20.1045 10.1045,21 9,21 C7.8955,21 7,20.1045 7,19 C7,17.8955 7.8955,17 9,17 Z M14,17 C15.1045,17 16,17.8955 16,19 C16,20.1045 15.1045,21 14,21 C12.8955,21 12,20.1045 12,19 C12,17.8955 12.8955,17 14,17 Z M19,17 C20.1045,17 21,17.8955 21,19 C21,20.1045 20.1045,21 19,21 C17.8955,21 17,20.1045 17,19 C17,17.8955 17.8955,17 19,17 Z M24,17 C25.1045,17 26,17.8955 26,19 C26,20.1045 25.1045,21 24,21 C22.8955,21 22,20.1045 22,19 C22,17.8955 22.8955,17 24,17 Z M8.04166667,6.83333333 L6.83333333,6.83333333 C5.49872917,6.83333333 4.41666667,7.91539583 4.41666667,9.25 L4.41666667,9.25 L4.41666667,11.6666667 L28.5833333,11.6666667 L28.5833333,9.25 C28.5833333,7.91539583 27.5012708,6.83333333 26.1666667,6.83333333 L26.1666667,6.83333333 L24.9583333,6.83333333 L24.9583333,8.04166667 C24.9583333,8.70896875 24.4173021,9.25 23.75,9.25 C23.0826979,9.25 22.5416667,8.70896875 22.5416667,8.04166667 L22.5416667,8.04166667 L22.5416667,6.83333333 L17.7083333,6.83333333 L17.7083333,8.04166667 C17.7083333,8.70896875 17.1673021,9.25 16.5,9.25 C15.8326979,9.25 15.2916667,8.70896875 15.2916667,8.04166667 L15.2916667,8.04166667 L15.2916667,6.83333333 L10.4583333,6.83333333 L10.4583333,8.04166667 C10.4583333,8.70896875 9.91730208,9.25 9.25,9.25 C8.58269792,9.25 8.04166667,8.70896875 8.04166667,8.04166667 L8.04166667,8.04166667 L8.04166667,6.83333333 Z" id="Combined-Shape" fill="#001E62" fill-rule="nonzero"></path>
    </g>
</svg>