<?xml version="1.0" encoding="UTF-8"?>
<svg width="24px" height="24px" viewBox="0 0 24 24" version="1.1" xmlns="http://www.w3.org/2000/svg" xmlns:xlink="http://www.w3.org/1999/xlink">
    <!-- Generator: Sketch 63.1 (92452) - https://sketch.com -->
    <title>atom/icon/form/calendar copy</title>
    <desc>Created with Sketch.</desc>
    <g id="atom/icon/form/calendar-copy" stroke="none" stroke-width="1" fill="none" fill-rule="evenodd">
        <path d="M17.5,1 C18.0062292,1 18.4166667,1.4104375 18.4166667,1.91666667 L18.4166667,1.91666667 L18.4166667,2.83333333 L19.3333333,2.83333333 C21.3584792,2.83333333 23,4.47508333 23,6.5 L23,6.5 L23,19.3333333 C23,21.3584792 21.3584792,23 19.3333333,23 L19.3333333,23 L4.66666667,23 C2.64175,23 1,21.3584792 1,19.3333333 L1,19.3333333 L1,6.5 C1,4.47508333 2.64175,2.83333333 4.66666667,2.83333333 L4.66666667,2.83333333 L5.58333333,2.83333333 L5.58333333,1.91666667 C5.58333333,1.4104375 5.99377083,1 6.5,1 C7.00622917,1 7.41666667,1.4104375 7.41666667,1.91666667 L7.41666667,1.91666667 L7.41666667,2.83333333 L11.0833333,2.83333333 L11.0833333,1.91666667 C11.0833333,1.4104375 11.4937708,1 12,1 C12.5062292,1 12.9166667,1.4104375 12.9166667,1.91666667 L12.9166667,1.91666667 L12.9166667,2.83333333 L16.5833333,2.83333333 L16.5833333,1.91666667 C16.5833333,1.4104375 16.9937708,1 17.5,1 Z M21.1666667,10.1666667 L2.83333333,10.1666667 L2.83333333,19.3333333 C2.83333333,20.3457917 3.65420833,21.1666667 4.66666667,21.1666667 L4.66666667,21.1666667 L19.3333333,21.1666667 C20.3457917,21.1666667 21.1666667,20.3457917 21.1666667,19.3333333 L21.1666667,19.3333333 L21.1666667,10.1666667 Z M6,17 C6.55225,17 7,17.44775 7,18 C7,18.55225 6.55225,19 6,19 C5.44775,19 5,18.55225 5,18 C5,17.44775 5.44775,17 6,17 Z M10,17 C10.55225,17 11,17.44775 11,18 C11,18.55225 10.55225,19 10,19 C9.44775,19 9,18.55225 9,18 C9,17.44775 9.44775,17 10,17 Z M14,17 C14.55225,17 15,17.44775 15,18 C15,18.55225 14.55225,19 14,19 C13.44775,19 13,18.55225 13,18 C13,17.44775 13.44775,17 14,17 Z M18,17 C18.55225,17 19,17.44775 19,18 C19,18.55225 18.55225,19 18,19 C17.44775,19 17,18.55225 17,18 C17,17.44775 17.44775,17 18,17 Z M6,13 C6.55225,13 7,13.44775 7,14 C7,14.55225 6.55225,15 6,15 C5.44775,15 5,14.55225 5,14 C5,13.44775 5.44775,13 6,13 Z M10,13 C10.55225,13 11,13.44775 11,14 C11,14.55225 10.55225,15 10,15 C9.44775,15 9,14.55225 9,14 C9,13.44775 9.44775,13 10,13 Z M14,13 C14.55225,13 15,13.44775 15,14 C15,14.55225 14.55225,15 14,15 C13.44775,15 13,14.55225 13,14 C13,13.44775 13.44775,13 14,13 Z M18,13 C18.55225,13 19,13.44775 19,14 C19,14.55225 18.55225,15 18,15 C17.44775,15 17,14.55225 17,14 C17,13.44775 17.44775,13 18,13 Z M5.58333333,4.66666667 L4.66666667,4.66666667 C3.65420833,4.66666667 2.83333333,5.48754167 2.83333333,6.5 L2.83333333,6.5 L2.83333333,8.33333333 L21.1666667,8.33333333 L21.1666667,6.5 C21.1666667,5.48754167 20.3457917,4.66666667 19.3333333,4.66666667 L19.3333333,4.66666667 L18.4166667,4.66666667 L18.4166667,5.58333333 C18.4166667,6.0895625 18.0062292,6.5 17.5,6.5 C16.9937708,6.5 16.5833333,6.0895625 16.5833333,5.58333333 L16.5833333,5.58333333 L16.5833333,4.66666667 L12.9166667,4.66666667 L12.9166667,5.58333333 C12.9166667,6.0895625 12.5062292,6.5 12,6.5 C11.4937708,6.5 11.0833333,6.0895625 11.0833333,5.58333333 L11.0833333,5.58333333 L11.0833333,4.66666667 L7.41666667,4.66666667 L7.41666667,5.58333333 C7.41666667,6.0895625 7.00622917,6.5 6.5,6.5 C5.99377083,6.5 5.58333333,6.0895625 5.58333333,5.58333333 L5.58333333,5.58333333 L5.58333333,4.66666667 Z" id="Combined-Shape" fill="#001E62" fill-rule="nonzero"></path>
    </g>
</svg>