<?xml version="1.0" encoding="UTF-8"?>
<svg width="32px" height="32px" viewBox="0 0 32 32" version="1.1" xmlns="http://www.w3.org/2000/svg" xmlns:xlink="http://www.w3.org/1999/xlink">
    <!-- Generator: Sketch 63.1 (92452) - https://sketch.com -->
    <title>atom/icon/form/competition</title>
    <desc>Created with Sketch.</desc>
    <g id="atom/icon/form/competition" stroke="none" stroke-width="1" fill="none" fill-rule="evenodd">
        <path d="M23.9151699,30.000123 C24.300707,29.9944723 24.6595691,30.1838022 24.854101,30.4954882 C25.048633,30.8071742 25.048633,31.1928258 24.854101,31.5045118 C24.6595691,31.8161978 24.300707,32.0055277 23.9151699,31.999877 L23.9151699,31.999877 L9.05139143,31.999877 C8.46808065,31.9913275 8,31.5461811 8,31 C8,30.4538189 8.46808065,30.0086725 9.05139143,30.000123 L9.05139143,30.000123 Z M16.7272672,5.32907052e-14 C16.7797866,5.32907052e-14 16.8322418,0.00369559151 16.8842442,0.0110985963 L16.8842442,0.0110985963 L26.2754464,0.0110985963 C26.8811743,0.011098578 27.3722554,0.505530437 27.3724038,1.11554082 L27.3724038,1.11554082 L27.3724038,6.47912372 L30.8968598,6.45421963 C31.188799,6.45205981 31.4694732,6.56755995 31.6763688,6.77499513 C31.8834276,6.98226571 32,7.26410889 32,7.55812046 L32,7.55812046 L32,12.5324416 C32,12.5932947 31.9951162,12.6540483 31.9852156,12.714079 C31.8545807,13.5026183 30.991476,14.9933446 28.6583249,14.9933446 C28.0592606,14.9838999 27.5785384,14.4921407 27.5785384,13.888767 C27.5785384,13.2853934 28.0592606,12.7936342 28.6583249,12.7841895 C29.4821853,12.7841895 29.7329721,12.499958 29.8063535,12.3602786 L29.8063535,12.3602786 L29.8063535,8.67122497 L27.3710598,8.68827886 L27.3712375,12.5341974 C27.3625321,13.2564509 27.1826,16.4002023 24.8019056,18.8713444 C23.0877921,20.6503627 20.6686262,21.6484211 17.6043493,21.8490073 L17.6043493,21.8490073 L17.6043493,26.7908449 L20.7731879,26.7908449 C21.3722522,26.8002896 21.8529743,27.2920488 21.8529743,27.8954224 C21.8529743,28.4987961 21.3722522,28.9905553 20.7731879,29 L20.7731879,29 L12.2424024,29 C11.6433381,28.9905553 11.1626159,28.4987961 11.1626159,27.8954224 C11.1626159,27.2920488 11.6433381,26.8002896 12.2424024,26.7908449 L12.2424024,26.7908449 L15.4117786,26.7908449 L15.4117786,21.8281637 C12.411744,21.6072752 10.0393486,20.6130065 8.35023316,18.8597045 C5.7765094,16.1881995 5.77489662,12.7305915 5.78107893,12.3962812 L5.78107893,12.3962812 L5.78107893,8.68124075 L3.19337776,8.66256268 L3.19337776,12.3510749 C3.26649033,12.4907543 3.51781479,12.7752565 4.3416752,12.7752565 C4.94743379,12.7752565 5.43849815,13.2697927 5.43849815,13.8798341 C5.43849815,14.4898754 4.94743379,14.9844116 4.3416752,14.9844116 C2.00933043,14.9844116 1.14541939,13.4931439 1.01478443,12.7048754 C1.00488023,12.6448451 1,12.5840912 1,12.5232379 L1,12.5232379 L1,7.54945817 C1,7.25519589 1.11650955,6.97308142 1.32390008,6.76579144 C1.53209595,6.56033943 1.8119208,6.4451888 2.1034091,6.44501594 L2.1034091,6.44501594 L5.78000375,6.4720856 L5.78000375,1.10444226 C5.78000374,0.811479061 5.89558428,0.530518829 6.10131142,0.323387951 C6.30703856,0.116257073 6.58605464,5.32907052e-14 6.8769611,5.32907052e-14 L6.8769611,5.32907052e-14 Z M16.2665505,2.20888448 L7.97330481,2.20888448 L7.97375229,12.5059367 C7.98176972,12.9405754 8.10803241,15.4519047 9.94285074,17.3402843 C11.44354,18.88515 13.7261575,19.6682753 16.727536,19.6682753 C16.7654253,19.6682124 16.8032906,19.6702004 16.840968,19.6742306 C19.6501573,19.6041202 21.7973015,18.8169344 23.2278349,17.3321634 C25.0655793,15.42475 25.1736911,12.9495548 25.1774882,12.5181491 L25.1771451,2.22025374 L16.4235275,2.22025374 C16.3710018,2.22017719 16.3185466,2.21637806 16.2665505,2.20888448 L16.2665505,2.20888448 Z" id="Combined-Shape" fill="#001E62" fill-rule="nonzero"></path>
    </g>
</svg>