<?xml version="1.0" encoding="UTF-8"?>
<svg width="24px" height="24px" viewBox="0 0 24 24" version="1.1" xmlns="http://www.w3.org/2000/svg" xmlns:xlink="http://www.w3.org/1999/xlink">
    <!-- Generator: Sketch 63.1 (92452) - https://sketch.com -->
    <title>atom/icon/form/competition-small</title>
    <desc>Created with Sketch.</desc>
    <g id="atom/icon/form/competition-small" stroke="none" stroke-width="1" fill="none" fill-rule="evenodd">
        <path d="M17.2342375,23.0000615 C17.5063814,22.9972361 17.7596958,23.0919011 17.8970125,23.2477441 C18.0343292,23.4035871 18.0343292,23.5964129 17.8970125,23.7522559 C17.7596958,23.9080989 17.5063814,24.0027639 17.2342375,23.9999385 L17.2342375,23.9999385 L6.74215865,23.9999385 C6.33040987,23.9956637 6,23.7730906 6,23.5 C6,23.2269094 6.33040987,23.0043363 6.74215865,23.0000615 L6.74215865,23.0000615 Z M12.1612864,1 C12.1985582,1 12.2357845,1.00267612 12.2726895,1.00803691 L12.2726895,1.00803691 L18.9374136,1.00803691 C19.367285,1.0080369 19.7157941,1.36607376 19.7158995,1.80780542 L19.7158995,1.80780542 L19.7158995,5.69177924 L22.2171263,5.67374525 C22.424309,5.67218124 22.6234971,5.75581927 22.7703262,5.90603095 C22.9172712,6.05612345 23,6.26021678 23,6.47312171 L23,6.47312171 L23,10.0752163 C23,10.1192824 22.9965341,10.1632764 22.9895079,10.2067469 C22.8967992,10.7777581 22.2842733,11.8572495 20.6284886,11.8572495 C20.2033462,11.8504103 19.8621886,11.4943088 19.8621886,11.057383 C19.8621886,10.6204573 20.2033462,10.2643558 20.6284886,10.2575165 C21.2131637,10.2575165 21.3911415,10.0516937 21.4432186,9.95054654 L21.4432186,9.95054654 L21.4432186,7.27916291 L19.7149457,7.29151228 L19.7149457,9.98504636 C19.7193331,10.2271332 19.7181886,12.7309182 17.8916749,14.6654563 C16.6752073,15.9537109 14.9583798,16.6764429 12.7837318,16.8216949 L12.7837318,16.8216949 L12.7837318,20.400267 L15.0325849,20.400267 C15.4577274,20.4071063 15.798885,20.7632077 15.798885,21.2001335 C15.798885,21.6370592 15.4577274,21.9931607 15.0325849,22 L15.0325849,22 L8.9784791,22 C8.55333669,21.9931607 8.21217904,21.6370592 8.21217904,21.2001335 C8.21217904,20.7632077 8.55333669,20.4071063 8.9784791,20.400267 L8.9784791,20.400267 L11.2277138,20.400267 L11.2277138,16.8066013 C9.09865702,16.6466476 7.41502158,15.9266599 6.2162945,14.6570274 C4.38978086,12.7224893 4.38863631,10.2187042 4.39302376,9.97661743 L4.39302376,9.97661743 L4.39302376,7.28641571 L2.55659067,7.27289022 L2.55659067,9.9438818 C2.60847701,10.045029 2.7868363,10.2510478 3.37151143,10.2510478 C3.80140462,10.2510478 4.14990192,10.6091602 4.14990192,11.0509143 C4.14990192,11.4926684 3.80140462,11.8507808 3.37151143,11.8507808 C1.71629901,11.8507808 1.10320086,10.7708973 1.01049218,10.2000822 C1.00346339,10.156612 1,10.1126177 1,10.0685516 L1,10.0685516 L1,6.46684902 C1,6.25376254 1.0826842,6.04947275 1.22986457,5.89936622 C1.37761648,5.75059062 1.57620186,5.66720568 1.78306453,5.66708051 L1.78306453,5.66708051 L4.39226072,5.68668268 L4.39226072,1.79976853 C4.39226072,1.58762277 4.47428562,1.38416881 4.62028552,1.23417748 C4.76628543,1.08418616 4.96429684,1 5.17074659,1 L5.17074659,1 Z M11.8343262,2.59953704 L5.94879696,2.59953704 L5.94887938,10.0402521 C5.95192825,10.3039823 6.02055644,12.1642601 7.34653924,13.5567576 C8.41154453,14.6754534 10.0314666,15.2425442 12.1614772,15.2425442 C12.1883664,15.2424986 12.2152385,15.2439382 12.2419773,15.2468567 C14.2355955,15.196087 15.7593752,14.626056 16.7745925,13.550877 L16.7745925,13.550877 C18.2010854,12.0401378 18.1591185,10.0375802 18.1579739,10.017586 L18.1579739,10.017586 L18.1579739,2.60776995 L11.9457292,2.60776995 C11.9084529,2.60771452 11.8712266,2.60496342 11.8343262,2.59953704 L11.8343262,2.59953704 Z" id="Combined-Shape" fill="#001E62" fill-rule="nonzero"></path>
    </g>
</svg>