<?xml version="1.0" encoding="UTF-8"?>
<svg width="24px" height="24px" viewBox="0 0 24 24" version="1.1" xmlns="http://www.w3.org/2000/svg" xmlns:xlink="http://www.w3.org/1999/xlink">
    <!-- Generator: Sketch 63.1 (92452) - https://sketch.com -->
    <title>atom/icon/form/digest-nigh-small</title>
    <desc>Created with Sketch.</desc>
    <g id="atom/icon/form/digest-nigh-small" stroke="none" stroke-width="1" fill="none" fill-rule="evenodd">
        <path d="M22.0112464,5.02479805 C20.8380862,3.85005569 19.3439188,3.20313535 17.8040395,3.20313535 C16.5343383,3.20313535 15.1742366,3.65516755 14.3302708,4.34404297 C13.8946425,3.36520378 13.5173482,1.90827964 13.9451304,0.210113769 C13.9580935,0.159699999 13.9464949,0.105902753 13.9140872,0.0649627113 C13.8816795,0.0236843218 13.832215,0 13.7796804,0 L10.2980656,0 C10.2144878,0 10.1431907,0.0598874995 10.1298865,0.141767583 C9.55405213,3.61456586 10.8588901,6.15521689 11.3501232,7.11172515 C11.4251727,7.25789125 11.4845301,7.37292938 11.5060215,7.43247854 C11.9078775,8.53921306 11.8382861,10.7665544 11.1433959,12.0911846 C9.74849857,14.7495806 8.24136807,15.1082289 6.95085773,15.1082289 C6.42346439,15.1082289 5.88208456,15.039206 5.35878484,14.9728899 C4.83753192,14.9065738 4.29888116,14.8382276 3.7752403,14.8382276 C2.55739152,14.8382276 1.66396129,15.21447 0.878670564,16.0579702 C-0.806190808,17.8684674 0.254395142,21.7445759 1.37843204,23.9083078 C1.40742844,23.9648119 1.4661035,24 1.52989558,24 L4.77544551,24 C4.77783345,24 4.78022138,23.9996617 4.78226819,24 C4.8764212,24 4.95283524,23.9242102 4.95283524,23.8308263 C4.95283524,23.7858261 4.93509627,23.744886 4.90609987,23.7144347 C4.49673894,22.9490928 3.18951303,20.1211848 3.6002385,18.927495 C3.675288,18.7095992 3.80150762,18.5637714 3.97139241,18.4842598 C4.04337171,18.4994854 4.22826639,18.7332835 4.3913285,18.9393371 C5.25678574,20.0332144 7.05797384,22.3092778 12.2875598,22.4304062 C12.3421412,22.4314212 12.4018397,22.4324362 12.4656318,22.4324362 C12.4656318,22.4324362 12.4659729,22.4324362 12.4659729,22.4324362 C13.3290422,22.4324362 16.3562663,22.289992 19.0996668,20.4591939 C22.3035984,18.3211763 23.9522995,14.7357083 23.9997172,9.80226411 C24.0164327,8.04793256 23.2915228,6.30679655 22.0112464,5.02479805 Z M22,12 C21.5716178,15.1670642 20.2817042,17.6447651 18.2681807,19.1669449 C15.9114429,20.9484856 13.323671,21 13.036388,21 C10.716514,21 9.26886463,20.6373757 8.60468151,20.2606764 C8.02185288,19.9297677 7.48383277,19.3495149 7.23373128,18.7821407 C6.99951934,18.2501827 6.9410458,17.8280506 7.05958183,17.5268343 C7.1698553,17.2470823 7.41741446,17.1318903 7.55501795,17.0882462 C7.63923256,17.0614157 7.77365813,17.0585538 7.86772426,17.0585538 C7.968464,17.0585538 8.08223316,17.0624889 8.20648943,17.0671395 C8.36061805,17.0725056 8.53063622,17.0785872 8.71304823,17.0785872 C9.69851802,17.0785872 11.0422497,16.3819461 12.2635204,14.8468877 C12.8848017,14.0659432 13.4390292,12.9483663 13.6672031,12 L22,12 Z M3.0762,0 C2.8998,0.4914 2.7864,1.0152 2.7864,1.5678 C2.7864,4.1346 4.8672,6.2136 7.4322,6.2136 C7.9848,6.2136 8.5086,6.1002 9,5.922 C8.3556,7.713 6.6582,9 4.6458,9 C2.079,9 0,6.921 0,4.3542 C0,2.3418 1.287,0.6444 3.0762,0 Z" id="atom/icon/context/digest" fill="#001E62" fill-rule="nonzero"></path>
    </g>
</svg>