<?xml version="1.0" encoding="UTF-8"?>
<svg width="24px" height="24px" viewBox="0 0 24 24" version="1.1" xmlns="http://www.w3.org/2000/svg" xmlns:xlink="http://www.w3.org/1999/xlink">
    <!-- Generator: Sketch 63.1 (92452) - https://sketch.com -->
    <title>atom/icon/form/diges-small</title>
    <desc>Created with Sketch.</desc>
    <g id="atom/icon/form/diges-small" stroke="none" stroke-width="1" fill="none" fill-rule="evenodd">
        <path d="M22.0112464,5.02479805 C20.8380862,3.85005569 19.3439188,3.20313535 17.8040395,3.20313535 C16.5343383,3.20313535 15.1742366,3.65516755 14.3302708,4.34404297 C13.8946425,3.36520378 13.5173482,1.90827964 13.9451304,0.210113769 C13.9580935,0.159699999 13.9464949,0.105902753 13.9140872,0.0649627113 C13.8816795,0.0236843218 13.832215,0 13.7796804,0 L10.2980656,0 C10.2144878,0 10.1431907,0.0598874995 10.1298865,0.141767583 C9.55405213,3.61456586 10.8588901,6.15521689 11.3501232,7.11172515 C11.4251727,7.25789125 11.4845301,7.37292938 11.5060215,7.43247854 C11.9078775,8.53921306 11.8382861,10.7665544 11.1433959,12.0911846 C9.74849857,14.7495806 8.24136807,15.1082289 6.95085773,15.1082289 C6.42346439,15.1082289 5.88208456,15.039206 5.35878484,14.9728899 C4.83753192,14.9065738 4.29888116,14.8382276 3.7752403,14.8382276 C2.55739152,14.8382276 1.66396129,15.21447 0.878670564,16.0579702 C-0.806190808,17.8684674 0.254395142,21.7445759 1.37843204,23.9083078 C1.40742844,23.9648119 1.4661035,24 1.52989558,24 L4.77544551,24 C4.77783345,24 4.78022138,23.9996617 4.78226819,24 C4.8764212,24 4.95283524,23.9242102 4.95283524,23.8308263 C4.95283524,23.7858261 4.93509627,23.744886 4.90609987,23.7144347 C4.49673894,22.9490928 3.18951303,20.1211848 3.6002385,18.927495 C3.675288,18.7095992 3.80150762,18.5637714 3.97139241,18.4842598 C4.04337171,18.4994854 4.22826639,18.7332835 4.3913285,18.9393371 C5.25678574,20.0332144 7.05797384,22.3092778 12.2875598,22.4304062 C12.3421412,22.4314212 12.4018397,22.4324362 12.4656318,22.4324362 C12.4656318,22.4324362 12.4659729,22.4324362 12.4659729,22.4324362 C13.3290422,22.4324362 16.3562663,22.289992 19.0996668,20.4591939 C22.3035984,18.3211763 23.9522995,14.7357083 23.9997172,9.80226411 C24.0164327,8.04793256 23.2915228,6.30679655 22.0112464,5.02479805 Z M18.0293668,5 C19.3019762,5 20.5295172,5.5963698 21.114604,6.5459047 C21.5534237,7.25806327 21.8704504,8.34210928 21.8877861,8.49524304 C22.0374046,9.81688318 22.0374046,10.9662368 21.8877861,11.9433038 C21.4626086,15.2217962 20.2310565,17.859847 18.1838843,19.3624066 C16.269505,20.7675002 13.4062927,21 13.1211588,21 C10.8186396,21 9.35944746,20.6841088 8.70023304,20.294156 C8.12176451,19.9516048 7.48021326,19.5514 7.23198276,18.9640637 C6.99952294,18.4133895 6.94148683,17.9764053 7.05913611,17.6645912 C7.16858462,17.3749966 7.41429181,17.2557518 7.5508659,17.210572 C7.6344505,17.1827976 7.76787046,17.179835 7.86123288,17.179835 C7.96121899,17.179835 8.07413706,17.1839086 8.19746377,17.1887228 C8.35043937,17.1942777 8.51918564,17.2005732 8.70023304,17.2005732 C9.6783306,17.2005732 11.0120099,16.4794219 12.2241444,14.8903548 C12.840778,14.0819341 13.3908593,12.9250369 13.6173262,11.9433038 C14.0257089,9.37022093 14.4716741,7.62013312 14.9552221,6.69304042 C15.6938478,5.27689429 16.9254953,5 18.0293668,5 Z M16.6306183,9.57045246 C16.5745788,9.56829218 16.5271445,9.58758458 16.5206376,9.64013613 L15.2019717,14.6112001 C15.1803527,14.6948505 15.2147733,14.7806612 15.3031351,14.794628 L16.7708649,14.9462522 C16.8592266,14.960219 16.9087592,15.0149308 16.8871403,15.0985813 L16.0698185,18.425306 C16.0265806,18.5926069 16.2291196,18.6848985 16.3370021,18.5412106 L18.632541,14.1890751 C18.6864823,14.1172311 18.6434566,14.0099678 18.5636999,14.0174537 L17.2552632,13.9226059 C17.1992238,13.9204457 17.1734083,13.8560876 17.2122375,13.8153425 L19.1288437,10.1720701 C19.1590677,10.1098724 19.1332523,10.0455143 19.0686077,10.0219014 L16.6306183,9.57045246 Z" id="atom/icon/context/digest" fill="#001E62" fill-rule="nonzero"></path>
    </g>
</svg>