<?xml version="1.0" encoding="UTF-8"?>
<svg width="32px" height="32px" viewBox="0 0 32 32" version="1.1" xmlns="http://www.w3.org/2000/svg" xmlns:xlink="http://www.w3.org/1999/xlink">
    <!-- Generator: Sketch 63.1 (92452) - https://sketch.com -->
    <title>atom/icon/form/digest</title>
    <desc>Created with Sketch.</desc>
    <g id="atom/icon/form/digest" stroke="none" stroke-width="1" fill="none" fill-rule="evenodd">
        <path d="M29.3483286,6.69973073 C27.784115,5.13340758 25.7918918,4.27084714 23.7387193,4.27084714 C22.0457844,4.27084714 20.2323155,4.87355674 19.1070277,5.79205729 C18.5261901,4.48693838 18.023131,2.54437286 18.5935072,0.280151692 C18.6107913,0.212933331 18.5953266,0.141203671 18.5521163,0.0866169484 C18.5089059,0.0315790958 18.4429533,0 18.3729071,0 L13.7307542,0 C13.619317,0 13.5242543,0.0798499993 13.5065153,0.189023445 C12.7387362,4.81942114 14.4785201,8.20695586 15.1334976,9.4823002 C15.2335636,9.67718833 15.3127067,9.83057251 15.341362,9.90997138 C15.87717,11.3856174 15.7843815,14.3554058 14.8578613,16.1215795 C12.9979981,19.6661075 10.9884908,20.1443052 9.26781031,20.1443052 C8.56461919,20.1443052 7.84277942,20.0522747 7.14504645,19.9638532 C6.45004255,19.8754317 5.73184154,19.7843035 5.03365373,19.7843035 C3.40985536,19.7843035 2.21861505,20.28596 1.17156075,21.4106269 C-1.07492108,23.8246232 0.339193522,28.9927678 1.83790938,31.8777438 C1.87657125,31.9530825 1.95480467,32 2.03986077,32 L6.36726068,32 C6.37044459,32 6.37362851,31.9995489 6.37635759,32 C6.50189494,32 6.60378033,31.8989469 6.60378033,31.774435 C6.60378033,31.7144347 6.58012836,31.659848 6.5414665,31.6192463 C5.99565192,30.5987904 4.25268404,26.8282464 4.800318,25.2366599 C4.900384,24.9461323 5.06867683,24.7516953 5.29518988,24.6456797 C5.39116228,24.6659806 5.63768853,24.9777114 5.85510467,25.2524495 C7.00904765,26.7109526 9.41063179,29.7457037 16.383413,29.9072082 C16.4561883,29.9085616 16.5357862,29.909915 16.6208423,29.909915 C16.6208423,29.909915 16.6212972,29.909915 16.6212972,29.909915 C17.7720563,29.909915 21.8083551,29.7199893 25.4662224,27.2789252 C29.7381312,24.4282351 31.9363994,19.6476111 31.9996229,13.0696855 C32.0219103,10.7305767 31.0553637,8.40906207 29.3483286,6.69973073 Z M23.8166648,7.05691031 C25.5262667,7.05691031 27.1753245,7.82504443 27.9613203,9.04806103 C28.5508232,9.965333 28.9767114,11.3616021 29,11.5588409 C29.200995,13.2611352 29.200995,14.7415215 29,16 C28.4288237,20.2227522 26.7743775,23.6206051 24.0242409,25.5559265 C21.4524963,27.3657103 17.6061053,27.6651738 17.2230612,27.6651738 C14.1298958,27.6651738 12.1696418,27.2583008 11.2840643,26.7560351 C10.5069595,26.3148236 9.64511036,25.7993532 9.31164171,25.0428543 C8.99935912,24.333577 8.9213944,23.7707341 9.07944244,23.3691124 C9.22647373,22.9961097 9.55655261,22.8425204 9.74002393,22.7843282 C9.85231007,22.7485543 10.0315442,22.7447384 10.1569657,22.7447384 C10.2912853,22.7447384 10.4429775,22.7499853 10.6086526,22.7561861 C10.8141574,22.7633408 11.0408483,22.7714496 11.2840643,22.7714496 C12.598024,22.7714496 14.3896663,21.8425948 16.0180272,19.7958502 C16.8464023,18.754591 17.5853722,17.2644884 17.8896041,16 C18.4382184,12.6858268 19.0373206,10.4316849 19.6869107,9.23757426 C20.6791681,7.41355471 22.3337424,7.05691031 23.8166648,7.05691031 Z M22.1741577,12.7606033 C22.0994384,12.7577229 22.0361927,12.7834461 22.0275168,12.8535148 L20.2692955,19.4816001 C20.2404703,19.593134 20.2863644,19.7075483 20.4041801,19.7261706 L22.3611531,19.9283363 C22.4789688,19.9469587 22.5450123,20.0199078 22.5161871,20.1314417 L21.4264246,24.5670747 C21.3687742,24.7901425 21.6388262,24.9131979 21.7826694,24.7216141 L24.8433881,18.9187668 C24.9153097,18.8229749 24.8579421,18.679957 24.7515999,18.6899382 L23.0070177,18.5634746 C22.9322984,18.5605942 22.8978778,18.4747835 22.94965,18.4204567 L25.5051249,13.5627602 C25.5454237,13.4798298 25.5110031,13.3940191 25.4248103,13.3625352 L22.1741577,12.7606033 Z" id="atom/icon/context/digest" fill="#001E62" fill-rule="nonzero"></path>
    </g>
</svg>