<?xml version="1.0" encoding="UTF-8"?>
<svg width="24px" height="24px" viewBox="0 0 24 24" version="1.1" xmlns="http://www.w3.org/2000/svg" xmlns:xlink="http://www.w3.org/1999/xlink">
    <!-- Generator: Sketch 64 (93537) - https://sketch.com -->
    <title>atom/icon/form/empt-small</title>
    <desc>Created with Sketch.</desc>
    <g id="atom/icon/form/empt-small" stroke="none" stroke-width="1" fill="none" fill-rule="evenodd">
        <g id="atom/icon/done" transform="translate(4.000000, 4.000000)" fill="#001E62" fill-rule="nonzero">
            <path d="M8,0 C3.581722,0 0,3.581722 0,8 C0,12.418278 3.581722,16 8,16 C12.418278,16 16,12.418278 16,8 C16,3.581722 12.418278,0 8,0 Z M12.4429369,6.04236937 L7.48040307,11.0995775 C7.19767137,11.3880452 6.74907072,11.4124954 6.4381908,11.1563816 L4.36980028,9.47448737 C4.12712438,9.31901509 3.98590473,9.04039625 4.00111571,8.74709235 C4.01632669,8.45378845 4.18556467,8.19214722 4.44294822,8.06402108 C4.70033177,7.93589493 5.00518928,7.9615303 5.23884498,8.13094777 C5.27557265,8.15562918 5.31041406,8.18315054 5.34306621,8.2132725 L6.87030804,9.44402722 L11.3301749,4.89476263 C11.6392681,4.58719267 12.1315009,4.5911676 12.4358453,4.90369127 C12.7401898,5.21621493 12.7440607,5.72167631 12.4445403,6.03907638 L12.4429369,6.04236937 Z" id="Shape"></path>
        </g>
    </g>
</svg>