<?xml version="1.0" encoding="UTF-8"?>
<svg width="32px" height="32px" viewBox="0 0 32 32" version="1.1" xmlns="http://www.w3.org/2000/svg" xmlns:xlink="http://www.w3.org/1999/xlink">
    <!-- Generator: Sketch 64 (93537) - https://sketch.com -->
    <title>atom/icon/form/fullcheckup</title>
    <desc>Created with Sketch.</desc>
    <g id="atom/icon/form/fullcheckup" stroke="none" stroke-width="1" fill="none" fill-rule="evenodd">
        <path d="M16,0 C20.2434638,0 24.3131264,1.68570945 27.3137085,4.6862915 C30.3142906,7.68687356 32,11.7565362 32,16 C32,24.836556 24.836556,32 16,32 C7.163444,32 0,24.836556 0,16 C0,7.163444 7.163444,0 16,0 Z M16,3.2 C8.9307552,3.2 3.2,8.9307552 3.2,16 C3.2,23.0692448 8.9307552,28.8 16,28.8 C19.3947711,28.8 22.6505012,27.4514324 25.0509668,25.0509668 C27.4514324,22.6505012 28.8,19.3947711 28.8,16 C28.8,8.9307552 23.0692448,3.2 16,3.2 Z M16.4128551,6 C17.289411,6 18,6.7140009 18,7.59476564 L18,7.59476564 L18,15.5685938 C17.994037,15.989244 17.8228973,16.3904875 17.5238565,16.6849298 L17.5238565,16.6849298 L12.7624217,21.4692267 C12.7091102,21.5319209 12.6507146,21.5900634 12.5878358,21.6430562 C11.9197782,22.1883052 10.9409536,22.0991758 10.3813297,21.442137 C9.8217058,20.7850983 9.88523835,19.799609 10.5245473,19.2206072 L10.5245473,19.2206072 L14.8257101,14.9147399 L14.8257101,7.59476564 C14.8257101,6.7140009 15.5362991,6 16.4128551,6 Z" id="Combined-Shape" fill="#001E62" fill-rule="nonzero"></path>
    </g>
</svg>