<?xml version="1.0" encoding="UTF-8"?>
<svg width="32px" height="32px" viewBox="0 0 32 32" version="1.1" xmlns="http://www.w3.org/2000/svg" xmlns:xlink="http://www.w3.org/1999/xlink">
    <!-- Generator: Sketch 63.1 (92452) - https://sketch.com -->
    <title>atom/icon/form/halfcheckup</title>
    <desc>Created with Sketch.</desc>
    <g id="atom/icon/form/halfcheckup" stroke="none" stroke-width="1" fill="none" fill-rule="evenodd">
        <path d="M16,0 L16.0007483,6.05428688 C16.1321675,6.01887997 16.270317,6 16.4128551,6 C17.289411,6 18,6.7140009 18,7.59476564 L18,7.59476564 L18,15.5685938 C17.994037,15.989244 17.8228973,16.3904875 17.5238565,16.6849298 L17.5238565,16.6849298 L16,18.215 L16,32 C7.2686411,32 0.17079531,25.006099 0.00303641878,16.3148707 L0,16 C0,7.163444 7.163444,0 16,0 L16,0 Z M16,3.2 C8.9307552,3.2 3.2,8.9307552 3.2,16 C3.2,23.0692448 8.9307552,28.8 16,28.8 L16,28.8 L15.999,18.216 L12.7624217,21.4692267 C12.7357659,21.5005738 12.7078392,21.530783 12.6787165,21.5597795 L12.5878358,21.6430562 C11.9197782,22.1883052 10.9409536,22.0991758 10.3813297,21.442137 C9.8217058,20.7850983 9.88523835,19.799609 10.5245473,19.2206072 L10.5245473,19.2206072 L14.8257101,14.9147399 L14.8257101,7.59476564 C14.8257101,6.85758055 15.3235065,6.23722029 15.9997653,6.05455208 Z" id="Combined-Shape" fill="#001E62" fill-rule="nonzero"></path>
    </g>
</svg>