<?xml version="1.0" encoding="UTF-8"?>
<svg width="24px" height="24px" viewBox="0 0 24 24" version="1.1" xmlns="http://www.w3.org/2000/svg" xmlns:xlink="http://www.w3.org/1999/xlink">
    <!-- Generator: Sketch 63.1 (92452) - https://sketch.com -->
    <title>atom/icon/form/hot-small</title>
    <desc>Created with Sketch.</desc>
    <g id="atom/icon/form/hot-small" stroke="none" stroke-width="1" fill="none" fill-rule="evenodd">
        <path d="M5.58074042,5.4633631e-11 C6.8455626,5.4633631e-11 7.87090357,0.989156921 7.87090357,2.20934382 L7.87090357,2.20934382 L7.87090357,15.7546166 C9.66624499,16.7545782 10.5415489,18.7931755 10.0049959,20.7249529 C9.46844287,22.6567303 7.65382212,24 5.58074042,24 C3.50765872,24 1.69303796,22.6567303 1.15648494,20.7249529 C0.619931911,18.7931755 1.49523584,16.7545782 3.29057726,15.7546166 L3.29057726,15.7546166 L3.29057726,2.20934382 C3.29057726,0.989156921 4.31591823,5.4633631e-11 5.58074042,5.4633631e-11 Z M17.4748419,9.97079684 C17.8330041,9.97079684 18.1400002,10.2669591 18.1400002,10.6124818 L18.1400002,10.6124818 L18.1400002,11.9698922 C18.1400002,12.3154149 17.8330041,12.6115772 17.4748419,12.6115772 C17.1166798,12.6115772 16.8096837,12.3154149 16.8096837,11.9698922 L16.8096837,11.9698922 L16.8096837,10.6124818 C16.8096837,10.2669591 17.1166798,9.97079684 17.4748419,9.97079684 Z M5.59402222,1.08911315 C4.9652788,1.08911315 4.45558155,1.5808233 4.45558155,2.18737851 L4.45558155,2.18737851 L4.45558155,11.5738865 L6.7324629,11.5738865 L6.7324629,2.18737851 C6.7324629,1.5808233 6.22276565,1.08911315 5.59402222,1.08911315 Z M13.8420547,8.90954866 C14.0978848,8.63806657 14.5327959,8.63806657 14.763043,8.90954866 C15.0188731,9.15635056 15.0188731,9.5759138 14.763043,9.8227157 L14.763043,9.8227157 L13.7653057,10.7852431 C13.6373906,10.9086441 13.4583096,10.9826846 13.3048115,10.9826846 C13.1513134,10.9826846 12.9722324,10.9086441 12.8443173,10.7852431 C12.5884873,10.5384412 12.5884873,10.118878 12.8443173,9.87207608 L12.8443173,9.87207608 Z M20.1354748,8.90954866 C20.3913049,8.66274676 20.8262161,8.66274676 21.0820462,8.90954866 L21.0820462,8.90954866 L22.0542005,9.87207608 C22.3100306,10.118878 22.3100306,10.5384412 22.0542005,10.7852431 C21.9262855,10.9086441 21.7727874,10.9826846 21.5937063,10.9826846 C21.4402083,10.9826846 21.2611272,10.9086441 21.1332122,10.7852431 L21.1332122,10.7852431 L20.1354748,9.8227157 C19.8796448,9.5759138 19.8796448,9.15635056 20.1354748,8.90954866 Z M17.4748419,3.60330777 C19.0290435,3.60330777 20.2889729,4.8187745 20.2889729,6.31812869 C20.2889729,7.81748288 19.0290435,9.03294961 17.4748419,9.03294961 C15.9206403,9.03294961 14.660711,7.81748288 14.660711,6.31812869 C14.660711,4.8187745 15.9206403,3.60330777 17.4748419,3.60330777 Z M13.0233984,5.67644375 C13.3815605,5.67644375 13.6885566,5.97260603 13.6885566,6.31812869 C13.6885566,6.66365135 13.3815605,6.95981364 13.0233984,6.95981364 L13.0233984,6.95981364 L11.6163329,6.95981364 C11.2581708,6.95981364 10.9511747,6.66365135 10.9511747,6.31812869 C10.9511747,5.97260603 11.2581708,5.67644375 11.6163329,5.67644375 L11.6163329,5.67644375 Z M23.3333509,5.67644375 C23.7170961,5.67644375 24.0240922,5.94792584 23.9985092,6.31812869 C23.9985092,6.66365135 23.6915131,6.95981364 23.3333509,6.95981364 L23.3333509,6.95981364 L21.9262855,6.95981364 C21.5681233,6.95981364 21.2611272,6.66365135 21.2611272,6.31812869 C21.2611272,5.97260603 21.5681233,5.67644375 21.9262855,5.67644375 L21.9262855,5.67644375 Z M12.8443173,1.85101427 C13.1001474,1.60421236 13.5350586,1.60421236 13.7908887,1.85101427 L13.7908887,1.85101427 L14.763043,2.81354168 C15.0188731,3.06034358 15.0188731,3.47990682 14.763043,3.72670872 C14.635128,3.85010967 14.4560469,3.92415024 14.3025488,3.92415024 C14.1490508,3.92415024 13.9699697,3.85010967 13.8420547,3.72670872 L13.8420547,3.72670872 L12.8443173,2.7641813 C12.5884873,2.5173794 12.5884873,2.09781617 12.8443173,1.85101427 Z M21.1332122,1.85101427 C21.3890423,1.60421236 21.8239534,1.60421236 22.0797835,1.85101427 C22.3356136,2.09781617 22.3356136,2.5173794 22.0797835,2.7641813 L22.0797835,2.7641813 L21.0820462,3.72670872 C20.9541311,3.85010967 20.8006331,3.92415024 20.621552,3.92415024 C20.4424709,3.92415024 20.2889729,3.85010967 20.1354748,3.72670872 C19.8796448,3.47990682 19.8796448,3.06034358 20.1354748,2.81354168 L20.1354748,2.81354168 Z M17.4748419,6.06832362e-11 C17.8330041,6.06832362e-11 18.1400002,0.296162282 18.1400002,0.641684945 L18.1400002,0.641684945 L18.1400002,2.0237756 C18.1400002,2.36929826 17.8330041,2.66546054 17.4748419,2.66546054 C17.0910968,2.66546054 16.8096837,2.36929826 16.8096837,1.99909541 L16.8096837,1.99909541 L16.8096837,0.641684945 C16.8096837,0.296162282 17.1166798,6.06832362e-11 17.4748419,6.06832362e-11 Z" id="Combined-Shape" fill="#001E62" fill-rule="nonzero"></path>
    </g>
</svg>