<?xml version="1.0" encoding="UTF-8"?>
<svg width="32px" height="32px" viewBox="0 0 32 32" version="1.1" xmlns="http://www.w3.org/2000/svg" xmlns:xlink="http://www.w3.org/1999/xlink">
    <!-- Generator: Sketch 63.1 (92452) - https://sketch.com -->
    <title>atom/icon/form/hot</title>
    <desc>Created with Sketch.</desc>
    <g id="atom/icon/form/hot" stroke="none" stroke-width="1" fill="none" fill-rule="evenodd">
        <path d="M6.97487881,1.37063694e-11 C8.62464688,1.37063694e-11 9.96204814,1.31887589 9.96204814,2.94579176 L9.96204814,2.94579176 L9.96204814,21.0061555 C12.3037978,22.3394376 13.4454986,25.0575673 12.7456468,27.6332705 C12.0457951,30.2089737 9.67889841,32 6.97487881,32 C4.2708592,32 1.90396256,30.2089737 1.20411079,27.6332705 C0.504259017,25.0575673 1.6459598,22.3394376 3.98770947,21.0061555 L3.98770947,21.0061555 L3.98770947,2.94579176 C3.98770947,1.31887589 5.32511074,1.37063694e-11 6.97487881,1.37063694e-11 Z M22.4889243,13.2943958 C22.9560922,13.2943958 23.3565219,13.6892788 23.3565219,14.1499757 L23.3565219,14.1499757 L23.3565219,15.9598563 C23.3565219,16.4205532 22.9560922,16.8154363 22.4889243,16.8154363 C22.0217563,16.8154363 21.6213266,16.4205532 21.6213266,15.9598563 L21.6213266,15.9598563 L21.6213266,14.1499757 C21.6213266,13.6892788 22.0217563,13.2943958 22.4889243,13.2943958 Z M6.9922029,1.45215087 C6.17210279,1.45215087 5.50728028,2.1077644 5.50728028,2.91650468 L5.50728028,2.91650468 L5.50728028,15.4318486 L8.47712552,15.4318486 L8.47712552,2.91650468 C8.47712552,2.1077644 7.81230302,1.45215087 6.9922029,1.45215087 Z M17.7505061,11.8793982 C18.0841975,11.5174221 18.6514729,11.5174221 18.9517952,11.8793982 C19.2854866,12.2084674 19.2854866,12.7678851 18.9517952,13.0969543 L18.9517952,13.0969543 L17.6503987,14.3803242 C17.483553,14.5448588 17.249969,14.6435795 17.0497541,14.6435795 C16.8495393,14.6435795 16.6159553,14.5448588 16.4491096,14.3803242 C16.1154182,14.051255 16.1154182,13.4918373 16.4491096,13.1627681 L16.4491096,13.1627681 Z M25.959315,11.8793982 C26.2930064,11.550329 26.8602818,11.550329 27.1939733,11.8793982 L27.1939733,11.8793982 L28.4620007,13.1627681 C28.7956921,13.4918373 28.7956921,14.051255 28.4620007,14.3803242 C28.2951549,14.5448588 28.0949401,14.6435795 27.8613561,14.6435795 C27.6611412,14.6435795 27.4275573,14.5448588 27.2607115,14.3803242 L27.2607115,14.3803242 L25.959315,13.0969543 C25.6256236,12.7678851 25.6256236,12.2084674 25.959315,11.8793982 Z M22.4889243,4.80441036 C24.5161438,4.80441036 26.1595299,6.42503266 26.1595299,8.42417159 C26.1595299,10.4233105 24.5161438,12.0439328 22.4889243,12.0439328 C20.4617048,12.0439328 18.8183187,10.4233105 18.8183187,8.42417159 C18.8183187,6.42503266 20.4617048,4.80441036 22.4889243,4.80441036 Z M16.6826936,7.56859166 C17.1498616,7.56859166 17.5502913,7.9634747 17.5502913,8.42417159 C17.5502913,8.88486847 17.1498616,9.27975152 16.6826936,9.27975152 L16.6826936,9.27975152 L14.8473908,9.27975152 C14.3802228,9.27975152 13.9797931,8.88486847 13.9797931,8.42417159 C13.9797931,7.9634747 14.3802228,7.56859166 14.8473908,7.56859166 L14.8473908,7.56859166 Z M30.1304577,7.56859166 C30.6309949,7.56859166 31.0314246,7.93056778 30.9980554,8.42417159 C30.9980554,8.88486847 30.5976257,9.27975152 30.1304577,9.27975152 L30.1304577,9.27975152 L28.2951549,9.27975152 C27.827987,9.27975152 27.4275573,8.88486847 27.4275573,8.42417159 C27.4275573,7.9634747 27.827987,7.56859166 28.2951549,7.56859166 L28.2951549,7.56859166 Z M16.4491096,2.46801902 C16.782801,2.13894982 17.3500764,2.13894982 17.6837678,2.46801902 L17.6837678,2.46801902 L18.9517952,3.75138891 C19.2854866,4.08045811 19.2854866,4.63987576 18.9517952,4.96894496 C18.7849495,5.13347956 18.5513655,5.23220032 18.3511507,5.23220032 C18.1509358,5.23220032 17.9173518,5.13347956 17.7505061,4.96894496 L17.7505061,4.96894496 L16.4491096,3.68557507 C16.1154182,3.35650587 16.1154182,2.79708822 16.4491096,2.46801902 Z M27.2607115,2.46801902 C27.594403,2.13894982 28.1616784,2.13894982 28.4953698,2.46801902 C28.8290612,2.79708822 28.8290612,3.35650587 28.4953698,3.68557507 L28.4953698,3.68557507 L27.1939733,4.96894496 C27.0271276,5.13347956 26.8269127,5.23220032 26.5933287,5.23220032 C26.3597447,5.23220032 26.1595299,5.13347956 25.959315,4.96894496 C25.6256236,4.63987576 25.6256236,4.08045811 25.959315,3.75138891 L25.959315,3.75138891 Z M22.4889243,2.17750262e-11 C22.9560922,2.17750262e-11 23.3565219,0.394883043 23.3565219,0.855579927 L23.3565219,0.855579927 L23.3565219,2.69836746 C23.3565219,3.15906435 22.9560922,3.55394739 22.4889243,3.55394739 C21.9883871,3.55394739 21.6213266,3.15906435 21.6213266,2.66546054 L21.6213266,2.66546054 L21.6213266,0.855579927 C21.6213266,0.394883043 22.0217563,2.17750262e-11 22.4889243,2.17750262e-11 Z" id="Combined-Shape" fill="#001E62" fill-rule="nonzero"></path>
    </g>
</svg>