<?xml version="1.0" encoding="UTF-8"?>
<svg width="32px" height="32px" viewBox="0 0 32 32" version="1.1" xmlns="http://www.w3.org/2000/svg" xmlns:xlink="http://www.w3.org/1999/xlink">
    <!-- Generator: Sketch 63.1 (92452) - https://sketch.com -->
    <title>atom/icon/form/inguries</title>
    <desc>Created with Sketch.</desc>
    <g id="atom/icon/form/inguries" stroke="none" stroke-width="1" fill="none" fill-rule="evenodd">
        <path d="M32,17.3243241 L32,2.72972972 C32,2.32671112 31.6744004,2 31.2727529,2 L18.7189908,2 C18.3173433,2 17.9917436,2.32671112 17.9917436,2.72972972 L17.9917436,17.616216 L14.8267865,19.03627 L12.5825019,20.2490808 L8.4764646,22.4674591 L5.01913178,23.1621618 L3.03301989,23.1621618 C1.59281342,23.1411917 0.340128744,24.1481071 0.0462159658,25.5629726 C-0.106799687,26.4142395 0.124343775,27.2897608 0.677297477,27.9533724 C1.23025118,28.6169841 2.04805553,29.0003276 2.91011513,29 L26.9092701,29 C29.7194735,28.9967825 31.9967938,26.7116881 32,23.8918916 L32,17.3243241 Z M16.9576635,25 L14.1011328,21.6556802 L16,20.668211 L18.1279666,19.6994046 L19.9103942,21.6556802 L16.9576635,25 Z M29.9979168,14.1312352 C29.9884183,14.1501373 30.0057128,14.980016 29.9979168,15 L20,10 L29.9979168,10 L29.9979168,14.1312352 Z M21.5,20.8338519 L20,19 L23,19 L21.5,20.8338519 Z M20,17 L20,13 L30,17 L20,17 Z M30,4 L30,8 L20,8 L20,4 L30,4 Z M2.66106975,26.6349674 C2.42840916,26.4003279 2.33181432,26.0893531 2.39788008,25.7876616 C2.53703366,25.2835672 3.07620082,24.9335464 3.6849197,24.9521311 L6.01240421,24.9521311 C6.05287352,24.9524473 6.09326288,24.949014 6.13285714,24.9418917 L9.14418053,24.4299245 C9.20270329,24.4201188 9.25914922,24.4028588 9.31161011,24.3787278 L12.3229335,23 L15,26.1859721 L14.1688747,27 L4.20561017,27 C3.84992904,27 2.88995055,26.866403 2.66106975,26.6349674 Z M25.3684542,19 L29.2308566,19 L22.0638864,27 L18,27 L25.3684542,19 Z M26.3318938,27 L25,27 L30,21 L30,23.9811076 C29.9981303,25.6475683 28.7332157,26.9980038 27.1722894,27 L26.3318938,27 Z" id="atom/icon/context/inguries" fill="#001E62" fill-rule="nonzero"></path>
    </g>
</svg>