<?xml version="1.0" encoding="UTF-8"?>
<svg width="32px" height="32px" viewBox="0 0 32 32" version="1.1" xmlns="http://www.w3.org/2000/svg" xmlns:xlink="http://www.w3.org/1999/xlink">
    <!-- Generator: Sketch 63.1 (92452) - https://sketch.com -->
    <title>atom/icon/form/jetlag</title>
    <desc>Created with Sketch.</desc>
    <g id="atom/icon/form/jetlag" stroke="none" stroke-width="1" fill="none" fill-rule="evenodd">
        <path d="M18.599722,29.0237941 C19.2325372,28.8837374 19.8653524,29.373936 19.9804097,30.1792623 C20.095467,30.9495744 19.6927665,31.7198865 19.0599513,31.8599433 C18.8298366,31.8949574 18.5709577,31.9649858 18.3408431,32 L18.3408431,32 L18.1682571,32 C17.5929706,32 17.103977,31.4747872 17.0176841,30.7745035 C16.9026267,30.0041914 17.362856,29.2688935 17.9956712,29.1638509 C18.1970215,29.1288367 18.3983717,29.0588083 18.599722,29.0237941 Z M10.0580418,29.9655585 C10.2610093,29.2414352 10.9279024,28.8276505 11.5368048,29.0690249 L11.5368048,29.0690249 L12.1167118,29.2759173 C12.7546095,29.4828096 13.1315491,30.275897 12.957577,30.9655382 C12.8126002,31.5862153 12.3486746,32 11.8267583,32 C11.7107769,32 11.6237908,32 11.5078094,31.9655179 C11.2758466,31.8965538 11.0438838,31.8275897 10.811921,31.7241435 C10.2030186,31.4827691 9.85507435,30.6896817 10.0580418,29.9655585 Z M4.64923535,4.71852921 C10.7815601,-1.52140183 20.71326,-1.5553145 26.9455683,4.5150532 L26.9455683,4.5150532 L28.2120267,3.22637179 C28.6452887,2.78550709 29.3785015,2.9889831 29.5118129,3.59941114 L29.5118129,3.59941114 L30.9782384,9.94108019 C31.1115498,10.5175956 30.611632,11.0262856 30.0450585,10.8906349 L30.0450585,10.8906349 L23.8460781,9.36456482 C23.2461767,9.22891415 23.0462096,8.48283543 23.4794717,8.04197074 L23.4794717,8.04197074 L25.0125529,6.48198798 C19.8467358,1.46291301 11.6480843,1.53073835 6.58225076,6.71937666 C1.41643371,11.9419276 1.41643371,20.4540075 6.58225076,25.7104711 C6.88220143,26.0156852 7.18215209,26.2869865 7.51543061,26.5582879 C8.0820041,27.0330652 8.1486598,27.9147946 7.68206987,28.49131 C7.41544706,28.8304367 7.04884069,29 6.64890646,29 C6.3489558,29 6.04900513,28.898262 5.78238231,28.694786 C5.38244809,28.3556593 5.01584172,28.0165326 4.64923535,27.6434933 C-1.54974512,21.3357369 -1.54974512,11.0601983 4.64923535,4.71852921 Z M24.0279917,26.2544047 C24.5675123,25.8441434 25.3168464,25.9388191 25.7364735,26.4753147 C26.1561006,27.0118103 26.0661805,27.832333 25.52666,28.274153 C25.3468198,28.4319458 25.1370062,28.5897386 24.9271927,28.7475315 C24.6874058,28.9368829 24.4476189,29 24.2078319,29 C23.8481516,29 23.4584978,28.8106486 23.2187109,28.4635044 C22.8290572,27.8638916 22.978924,27.0749274 23.5184446,26.6646661 C23.6982847,26.5384318 23.8481516,26.380639 24.0279917,26.2544047 Z M16.0208118,7 C16.792797,7 17.3969594,7.59294118 17.3969594,8.35058824 L17.3969594,8.35058824 L17.3969594,13.5552941 C18.370332,14.0494118 19.0416236,15.0047059 19.0416236,16.1576471 C19.0416236,16.2564706 18.9744944,16.3223529 18.9744944,16.4211765 L18.9744944,16.4211765 L22.3645165,18.5294118 C23.0022434,18.9247059 23.2036309,19.7482353 22.7672914,20.3741176 C22.5323394,20.7694118 22.0624353,21 21.6260959,21 C21.3575793,21 21.1226272,20.9341176 20.8876752,20.8023529 L20.8876752,20.8023529 L17.4976531,18.6941176 C17.0613136,18.9576471 16.5914096,19.1552941 16.0208118,19.1552941 C14.342583,19.1552941 13,17.8047059 13,16.1905882 C13,15.0376471 13.6712915,14.0823529 14.6446642,13.5882353 L14.6446642,13.5882353 L14.6446642,8.35058824 C14.6446642,7.59294118 15.2488265,7 16.0208118,7 Z M16.0208118,15.1035294 C15.4166494,15.1035294 14.9467454,15.5976471 14.9467454,16.1576471 C14.9467454,16.7505882 15.450214,17.2117647 16.0208118,17.2117647 C16.5914096,17.2117647 17.0948782,16.7505882 17.0948782,16.1576471 C17.0948782,15.5647059 16.5914096,15.1035294 16.0208118,15.1035294 Z" id="atom/icon/context/jetlag" fill="#001E62" fill-rule="nonzero"></path>
    </g>
</svg>