<?xml version="1.0" encoding="UTF-8"?>
<svg width="24px" height="24px" viewBox="0 0 24 24" version="1.1" xmlns="http://www.w3.org/2000/svg" xmlns:xlink="http://www.w3.org/1999/xlink">
    <!-- Generator: Sketch 63.1 (92452) - https://sketch.com -->
    <title>atom/icon/form/night2-small</title>
    <desc>Created with Sketch.</desc>
    <g id="atom/icon/form/night2-small" stroke="none" stroke-width="1" fill="none" fill-rule="evenodd">
        <path d="M8.37230864,3.75968814 C8.42454232,3.98099927 8.36402706,4.21382366 8.21066255,4.38171144 L8.15097459,4.44703341 C5.65512052,7.17847378 5.15927045,11.3072353 7.00838706,14.6057063 C8.85750367,17.9041773 12.5772927,19.5263071 16.1220802,18.6659638 L16.1445657,18.6605064 C16.519026,18.5695686 16.8962745,18.7994602 16.9871615,19.1739328 C17.0338008,19.3660962 16.9964388,19.5673722 16.8874739,19.7288076 L16.8270819,19.8059786 L16.8270819,19.8059786 L16.7862322,19.8506842 C16.1414238,20.5563567 15.3962377,21.1649496 14.565983,21.6586215 C9.92196515,24.4199686 3.98368254,22.7812626 1.30245758,17.9984692 C-1.37876738,13.2156758 0.212390662,7.09994167 4.8564085,4.33859463 C5.68666319,3.84492271 6.57102032,3.48458422 7.48682253,3.26231296 L7.54484018,3.24823168 L7.54484018,3.24823168 C7.91457409,3.16096737 8.28504434,3.38995423 8.37230864,3.75968814 Z M20.1573559,1.00047258 L23.8867042,1.76683641 C23.9858494,1.80551515 24.0266666,1.9075733 23.9819443,2.0049721 L23.9819443,2.0049721 L21.1392518,7.70689865 C21.0809238,7.77027806 21.121741,7.87233621 21.2072804,7.87699556 L21.2072804,7.87699556 L23.2054864,8.05580846 C23.3269927,8.0457878 23.3950214,8.21588472 23.3143322,8.32796352 L23.3143322,8.32796352 L19.9093549,15.139166 C19.7479766,15.3633236 19.4369354,15.213268 19.4991685,14.9504317 L19.4991685,14.9504317 L20.671897,9.72306455 C20.7030135,9.59164637 20.6262295,9.50426823 20.4911175,9.48026951 L20.4911175,9.48026951 L18.2486357,9.20836871 C18.1135237,9.18436999 18.0591008,9.04829245 18.0902173,8.91687428 L18.0902173,8.91687428 L19.9911273,1.10789203 C19.9998827,1.02517325 20.0718165,0.995813223 20.1573559,1.00047258 L20.1573559,1.00047258 Z" id="atom/icon/context/night2" fill="#001E62" fill-rule="nonzero"></path>
    </g>
</svg>