<?xml version="1.0" encoding="UTF-8"?>
<svg width="24px" height="24px" viewBox="0 0 24 24" version="1.1" xmlns="http://www.w3.org/2000/svg" xmlns:xlink="http://www.w3.org/1999/xlink">
    <!-- Generator: Sketch 63.1 (92452) - https://sketch.com -->
    <title>atom/icon/form/night-small</title>
    <desc>Created with Sketch.</desc>
    <g id="atom/icon/form/night-small" stroke="none" stroke-width="1" fill="none" fill-rule="evenodd">
        <g id="Group" transform="translate(-0.000000, 2.000000)" fill-rule="nonzero">
            <path d="M12,9.5 C10.6398971,9.5 9.39104781,9.93384095 8.36915609,10.6603421 C7.29584269,11.4234008 6.47109033,12.5075451 6.02880415,13.7522402 C5.89139956,14.1389283 5.79240977,14.5368879 5.73175731,14.9398511 C5.38440276,14.8168858 5.00796717,14.75 4.61538462,14.75 C3.74536262,14.75 2.95464357,15.0784977 2.38354685,15.6198497 C1.84226458,16.1329402 1.5,16.8396996 1.5,17.625 C1.5,18.4103004 1.84226458,19.1170598 2.38354685,19.6301503 C2.95464357,20.1715023 3.74536262,20.5 4.61538462,20.5 L18.4615385,20.5 C19.5863775,20.5 20.6078395,20.073482 21.3459916,19.3737753 C22.0543269,18.7023324 22.5,17.7768526 22.5,16.75 C22.5,15.7220645 22.0525633,14.7958031 21.3328345,14.1263019 C20.5800573,13.4260587 19.5341739,13.0055148 18.3696984,13.0087442 C18.0683449,13.00958 17.775091,13.0387521 17.4929474,13.0937468 C17.3786214,12.8159459 17.2427043,12.5476392 17.0860771,12.2916795 C16.0653215,10.6235634 14.1772855,9.5 12,9.5 Z" id="atom/icon/context/night" stroke="#001E62" stroke-width="3"></path>
            <path d="M22.7806,5.5232 C20.7856,5.5232 19.1672,3.6752 19.1672,1.3936 C19.1672,0.9024 19.2554,0.4368 19.3926,0 C18.001,0.5728 17,2.0816 17,3.8704 C17,6.152 18.617,8 20.6134,8 C22.1786,8 23.4988,6.856 24,5.264 C23.6178,5.4224 23.2104,5.5232 22.7806,5.5232 Z" id="Path" fill="#001E62"></path>
        </g>
    </g>
</svg>