<?xml version="1.0" encoding="UTF-8"?>
<svg width="32px" height="32px" viewBox="0 0 32 32" version="1.1" xmlns="http://www.w3.org/2000/svg" xmlns:xlink="http://www.w3.org/1999/xlink">
    <!-- Generator: Sketch 63.1 (92452) - https://sketch.com -->
    <title>atom/icon/form/night2</title>
    <desc>Created with Sketch.</desc>
    <g id="atom/icon/form/night2" stroke="none" stroke-width="1" fill="none" fill-rule="evenodd">
        <path d="M11.1441868,6.00138294 C11.2117524,6.29499487 11.1287008,6.60297504 10.9226548,6.82278888 L10.8679661,6.88114343 C7.5401607,10.4320159 6.87902726,15.7994059 9.34451608,20.0874182 C11.8100049,24.3754305 16.7697236,26.4841992 21.4961069,25.3657529 L21.5622792,25.3500939 C22.0493862,25.2348448 22.5377036,25.5362767 22.652971,26.0233793 C22.7137977,26.2804237 22.6591487,26.5492045 22.507156,26.7607936 L22.4361093,26.8477722 L22.4361093,26.8477722 L22.381643,26.9058895 C21.5218984,27.8232637 20.5283169,28.6144345 19.4213107,29.256208 C13.2292869,32.8459592 5.31157672,30.7156413 1.7366101,24.4980099 C-1.83835651,18.2803786 0.28318755,10.3299242 6.47521133,6.74017302 C7.58221758,6.09839952 8.76136042,5.62995948 9.98243004,5.34100685 L10.0597869,5.32270118 L10.0597869,5.32270118 C10.5466485,5.21066522 11.0321508,5.51452139 11.1441868,6.00138294 Z M26.8764745,2.00514606 L31.848939,3.0149778 C31.9811325,3.06594448 32.0355554,3.20042572 31.9759257,3.32876736 L31.9759257,3.32876736 L28.1856691,10.8421522 C28.1078984,10.9256668 28.1623213,11.060148 28.2763739,11.0662876 L28.2763739,11.0662876 L30.9406486,11.301908 C31.102657,11.2887038 31.1933618,11.5128392 31.0857763,11.6605246 L31.0857763,11.6605246 L26.5458066,20.6355938 C26.3306355,20.9309646 25.9159139,20.7332375 25.9988913,20.3869 L25.9988913,20.3869 L27.5625293,13.4988385 C27.6040181,13.3256698 27.5016393,13.2105323 27.32149,13.1789094 L27.32149,13.1789094 L24.3315143,12.8206278 C24.1513649,12.7890048 24.0788011,12.6096965 24.1202898,12.4365278 L24.1202898,12.4365278 L26.6548364,2.14669185 C26.6665103,2.03769395 26.7624219,1.99900646 26.8764745,2.00514606 L26.8764745,2.00514606 Z" id="atom/icon/context/night2" fill="#001E62" fill-rule="nonzero"></path>
    </g>
</svg>