<?xml version="1.0" encoding="UTF-8"?>
<svg width="32px" height="32px" viewBox="0 0 32 32" version="1.1" xmlns="http://www.w3.org/2000/svg" xmlns:xlink="http://www.w3.org/1999/xlink">
    <!-- Generator: Sketch 63.1 (92452) - https://sketch.com -->
    <title>atom/icon/form/night</title>
    <desc>Created with Sketch.</desc>
    <g id="atom/icon/form/night" stroke="none" stroke-width="1" fill="none" fill-rule="evenodd">
        <g id="Group" transform="translate(-0.000000, 2.000000)" fill-rule="nonzero">
            <path d="M15,11.5 C13.224239,11.5 11.5943616,12.0839749 10.2604185,13.0594207 C8.84984275,14.0909043 7.7681071,15.557733 7.18701085,17.2397955 C7.05666852,17.6170892 6.95282758,18.001411 6.87549598,18.38961 C6.52256699,18.2985167 6.15167333,18.25 5.76923077,18.25 C4.58563822,18.25 3.51266035,18.7146903 2.73666944,19.4712815 C1.97459579,20.2143033 1.5,21.2399316 1.5,22.375 C1.5,23.5100684 1.97459579,24.5356967 2.73666944,25.2787185 C3.51266035,26.0353097 4.58563822,26.5 5.76923077,26.5 L23.0769231,26.5 C24.5790261,26.5 25.9404384,25.9092884 26.9252536,24.9490935 C27.8961505,24.0024691 28.5,22.6956194 28.5,21.25 C28.5,19.8018521 27.8933229,18.4929566 26.9061126,17.5484029 C25.9039224,16.5895168 24.5132031,16.0068167 22.9612019,16.0112439 C22.6615815,16.0120986 22.3680969,16.0348008 22.0823743,16.0778235 C21.9599028,15.8038122 21.821604,15.5366944 21.6678055,15.2781762 C20.3296032,13.0288071 17.8593062,11.5 15,11.5 Z" id="atom/icon/context/night" stroke="#001E62" stroke-width="3"></path>
            <path d="M29.258,6.904 C26.408,6.904 24.096,4.594 24.096,1.742 C24.096,1.128 24.222,0.546 24.418,0 C22.43,0.716 21,2.602 21,4.838 C21,7.69 23.31,10 26.162,10 C28.398,10 30.284,8.57 31,6.58 C30.454,6.778 29.872,6.904 29.258,6.904 Z" id="Path" fill="#001E62"></path>
        </g>
    </g>
</svg>