<?xml version="1.0" encoding="UTF-8"?>
<svg width="24px" height="24px" viewBox="0 0 24 24" version="1.1" xmlns="http://www.w3.org/2000/svg" xmlns:xlink="http://www.w3.org/1999/xlink">
    <!-- Generator: Sketch 63.1 (92452) - https://sketch.com -->
    <title>atom/icon/form/overload-small</title>
    <desc>Created with Sketch.</desc>
    <g id="atom/icon/form/overload-small" stroke="none" stroke-width="1" fill="none" fill-rule="evenodd">
        <path d="M30,13.1341463 C30,10.1916463 28.8780488,7.92839634 27.3606098,7.66164634 C27.3072522,7.64405602 27.2514115,7.63477668 27.195122,7.63414634 L23.6890244,7.63414634 C22.3202439,7.63414634 21.2263415,8.60457143 20.8841463,10.8843214 L16.1270732,10.8843214 C15.7904878,8.75582143 14.8396341,7.90914634 13.6447561,7.66989634 C13.5828989,7.64688346 13.5173772,7.63478032 13.4512195,7.63414634 L9.94512195,7.63414634 C8.265,7.63414634 7,9.99914634 7,13.1341463 C7,16.2691463 8.265,18.6341463 9.94512195,18.6341463 L13.4512195,18.6341463 C13.5173772,18.6335124 13.5828989,18.6214092 13.6447561,18.5983963 C14.8368293,18.3591463 15.7904878,17.5049942 16.1270732,15.3792442 L20.870122,15.3792442 C21.2263415,17.6589942 22.3202439,18.6341463 23.675,18.6341463 L27.195122,18.6341463 C27.2514115,18.633516 27.3072522,18.6242367 27.3606098,18.6066463 C28.8780488,18.3398963 30,16.0766463 30,13.1341463 Z M28,12.6341463 C28,14.9241463 27.4723077,16.6341463 27,16.6341463 C26.5276923,16.6341463 26,14.9241463 26,12.6341463 C26,10.3441463 26.5276923,8.63414634 27,8.63414634 C27.4723077,8.63414634 28,10.3441463 28,12.6341463 Z M9,12.6341463 C9,10.3441463 9.56882255,8.63414634 10.0779436,8.63414634 L11,8.63414634 C10.5870647,9.53164634 10.3266998,10.9591463 10.3266998,12.6341463 C10.3266998,14.3091463 10.5870647,15.7366463 11,16.6341463 L10.0779436,16.6341463 C9.56882255,16.6341463 9,14.9241463 9,12.6341463 Z M13.06,17.1341463 C12.3232,17.1341463 11.5,15.4241463 11.5,13.1341463 C11.5,10.8441463 12.3232,9.13414634 13.06,9.13414634 C13.5904,9.13414634 14.2288,9.25914634 14.5,10.8341463 L13.3,10.8341463 C12.76,10.8341463 12.3688,12.2641463 12.3688,13.1341463 C12.3688,14.0041463 12.76,15.4341463 13.3,15.4341463 L14.5,15.4341463 C14.2288,17.0091463 13.5904,17.1341463 13.06,17.1341463 Z M13.1016163,13.6341463 C12.9661279,13.3122231 12.9661279,12.9560696 13.1016163,12.6341463 L20,12.6341463 C20,12.7991463 20,12.9641463 20,13.1341463 C20,13.3041463 20,13.4691463 20,13.6341463 L13.1016163,13.6341463 Z M21.5,13.1341463 C21.5,10.8441463 22.3532338,9.13414634 23.1169154,9.13414634 L24.5,9.13414634 C23.880597,10.0316463 23.4900498,11.4591463 23.4900498,13.1341463 C23.4900498,14.8091463 23.880597,16.2366463 24.5,17.1341463 L23.1169154,17.1341463 C22.3532338,17.1341463 21.5,15.4241463 21.5,13.1341463 Z" id="Shape-Copy-2" fill="#001E62" fill-rule="nonzero" transform="translate(18.182927, 12.817073) rotate(-90.000000) translate(-18.182927, -12.817073) "></path>
        <path d="M18,13.1341463 C18,10.1916463 16.8780488,7.92839634 15.3606098,7.66164634 C15.3072522,7.64405602 15.2514115,7.63477668 15.195122,7.63414634 L11.6890244,7.63414634 C10.3202439,7.63414634 9.22634146,8.60457143 8.88414634,10.8843214 L4.12707317,10.8843214 C3.7904878,8.75582143 2.83963415,7.90914634 1.6447561,7.66989634 C1.58289888,7.64688346 1.51737718,7.63478032 1.45121951,7.63414634 L-2.05487805,7.63414634 C-3.735,7.63414634 -5,9.99914634 -5,13.1341463 C-5,16.2691463 -3.735,18.6341463 -2.05487805,18.6341463 L1.45121951,18.6341463 C1.51737718,18.6335124 1.58289888,18.6214092 1.6447561,18.5983963 C2.83682927,18.3591463 3.7904878,17.5049942 4.12707317,15.3792442 L8.87012195,15.3792442 C9.22634146,17.6589942 10.3202439,18.6341463 11.675,18.6341463 L15.195122,18.6341463 C15.2514115,18.633516 15.3072522,18.6242367 15.3606098,18.6066463 C16.8780488,18.3398963 18,16.0766463 18,13.1341463 Z M16,12.6341463 C16,14.9241463 15.4723077,16.6341463 15,16.6341463 C14.5276923,16.6341463 14,14.9241463 14,12.6341463 C14,10.3441463 14.5276923,8.63414634 15,8.63414634 C15.4723077,8.63414634 16,10.3441463 16,12.6341463 Z M-3,12.6341463 C-3,10.3441463 -2.43117745,8.63414634 -1.92205638,8.63414634 L-1,8.63414634 C-1.41293532,9.53164634 -1.67330017,10.9591463 -1.67330017,12.6341463 C-1.67330017,14.3091463 -1.41293532,15.7366463 -1,16.6341463 L-1.92205638,16.6341463 C-2.43117745,16.6341463 -3,14.9241463 -3,12.6341463 Z M1.06,17.1341463 C0.3232,17.1341463 -0.5,15.4241463 -0.5,13.1341463 C-0.5,10.8441463 0.3232,9.13414634 1.06,9.13414634 C1.5904,9.13414634 2.2288,9.25914634 2.5,10.8341463 L1.3,10.8341463 C0.76,10.8341463 0.3688,12.2641463 0.3688,13.1341463 C0.3688,14.0041463 0.76,15.4341463 1.3,15.4341463 L2.5,15.4341463 C2.2288,17.0091463 1.5904,17.1341463 1.06,17.1341463 Z M1.10161625,13.6341463 C0.966127916,13.3122231 0.966127916,12.9560696 1.10161625,12.6341463 L8,12.6341463 C8,12.7991463 8,12.9641463 8,13.1341463 C8,13.3041463 8,13.4691463 8,13.6341463 L1.10161625,13.6341463 Z M9.5,13.1341463 C9.5,10.8441463 10.3532338,9.13414634 11.1169154,9.13414634 L12.5,9.13414634 C11.880597,10.0316463 11.4900498,11.4591463 11.4900498,13.1341463 C11.4900498,14.8091463 11.880597,16.2366463 12.5,17.1341463 L11.1169154,17.1341463 C10.3532338,17.1341463 9.5,15.4241463 9.5,13.1341463 Z" id="Shape-Copy-2" fill="#001E62" fill-rule="nonzero" transform="translate(6.182927, 12.817073) rotate(-90.000000) translate(-6.182927, -12.817073) "></path>
    </g>
</svg>