<?xml version="1.0" encoding="UTF-8"?>
<svg width="32px" height="32px" viewBox="0 0 32 32" version="1.1" xmlns="http://www.w3.org/2000/svg" xmlns:xlink="http://www.w3.org/1999/xlink">
    <!-- Generator: Sketch 63.1 (92452) - https://sketch.com -->
    <title>atom/icon/form/overload</title>
    <desc>Created with Sketch.</desc>
    <g id="atom/icon/form/overload" stroke="none" stroke-width="1" fill="none" fill-rule="evenodd">
        <path d="M39,16.3170732 C39,12.402439 37.5365854,9.39146341 35.5573171,9.03658537 C35.4877202,9.01318361 35.4148845,9.00083858 35.3414634,9 L30.7682927,9 C28.9829268,9 27.5560976,10.2910312 27.1097561,13.323958 L20.904878,13.323958 C20.4658537,10.4922507 19.2256098,9.36585366 17.6670732,9.04756098 C17.5863898,9.01694517 17.5009268,9.00084343 17.4146341,9 L12.8414634,9 C10.65,9 9,12.1463415 9,16.3170732 C9,20.4878049 10.65,23.6341463 12.8414634,23.6341463 L17.4146341,23.6341463 C17.5009268,23.6333029 17.5863898,23.6172012 17.6670732,23.5865854 C19.2219512,23.2682927 20.4658537,22.1319483 20.904878,19.3038995 L27.0914634,19.3038995 C27.5560976,22.3368264 28.9829268,23.6341463 30.75,23.6341463 L35.3414634,23.6341463 C35.4148845,23.6333078 35.4877202,23.6209627 35.5573171,23.597561 C37.5365854,23.2426829 39,20.2317073 39,16.3170732 Z M36.5365854,16.3170732 C36.5365854,19.1795732 35.7450469,21.3170732 35.0365854,21.3170732 C34.3281238,21.3170732 33.5365854,19.1795732 33.5365854,16.3170732 C33.5365854,13.4545732 34.3281238,11.3170732 35.0365854,11.3170732 C35.7450469,11.3170732 36.5365854,13.4545732 36.5365854,16.3170732 Z M11.4634146,16.3170732 C11.4634146,13.4545732 12.3166485,11.3170732 13.0803301,11.3170732 L14.4634146,11.3170732 C13.8440116,12.4389482 13.4534644,14.2233232 13.4534644,16.3170732 C13.4534644,18.4108232 13.8440116,20.1951982 14.4634146,21.3170732 L13.0803301,21.3170732 C12.3166485,21.3170732 11.4634146,19.1795732 11.4634146,16.3170732 Z M16.9336585,21.3170732 C15.9512585,21.3170732 14.8536585,19.1795732 14.8536585,16.3170732 C14.8536585,13.4545732 15.9512585,11.3170732 16.9336585,11.3170732 C17.6408585,11.3170732 18.4920585,11.4733232 18.8536585,13.4420732 L17.2536585,13.4420732 C16.5336585,13.4420732 16.0120585,15.2295732 16.0120585,16.3170732 C16.0120585,17.4045732 16.5336585,19.1920732 17.2536585,19.1920732 L18.8536585,19.1920732 C18.4920585,21.1608232 17.6408585,21.3170732 16.9336585,21.3170732 Z M17.754878,17.0487805 C17.5743762,16.5776733 17.5743762,16.056473 17.754878,15.5853659 L26.945122,15.5853659 C26.945122,15.8268293 26.945122,16.0682927 26.945122,16.3170732 C26.945122,16.5658537 26.945122,16.8073171 26.945122,17.0487805 L17.754878,17.0487805 Z M28.802439,16.3170732 C28.802439,13.4545732 29.9400841,11.3170732 30.9583263,11.3170732 L32.802439,11.3170732 C31.9765684,12.4389482 31.4558387,14.2233232 31.4558387,16.3170732 C31.4558387,18.4108232 31.9765684,20.1951982 32.802439,21.3170732 L30.9583263,21.3170732 C29.9400841,21.3170732 28.802439,19.1795732 28.802439,16.3170732 Z" id="Shape-Copy-2" fill="#001E62" fill-rule="nonzero" transform="translate(24.000000, 16.317073) rotate(-90.000000) translate(-24.000000, -16.317073) "></path>
        <path d="M23,16.3170732 C23,12.402439 21.5365854,9.39146341 19.5573171,9.03658537 C19.4877202,9.01318361 19.4148845,9.00083858 19.3414634,9 L14.7682927,9 C12.9829268,9 11.5560976,10.2910312 11.1097561,13.323958 L4.90487805,13.323958 C4.46585366,10.4922507 3.22560976,9.36585366 1.66707317,9.04756098 C1.58638985,9.01694517 1.50092676,9.00084343 1.41463415,9 L-3.15853659,9 C-5.35,9 -7,12.1463415 -7,16.3170732 C-7,20.4878049 -5.35,23.6341463 -3.15853659,23.6341463 L1.41463415,23.6341463 C1.50092676,23.6333029 1.58638985,23.6172012 1.66707317,23.5865854 C3.22195122,23.2682927 4.46585366,22.1319483 4.90487805,19.3038995 L11.0914634,19.3038995 C11.5560976,22.3368264 12.9829268,23.6341463 14.75,23.6341463 L19.3414634,23.6341463 C19.4148845,23.6333078 19.4877202,23.6209627 19.5573171,23.597561 C21.5365854,23.2426829 23,20.2317073 23,16.3170732 Z M20.5365854,16.3170732 C20.5365854,19.1795732 19.7450469,21.3170732 19.0365854,21.3170732 C18.3281238,21.3170732 17.5365854,19.1795732 17.5365854,16.3170732 C17.5365854,13.4545732 18.3281238,11.3170732 19.0365854,11.3170732 C19.7450469,11.3170732 20.5365854,13.4545732 20.5365854,16.3170732 Z M-4.53658537,16.3170732 C-4.53658537,13.4545732 -3.68335154,11.3170732 -2.91966994,11.3170732 L-1.53658537,11.3170732 C-2.15598835,12.4389482 -2.54653561,14.2233232 -2.54653561,16.3170732 C-2.54653561,18.4108232 -2.15598835,20.1951982 -1.53658537,21.3170732 L-2.91966994,21.3170732 C-3.68335154,21.3170732 -4.53658537,19.1795732 -4.53658537,16.3170732 Z M0.933658537,21.3170732 C-0.0487414634,21.3170732 -1.14634146,19.1795732 -1.14634146,16.3170732 C-1.14634146,13.4545732 -0.0487414634,11.3170732 0.933658537,11.3170732 C1.64085854,11.3170732 2.49205854,11.4733232 2.85365854,13.4420732 L1.25365854,13.4420732 C0.533658537,13.4420732 0.0120585366,15.2295732 0.0120585366,16.3170732 C0.0120585366,17.4045732 0.533658537,19.1920732 1.25365854,19.1920732 L2.85365854,19.1920732 C2.49205854,21.1608232 1.64085854,21.3170732 0.933658537,21.3170732 Z M1.75487805,17.0487805 C1.57437623,16.5776733 1.57437623,16.056473 1.75487805,15.5853659 L10.945122,15.5853659 C10.945122,15.8268293 10.945122,16.0682927 10.945122,16.3170732 C10.945122,16.5658537 10.945122,16.8073171 10.945122,17.0487805 L1.75487805,17.0487805 Z M12.802439,16.3170732 C12.802439,13.4545732 13.9400841,11.3170732 14.9583263,11.3170732 L16.802439,11.3170732 C15.9765684,12.4389482 15.4558387,14.2233232 15.4558387,16.3170732 C15.4558387,18.4108232 15.9765684,20.1951982 16.802439,21.3170732 L14.9583263,21.3170732 C13.9400841,21.3170732 12.802439,19.1795732 12.802439,16.3170732 Z" id="Shape-Copy-2" fill="#001E62" fill-rule="nonzero" transform="translate(8.000000, 16.317073) rotate(-90.000000) translate(-8.000000, -16.317073) "></path>
    </g>
</svg>