<?xml version="1.0" encoding="UTF-8"?>
<svg width="32px" height="32px" viewBox="0 0 32 32" version="1.1" xmlns="http://www.w3.org/2000/svg" xmlns:xlink="http://www.w3.org/1999/xlink">
    <!-- Generator: Sketch 63.1 (92452) - https://sketch.com -->
    <title>atom/icon/form/sport</title>
    <desc>Created with Sketch.</desc>
    <g id="atom/icon/form/sport" stroke="none" stroke-width="1" fill="none" fill-rule="evenodd">
        <g id="Group" transform="translate(1.000000, 1.000000)" fill="#001E62" fill-rule="nonzero">
            <path d="M30,7.31707317 C30,3.40243902 28.5365854,0.391463415 26.5573171,0.0365853659 C26.4877202,0.0131836108 26.4148845,0.000838582437 26.3414634,-2.85993451e-13 L21.7682927,-2.85993451e-13 C19.9829268,-2.85993451e-13 18.5560976,1.29103116 18.1097561,4.32395799 L11.904878,4.32395799 C11.4658537,1.49225068 10.2256098,0.365853659 8.66707317,0.0475609756 C8.58638985,0.0169451716 8.50092676,0.000843430619 8.41463415,-2.85993451e-13 L3.84146341,-2.85993451e-13 C1.65,-2.85993451e-13 0,3.14634146 0,7.31707317 C0,11.4878049 1.65,14.6341463 3.84146341,14.6341463 L8.41463415,14.6341463 C8.50092676,14.6333029 8.58638985,14.6172012 8.66707317,14.5865854 C10.2219512,14.2682927 11.4658537,13.1319483 11.904878,10.3038995 L18.0914634,10.3038995 C18.5560976,13.3368264 19.9829268,14.6341463 21.75,14.6341463 L26.3414634,14.6341463 C26.4148845,14.6333078 26.4877202,14.6209627 26.5573171,14.597561 C28.5365854,14.2426829 30,11.2317073 30,7.31707317 Z M27.5365854,7.31707317 C27.5365854,10.1795732 26.7450469,12.3170732 26.0365854,12.3170732 C25.3281238,12.3170732 24.5365854,10.1795732 24.5365854,7.31707317 C24.5365854,4.45457317 25.3281238,2.31707317 26.0365854,2.31707317 C26.7450469,2.31707317 27.5365854,4.45457317 27.5365854,7.31707317 Z M2.46341463,7.31707317 C2.46341463,4.45457317 3.31664846,2.31707317 4.08033006,2.31707317 L5.46341463,2.31707317 C4.84401165,3.43894817 4.45346439,5.22332317 4.45346439,7.31707317 C4.45346439,9.41082317 4.84401165,11.1951982 5.46341463,12.3170732 L4.08033006,12.3170732 C3.31664846,12.3170732 2.46341463,10.1795732 2.46341463,7.31707317 Z M7.93365854,12.3170732 C6.95125854,12.3170732 5.85365854,10.1795732 5.85365854,7.31707317 C5.85365854,4.45457317 6.95125854,2.31707317 7.93365854,2.31707317 C8.64085854,2.31707317 9.49205854,2.47332317 9.85365854,4.44207317 L8.25365854,4.44207317 C7.53365854,4.44207317 7.01205854,6.22957317 7.01205854,7.31707317 C7.01205854,8.40457317 7.53365854,10.1920732 8.25365854,10.1920732 L9.85365854,10.1920732 C9.49205854,12.1608232 8.64085854,12.3170732 7.93365854,12.3170732 Z M8.75487805,8.04878049 C8.57437623,7.57767333 8.57437623,7.05647302 8.75487805,6.58536585 L17.945122,6.58536585 C17.945122,6.82682927 17.945122,7.06829268 17.945122,7.31707317 C17.945122,7.56585366 17.945122,7.80731707 17.945122,8.04878049 L8.75487805,8.04878049 Z M19.802439,7.31707317 C19.802439,4.45457317 20.9400841,2.31707317 21.9583263,2.31707317 L23.802439,2.31707317 C22.9765684,3.43894817 22.4558387,5.22332317 22.4558387,7.31707317 C22.4558387,9.41082317 22.9765684,11.1951982 23.802439,12.3170732 L21.9583263,12.3170732 C20.9400841,12.3170732 19.802439,10.1795732 19.802439,7.31707317 Z" id="Shape-Copy-2"></path>
            <path d="M30,23.3170732 C30,19.402439 28.5365854,16.3914634 26.5573171,16.0365854 C26.4877202,16.0131836 26.4148845,16.0008386 26.3414634,16 L21.7682927,16 C19.9829268,16 18.5560976,17.2910312 18.1097561,20.323958 L11.904878,20.323958 C11.4658537,17.4922507 10.2256098,16.3658537 8.66707317,16.047561 C8.58638985,16.0169452 8.50092676,16.0008434 8.41463415,16 L3.84146341,16 C1.65,16 0,19.1463415 0,23.3170732 C0,27.4878049 1.65,30.6341463 3.84146341,30.6341463 L8.41463415,30.6341463 C8.50092676,30.6333029 8.58638985,30.6172012 8.66707317,30.5865854 C10.2219512,30.2682927 11.4658537,29.1319483 11.904878,26.3038995 L18.0914634,26.3038995 C18.5560976,29.3368264 19.9829268,30.6341463 21.75,30.6341463 L26.3414634,30.6341463 C26.4148845,30.6333078 26.4877202,30.6209627 26.5573171,30.597561 C28.5365854,30.2426829 30,27.2317073 30,23.3170732 Z M27.5365854,23.3170732 C27.5365854,26.1795732 26.7450469,28.3170732 26.0365854,28.3170732 C25.3281238,28.3170732 24.5365854,26.1795732 24.5365854,23.3170732 C24.5365854,20.4545732 25.3281238,18.3170732 26.0365854,18.3170732 C26.7450469,18.3170732 27.5365854,20.4545732 27.5365854,23.3170732 Z M2.46341463,23.3170732 C2.46341463,20.4545732 3.31664846,18.3170732 4.08033006,18.3170732 L5.46341463,18.3170732 C4.84401165,19.4389482 4.45346439,21.2233232 4.45346439,23.3170732 C4.45346439,25.4108232 4.84401165,27.1951982 5.46341463,28.3170732 L4.08033006,28.3170732 C3.31664846,28.3170732 2.46341463,26.1795732 2.46341463,23.3170732 Z M7.93365854,28.3170732 C6.95125854,28.3170732 5.85365854,26.1795732 5.85365854,23.3170732 C5.85365854,20.4545732 6.95125854,18.3170732 7.93365854,18.3170732 C8.64085854,18.3170732 9.49205854,18.4733232 9.85365854,20.4420732 L8.25365854,20.4420732 C7.53365854,20.4420732 7.01205854,22.2295732 7.01205854,23.3170732 C7.01205854,24.4045732 7.53365854,26.1920732 8.25365854,26.1920732 L9.85365854,26.1920732 C9.49205854,28.1608232 8.64085854,28.3170732 7.93365854,28.3170732 Z M8.75487805,24.0487805 C8.57437623,23.5776733 8.57437623,23.056473 8.75487805,22.5853659 L17.945122,22.5853659 C17.945122,22.8268293 17.945122,23.0682927 17.945122,23.3170732 C17.945122,23.5658537 17.945122,23.8073171 17.945122,24.0487805 L8.75487805,24.0487805 Z M19.802439,23.3170732 C19.802439,20.4545732 20.9400841,18.3170732 21.9583263,18.3170732 L23.802439,18.3170732 C22.9765684,19.4389482 22.4558387,21.2233232 22.4558387,23.3170732 C22.4558387,25.4108232 22.9765684,27.1951982 23.802439,28.3170732 L21.9583263,28.3170732 C20.9400841,28.3170732 19.802439,26.1795732 19.802439,23.3170732 Z" id="Shape-Copy-3"></path>
        </g>
    </g>
</svg>