<?xml version="1.0" encoding="UTF-8"?>
<svg width="24px" height="24px" viewBox="0 0 24 24" version="1.1" xmlns="http://www.w3.org/2000/svg" xmlns:xlink="http://www.w3.org/1999/xlink">
    <!-- Generator: Sketch 63.1 (92452) - https://sketch.com -->
    <title>atom/icon/form/spor-small</title>
    <desc>Created with Sketch.</desc>
    <g id="atom/icon/form/spor-small" stroke="none" stroke-width="1" fill="none" fill-rule="evenodd">
        <path d="M24,12.5 C24,9.5575 22.8780488,7.29425 21.3606098,7.0275 C21.3072522,7.00990968 21.2514115,7.00063033 21.195122,7 L17.6890244,7 C16.3202439,7 15.2263415,7.97042509 14.8841463,10.2501751 L10.1270732,10.2501751 C9.7904878,8.12167509 8.83963415,7.275 7.6447561,7.03575 C7.58289888,7.01273712 7.51737718,7.00063398 7.45121951,7 L3.94512195,7 C2.265,7 1,9.365 1,12.5 C1,15.635 2.265,18 3.94512195,18 L7.45121951,18 C7.51737718,17.999366 7.58289888,17.9872629 7.6447561,17.96425 C8.83682927,17.725 9.7904878,16.8708478 10.1270732,14.7450978 L14.870122,14.7450978 C15.2263415,17.0248478 16.3202439,18 17.675,18 L21.195122,18 C21.2514115,17.9993697 21.3072522,17.9900903 21.3606098,17.9725 C22.8780488,17.70575 24,15.4425 24,12.5 Z M22,13 C22,15.29 21.4723077,17 21,17 C20.5276923,17 20,15.29 20,13 C20,10.71 20.5276923,9 21,9 C21.4723077,9 22,10.71 22,13 Z M3,13 C3,10.71 3.56882255,9 4.07794362,9 L5,9 C4.58706468,9.8975 4.32669983,11.325 4.32669983,13 C4.32669983,14.675 4.58706468,16.1025 5,17 L4.07794362,17 C3.56882255,17 3,15.29 3,13 Z M7.56,17 C6.8232,17 6,15.29 6,13 C6,10.71 6.8232,9 7.56,9 C8.0904,9 8.7288,9.125 9,10.7 L7.8,10.7 C7.26,10.7 6.8688,12.13 6.8688,13 C6.8688,13.87 7.26,15.3 7.8,15.3 L9,15.3 C8.7288,16.875 8.0904,17 7.56,17 Z M8.10161625,13 C7.96612792,12.6780768 7.96612792,12.3219232 8.10161625,12 L15,12 C15,12.165 15,12.33 15,12.5 C15,12.67 15,12.835 15,13 L8.10161625,13 Z M16,13 C16,10.71 16.8532338,9 17.6169154,9 L19,9 C18.380597,9.8975 17.9900498,11.325 17.9900498,13 C17.9900498,14.675 18.380597,16.1025 19,17 L17.6169154,17 C16.8532338,17 16,15.29 16,13 Z" id="Shape-Copy-2" fill="#001E62" fill-rule="nonzero"></path>
    </g>
</svg>