<?xml version="1.0" encoding="UTF-8"?>
<svg width="24px" height="24px" viewBox="0 0 24 24" version="1.1" xmlns="http://www.w3.org/2000/svg" xmlns:xlink="http://www.w3.org/1999/xlink">
    <!-- Generator: Sketch 63.1 (92452) - https://sketch.com -->
    <title>atom/icon/form/sport-small</title>
    <desc>Created with Sketch.</desc>
    <g id="atom/icon/form/sport-small" stroke="none" stroke-width="1" fill="none" fill-rule="evenodd">
        <path d="M23,6.5 C23,3.5575 21.8780488,1.29425 20.3606098,1.0275 C20.3072522,1.00990968 20.2514115,1.00063033 20.195122,1 L16.6890244,1 C15.3202439,1 14.2263415,1.97042509 13.8841463,4.25017509 L9.12707317,4.25017509 C8.7904878,2.12167509 7.83963415,1.275 6.6447561,1.03575 C6.58289888,1.01273712 6.51737718,1.00063398 6.45121951,1 L2.94512195,1 C1.265,1 0,3.365 0,6.5 C0,9.635 1.265,12 2.94512195,12 L6.45121951,12 C6.51737718,11.999366 6.58289888,11.9872629 6.6447561,11.96425 C7.83682927,11.725 8.7904878,10.8708478 9.12707317,8.74509782 L13.870122,8.74509782 C14.2263415,11.0248478 15.3202439,12 16.675,12 L20.195122,12 C20.2514115,11.9993697 20.3072522,11.9900903 20.3606098,11.9725 C21.8780488,11.70575 23,9.4425 23,6.5 Z M21,7 C21,9.29 20.4723077,11 20,11 C19.5276923,11 19,9.29 19,7 C19,4.71 19.5276923,3 20,3 C20.4723077,3 21,4.71 21,7 Z M2,7 C2,4.71 2.56882255,3 3.07794362,3 L4,3 C3.58706468,3.8975 3.32669983,5.325 3.32669983,7 C3.32669983,8.675 3.58706468,10.1025 4,11 L3.07794362,11 C2.56882255,11 2,9.29 2,7 Z M6.56,11 C5.8232,11 5,9.29 5,7 C5,4.71 5.8232,3 6.56,3 C7.0904,3 7.7288,3.125 8,4.7 L6.8,4.7 C6.26,4.7 5.8688,6.13 5.8688,7 C5.8688,7.87 6.26,9.3 6.8,9.3 L8,9.3 C7.7288,10.875 7.0904,11 6.56,11 Z M7.10161625,7 C6.96612792,6.67807677 6.96612792,6.32192323 7.10161625,6 L14,6 C14,6.165 14,6.33 14,6.5 C14,6.67 14,6.835 14,7 L7.10161625,7 Z M15,7 C15,4.71 15.8532338,3 16.6169154,3 L18,3 C17.380597,3.8975 16.9900498,5.325 16.9900498,7 C16.9900498,8.675 17.380597,10.1025 18,11 L16.6169154,11 C15.8532338,11 15,9.29 15,7 Z" id="Shape-Copy-3" fill="#001E62" fill-rule="nonzero"></path>
        <path d="M23,18.5 C23,15.5575 21.8780488,13.29425 20.3606098,13.0275 C20.3072522,13.0099097 20.2514115,13.0006303 20.195122,13 L16.6890244,13 C15.3202439,13 14.2263415,13.9704251 13.8841463,16.2501751 L9.12707317,16.2501751 C8.7904878,14.1216751 7.83963415,13.275 6.6447561,13.03575 C6.58289888,13.0127371 6.51737718,13.000634 6.45121951,13 L2.94512195,13 C1.265,13 0,15.365 0,18.5 C0,21.635 1.265,24 2.94512195,24 L6.45121951,24 C6.51737718,23.999366 6.58289888,23.9872629 6.6447561,23.96425 C7.83682927,23.725 8.7904878,22.8708478 9.12707317,20.7450978 L13.870122,20.7450978 C14.2263415,23.0248478 15.3202439,24 16.675,24 L20.195122,24 C20.2514115,23.9993697 20.3072522,23.9900903 20.3606098,23.9725 C21.8780488,23.70575 23,21.4425 23,18.5 Z M21,19 C21,21.29 20.4723077,23 20,23 C19.5276923,23 19,21.29 19,19 C19,16.71 19.5276923,15 20,15 C20.4723077,15 21,16.71 21,19 Z M2,19 C2,16.71 2.56882255,15 3.07794362,15 L4,15 C3.58706468,15.8975 3.32669983,17.325 3.32669983,19 C3.32669983,20.675 3.58706468,22.1025 4,23 L3.07794362,23 C2.56882255,23 2,21.29 2,19 Z M6.56,23 C5.8232,23 5,21.29 5,19 C5,16.71 5.8232,15 6.56,15 C7.0904,15 7.7288,15.125 8,16.7 L6.8,16.7 C6.26,16.7 5.8688,18.13 5.8688,19 C5.8688,19.87 6.26,21.3 6.8,21.3 L8,21.3 C7.7288,22.875 7.0904,23 6.56,23 Z M7.10161625,19 C6.96612792,18.6780768 6.96612792,18.3219232 7.10161625,18 L14,18 C14,18.165 14,18.33 14,18.5 C14,18.67 14,18.835 14,19 L7.10161625,19 Z M15,19 C15,16.71 15.8532338,15 16.6169154,15 L18,15 C17.380597,15.8975 16.9900498,17.325 16.9900498,19 C16.9900498,20.675 17.380597,22.1025 18,23 L16.6169154,23 C15.8532338,23 15,21.29 15,19 Z" id="Shape-Copy-4" fill="#001E62" fill-rule="nonzero"></path>
    </g>
</svg>