<?xml version="1.0" encoding="UTF-8"?>
<svg width="24px" height="24px" viewBox="0 0 24 24" version="1.1" xmlns="http://www.w3.org/2000/svg" xmlns:xlink="http://www.w3.org/1999/xlink">
    <!-- Generator: Sketch 63.1 (92452) - https://sketch.com -->
    <title>atom/icon/form/stres-small</title>
    <desc>Created with Sketch.</desc>
    <g id="atom/icon/form/stres-small" stroke="none" stroke-width="1" fill="none" fill-rule="evenodd">
        <path d="M5.15635103,2.92037391 L5.22251914,2.92094563 L11.2124525,4.35446872 C11.3723738,4.42343259 11.4414028,4.597007 11.3735202,4.75947569 L11.3735202,4.75947569 L7.0405702,14.2621903 C6.949678,14.3668008 7.01870702,14.5403752 7.15561856,14.551481 L7.15561856,14.551481 L10.3564714,14.9288484 C10.5503339,14.9165779 10.6653823,15.2058686 10.5405488,15.3917135 L10.5405488,15.3917135 L5.34985311,26.7427727 C5.10018618,27.1144625 4.59741286,26.8497128 4.68715858,26.4090592 L4.68715858,26.4090592 L6.36817097,17.6427386 C6.41304382,17.4224118 6.28706387,17.2722136 6.07019172,17.2266259 L6.07019172,17.2266259 L2.47540386,16.6830683 C2.25853171,16.6374806 2.16649302,16.4060481 2.21136588,16.1857212 L2.21136588,16.1857212 L4.96077414,3.09568479 C4.97170573,2.95659231 5.0856076,2.9098399 5.22251914,2.92094563 Z M17.8092064,11.4248299 C17.8477189,11.3575201 17.924744,11.3575201 18.001769,11.391175 L18.001769,11.391175 L21.1525538,13.3374609 C21.2295789,13.4047707 21.2295789,13.5057354 21.1525538,13.5730452 L21.1525538,13.5730452 L16.4366402,17.4355509 C16.3596151,17.4692058 16.3596151,17.5701705 16.4366402,17.6038254 L16.4366402,17.6038254 L18.2101894,18.4495121 C18.325727,18.483167 18.325727,18.6514415 18.2101894,18.7187513 L18.2101894,18.7187513 L12.5683026,23.3294717 C12.3372275,23.4640912 12.1061524,23.228507 12.2602025,23.0265776 L12.2602025,23.0265776 L15.2641789,18.9879904 C15.3412039,18.8870257 15.3026914,18.7860611 15.1871538,18.7187513 L15.1871538,18.7187513 L13.2230154,17.7091045 C13.1074779,17.6417947 13.1074779,17.5071751 13.1845029,17.4062104 L13.1845029,17.4062104 Z" id="atom/icon/context/stress" fill="#001E62" fill-rule="nonzero" transform="translate(11.705302, 14.919376) rotate(21.000000) translate(-11.705302, -14.919376) "></path>
    </g>
</svg>