<?xml version="1.0" encoding="UTF-8"?>
<svg width="32px" height="32px" viewBox="0 0 32 32" version="1.1" xmlns="http://www.w3.org/2000/svg" xmlns:xlink="http://www.w3.org/1999/xlink">
    <!-- Generator: Sketch 63.1 (92452) - https://sketch.com -->
    <title>atom/icon/form/stress</title>
    <desc>Created with Sketch.</desc>
    <g id="atom/icon/form/stress" stroke="none" stroke-width="1" fill="none" fill-rule="evenodd">
        <path d="M6.8752761,1.78789735 L6.94565085,1.78985971 L15.3584361,3.8206841 C15.5830434,3.91838291 15.6799938,4.16427999 15.5846537,4.39444396 L15.5846537,4.39444396 L9.49908044,17.8566229 C9.3714235,18.0048212 9.46837387,18.2507183 9.66066439,18.2664514 L9.66066439,18.2664514 L14.1562215,18.8010552 C14.4284989,18.7836721 14.5900829,19.1935005 14.4147558,19.4567808 L14.4147558,19.4567808 L7.12448978,35.5374481 C6.77383576,36.0640087 6.06769703,35.6889465 6.19374374,35.0646872 L6.19374374,35.0646872 L8.55470426,22.6457331 C8.61772762,22.3336035 8.44079038,22.1208227 8.1361962,22.0562402 L8.1361962,22.0562402 L3.08736237,21.2862001 C2.7827682,21.2216176 2.65350103,20.8937548 2.71652439,20.5816252 L2.71652439,20.5816252 L6.57803332,2.03740686 C6.5933866,1.84035918 6.75336033,1.7741266 6.94565085,1.78985971 Z M23.9748084,12.804149 C24.0261585,12.7031843 24.1288585,12.7031843 24.2315585,12.7536666 L24.2315585,12.7536666 L28.432605,15.6730955 C28.535305,15.7740602 28.535305,15.9255072 28.432605,16.0264719 L28.432605,16.0264719 L22.1447201,21.8202305 C22.0420201,21.8707128 22.0420201,22.0221599 22.1447201,22.0726422 L22.1447201,22.0726422 L24.5094525,23.3411724 C24.6635025,23.3916547 24.6635025,23.6440664 24.5094525,23.7450311 L24.5094525,23.7450311 L16.9869367,30.6611116 C16.6788366,30.863041 16.3707364,30.5096646 16.5761365,30.2067706 L16.5761365,30.2067706 L20.5814384,24.1488898 C20.6841384,23.9974428 20.6327884,23.8459958 20.4787383,23.7450311 L20.4787383,23.7450311 L17.8598871,22.2305609 C17.705837,22.1295962 17.705837,21.9276668 17.8085371,21.7762198 L17.8085371,21.7762198 Z" id="atom/icon/context/stress" fill="#001E62" fill-rule="nonzero" transform="translate(15.605293, 18.787636) rotate(21.000000) translate(-15.605293, -18.787636) "></path>
    </g>
</svg>