<?xml version="1.0" encoding="UTF-8"?>
<svg width="32px" height="32px" viewBox="0 0 32 32" version="1.1" xmlns="http://www.w3.org/2000/svg" xmlns:xlink="http://www.w3.org/1999/xlink">
    <!-- Generator: Sketch 63.1 (92452) - https://sketch.com -->
    <title>atom/icon/form/training</title>
    <desc>Created with Sketch.</desc>
    <g id="atom/icon/form/training" stroke="none" stroke-width="1" fill="none" fill-rule="evenodd">
        <g id="atom/icon/training" transform="translate(2.000000, 0.000000)" fill="#001E62" fill-rule="nonzero">
            <path d="M13.5,5 C6.04415588,5 0,11.0441559 0,18.5 C0,25.9558441 6.04415588,32 13.5,32 C20.9558441,32 27,25.9558441 27,18.5 C27,11.0441559 20.9558441,5 13.5,5 Z M13.5,7.7 C19.4646753,7.7 24.3,12.5353247 24.3,18.5 C24.3,24.4646753 19.4646753,29.3 13.5,29.3 C7.5353247,29.3 2.7,24.4646753 2.7,18.5 C2.7,12.5353247 7.5353247,7.7 13.5,7.7 Z" id="Oval"></path>
            <path d="M13.5,10 C14.3066264,10 14.9645454,10.7466344 14.9986141,11.2639362 L15,11.3061029 L15,14.0279218 C15,14.5647858 14.3284271,15 13.5,15 C12.6933736,15 12.0354546,14.5873904 12.0013859,14.0700886 L12,14.0279218 L12,11.3061029 C12,10.769239 12.6715729,10 13.5,10 Z" id="Path"></path>
            <path d="M24.6030304,5.99494937 L27.0050506,8.39696962 L23.4020203,12 L21,9.59797975 L24.6030304,5.99494937 Z M23.275058,5.37051243 C23.7541044,4.89146606 24.5217726,4.8769495 25.0183112,5.32696276 L25.0640502,5.37051243 L27.6294876,7.93594976 C28.1235041,8.42996633 28.1235041,9.23092544 27.6294876,9.724942 C27.1504412,10.2039884 26.382773,10.2185049 25.8862344,9.76849167 L25.8404953,9.724942 L23.275058,7.15950467 C22.7810414,6.6654881 22.7810414,5.86452899 23.275058,5.37051243 Z" id="Path"></path>
            <path d="M13.5,14 C11.0147186,14 9,16.0147186 9,18.5 C9,20.9852814 11.0147186,23 13.5,23 C15.9852814,23 18,20.9852814 18,18.5 C18,16.0147186 15.9852814,14 13.5,14 Z M13.5,16 C14.8807119,16 16,17.1192881 16,18.5 C16,19.8807119 14.8807119,21 13.5,21 C12.1192881,21 11,19.8807119 11,18.5 C11,17.1192881 12.1192881,16 13.5,16 Z" id="Oval"></path>
            <path d="M13.5,0 C11.5670034,0 10,1.56700338 10,3.5 C10,5.43299662 11.5670034,7 13.5,7 C15.4329966,7 17,5.43299662 17,3.5 C17,1.56700338 15.4329966,0 13.5,0 Z M13.5,2 C14.3284271,2 15,2.67157288 15,3.5 C15,4.32842712 14.3284271,5 13.5,5 C12.6715729,5 12,4.32842712 12,3.5 C12,2.67157288 12.6715729,2 13.5,2 Z" id="Oval"></path>
        </g>
    </g>
</svg>