<?xml version="1.0" encoding="UTF-8"?>
<svg width="32px" height="32px" viewBox="0 0 32 32" version="1.1" xmlns="http://www.w3.org/2000/svg" xmlns:xlink="http://www.w3.org/1999/xlink">
    <!-- Generator: Sketch 64 (93537) - https://sketch.com -->
    <title>atom/icon/form/vasovagal</title>
    <desc>Created with Sketch.</desc>
    <g id="atom/icon/form/vasovagal" stroke="none" stroke-width="1" fill="none" fill-rule="evenodd">
        <path d="M0.0881455721,9.42517053 C0.0881455721,2.03130008 16.3489732,-1.46009061 30.6369348,1.55226888 C31.447542,1.72317082 31.9661255,2.51884118 31.7952236,3.32944838 C31.6243217,4.14005558 30.8286513,4.65863916 30.0180441,4.48773722 C17.4082291,1.82918472 3.08814557,4.90387485 3.08814557,9.42517053 C3.08814557,10.1010694 4.09277404,10.8905663 5.78947098,11.634568 L6.183,11.801 L6.30725884,11.6782706 C8.50232609,9.54921001 12.417419,8.20120593 17.0899162,7.73197253 L17.4603536,7.69675527 C24.6881084,7.04800275 30.7824739,8.68115053 30.7824739,12.7078858 C30.7824739,16.8283981 24.0171959,17.9619461 15.2681313,16.9807294 C12.4298903,16.6624177 9.81987644,16.1670662 7.59389768,15.5048404 L7.452,15.461 L7.44873398,15.4788551 C7.4300406,15.5732353 7.41747022,15.6681838 7.411167,15.7636245 L7.40643059,15.907145 C7.40643059,17.4665214 8.58139143,18.903128 10.5942267,20.0270312 L10.682,20.074 L10.8318936,19.9821873 C12.3522763,19.0764071 14.5065565,18.5247214 16.9621869,18.3192464 L17.2706862,18.2953646 C22.1885452,17.9451138 26.2544931,19.0429394 26.2544931,22.0381439 C26.2544931,25.3176838 20.8640939,25.9582639 15.0237379,24.7382337 C13.8750557,24.4982779 12.7877061,24.198027 11.7783658,23.8395819 L11.505,23.74 L11.5163883,23.8943552 C11.7188428,25.8899004 13.8032095,27.6663878 18.1101895,29.1247883 L18.4642815,29.242338 C19.2520267,29.4987536 19.6827545,30.3452131 19.4263389,31.1329584 C19.1699233,31.9207036 18.3234638,32.3514314 17.5357185,32.0950158 C11.6553981,30.1809379 8.5,27.3805899 8.5,23.5688487 C8.5,23.1709232 8.5595368,22.7956008 8.67341434,22.4427583 L8.685,22.407 L8.5105579,22.3014108 C6.03643621,20.7666441 4.504298,18.696858 4.4109555,16.1546389 L4.40643059,15.907145 C4.40643059,15.4393832 4.46257465,14.9897475 4.57107348,14.5586224 L4.611,14.409 L4.4344345,14.3283017 C1.80547777,13.096779 0.191234412,11.5132175 0.0929115423,9.6103179 L0.0881455721,9.42517053 Z M22.0580982,21.6014855 C20.8735838,21.2816608 19.2027607,21.1653607 17.4838069,21.2877849 C16.6614436,21.3463538 15.8947913,21.4539463 15.2031619,21.5959445 L14.954,21.648 L15.3085945,21.7306525 L15.6371858,21.8016231 C17.7988517,22.2531877 20.0019511,22.3904067 21.632473,22.19664 C22.1184029,22.1388934 22.5284723,22.0537844 22.842195,21.9530782 L22.93,21.922 L22.8839573,21.8982759 C22.7123982,21.814418 22.500024,21.7323627 22.2513445,21.6568342 L22.0580982,21.6014855 Z M27.7824739,12.7078858 C27.7824739,11.3983458 23.2650874,10.1877916 17.7285509,10.6847429 C14.5149127,10.9731943 11.7976156,11.7278027 9.9589213,12.7467218 L9.654,12.923 L9.74878789,12.9484798 C11.3850819,13.3655033 13.2429214,13.717224 15.2286819,13.9559873 L15.6024882,13.99942 L16.320464,14.0742166 C22.7334163,14.6911606 27.7824739,13.805955 27.7824739,12.7078858 Z" id="Path-18" fill="#001E62" fill-rule="nonzero"></path>
    </g>
</svg>