<?xml version="1.0" encoding="UTF-8"?>
<svg width="24px" height="24px" viewBox="0 0 24 24" version="1.1" xmlns="http://www.w3.org/2000/svg" xmlns:xlink="http://www.w3.org/1999/xlink">
    <!-- Generator: Sketch 63.1 (92452) - https://sketch.com -->
    <title>atom/icon/form/virus-small</title>
    <desc>Created with Sketch.</desc>
    <g id="atom/icon/form/virus-small" stroke="none" stroke-width="1" fill="none" fill-rule="evenodd">
        <path d="M23.4700315,11.3684211 L20.7192429,10.7873684 C20.2649842,10.6863158 19.8107256,9.01894737 20.1892744,8.66526316 L22.2586751,6.79578947 C22.4858044,6.59368421 22.5362776,6.26526316 22.384858,6.01263158 L22.384858,5.98736842 C22.2334385,5.73473684 21.9305994,5.60842105 21.6277603,5.70947368 L18.9526814,6.56842105 C18.4731861,6.72 17.2870662,5.50736842 17.4132492,5.05263158 L18.2712934,2.37473684 C18.3722397,2.09684211 18.2460568,1.76842105 17.9936909,1.61684211 L17.9684543,1.61684211 C17.7160883,1.46526316 17.3880126,1.51578947 17.1861199,1.74315789 L15.318612,3.81473684 C14.9652997,4.19368421 13.2996845,3.73894737 13.1987382,3.28421053 L12.6182965,0.505263158 C12.5678233,0.202105263 12.2902208,0 11.9873817,0 C11.6845426,0 11.4321767,0.202105263 11.3564669,0.505263158 L10.7760252,3.25894737 C10.6750789,3.71368421 8.98422713,4.19368421 8.63091483,3.78947368 L6.78864353,1.74315789 C6.58675079,1.51578947 6.25867508,1.46526316 5.98107256,1.61684211 C5.72870662,1.76842105 5.60252366,2.09684211 5.70347003,2.37473684 L6.5615142,5.02736842 C6.71293375,5.50736842 5.50157729,6.72 5.04731861,6.56842105 L2.37223975,5.70947368 C2.09463722,5.60842105 1.76656151,5.73473684 1.61514196,5.98736842 C1.4637224,6.24 1.51419558,6.59368421 1.74132492,6.79578947 L3.78548896,8.66526316 C4.16403785,9.01894737 3.70977918,10.6863158 3.2555205,10.7873684 L0.504731861,11.3684211 C0.201892744,11.4189474 0,11.6968421 0,12 C0,12.3031579 0.201892744,12.5557895 0.504731861,12.6315789 L3.2555205,13.2126316 C3.70977918,13.3136842 4.18927445,15.0063158 3.78548896,15.36 L1.71608833,17.2042105 C1.48895899,17.4063158 1.4384858,17.7347368 1.58990536,17.9873684 L1.58990536,18.0126316 C1.74132492,18.2652632 2.04416404,18.3915789 2.34700315,18.2905263 L5.02208202,17.4315789 C5.47634069,17.28 6.71293375,18.4926316 6.5615142,18.9726316 L5.70347003,21.6505263 C5.60252366,21.9284211 5.72870662,22.2568421 5.98107256,22.4084211 L6.00630915,22.4084211 C6.25867508,22.56 6.58675079,22.5094737 6.78864353,22.2821053 L8.65615142,20.2105263 C9.00946372,19.8315789 10.7003155,20.2863158 10.8012618,20.7410526 L11.3817035,23.4947368 C11.4321767,23.7978947 11.7097792,24 12.0126183,24 C12.3154574,24 12.5678233,23.7978947 12.6435331,23.4947368 L13.2239748,20.7410526 C13.3249211,20.2863158 14.9905363,19.8063158 15.3438486,20.2105263 L17.2113565,22.2821053 C17.4132492,22.5094737 17.7413249,22.56 17.9936909,22.4084211 L18.0189274,22.4084211 C18.2712934,22.2568421 18.3974763,21.9536842 18.29653,21.6505263 L17.4384858,18.9726316 C17.2870662,18.4926316 18.4984227,17.3052632 18.977918,17.4568421 L21.6529968,18.3157895 C21.9305994,18.4168421 22.2586751,18.2905263 22.4100946,18.0378947 L22.4100946,18.0126316 C22.5615142,17.76 22.511041,17.4315789 22.2839117,17.2294737 L20.214511,15.36 C19.8107256,15.0063158 20.2902208,13.3136842 20.7444795,13.2126316 L23.4952681,12.6315789 C23.7981073,12.5810526 24,12.3031579 24,12 C24,11.6968421 23.7728707,11.4442105 23.4700315,11.3684211 Z M6.5,15 C5.66666667,15 5,14.3333333 5,13.5 C5,12.6666667 5.66666667,12 6.5,12 C7.33333333,12 8,12.6666667 8,13.5 C8,14.3333333 7.33333333,15 6.5,15 Z M9.5,9 C8.67105263,9 8,8.32894737 8,7.5 C8,6.67105263 8.67105263,6 9.5,6 C10.3289474,6 11,6.67105263 11,7.5 C11,8.32894737 10.3684211,9 9.5,9 Z M12,10 C13.0731707,10 14,10.8780488 14,12 C14,13.1219512 13.1219512,14 12,14 C10.9268293,14 10,13.1219512 10,12 C10,10.8780488 10.9268293,10 12,10 Z M12,19 C10.9,19 10,18.1 10,17 C10,15.9 10.9,15 12,15 C13.1,15 14,15.9 14,17 C14,18.1 13.1,19 12,19 Z M15.5,10 C14.6857143,10 14,9.31428571 14,8.5 C14,7.68571429 14.6857143,7 15.5,7 C16.3142857,7 17,7.68571429 17,8.5 C17,9.31428571 16.3142857,10 15.5,10 Z M16.5,15 C15.6857143,15 15,14.3142857 15,13.5 C15,12.6857143 15.6857143,12 16.5,12 C17.3142857,12 18,12.6857143 18,13.5 C18,14.3142857 17.3571429,15 16.5,15 Z" id="atom/icon/context/virus" fill="#001E62" fill-rule="nonzero"></path>
    </g>
</svg>