<?xml version="1.0" encoding="UTF-8"?>
<svg width="32px" height="32px" viewBox="0 0 32 32" version="1.1" xmlns="http://www.w3.org/2000/svg" xmlns:xlink="http://www.w3.org/1999/xlink">
    <!-- Generator: Sketch 64 (93537) - https://sketch.com -->
    <title>atom/icon/form/virus</title>
    <desc>Created with Sketch.</desc>
    <g id="atom/icon/form/virus" stroke="none" stroke-width="1" fill="none" fill-rule="evenodd">
        <path d="M31.2933754,15.1578947 L27.6256572,14.3831579 C27.019979,14.2484211 26.4143007,12.0252632 26.9190326,11.5536842 L29.6782334,9.06105263 C29.9810726,8.79157895 30.0483701,8.35368421 29.8464774,8.01684211 L29.8464774,7.98315789 C29.6445846,7.64631579 29.2407992,7.47789474 28.8370137,7.61263158 L25.2702419,8.75789474 C24.6309148,8.96 23.0494217,7.34315789 23.2176656,6.73684211 L24.3617245,3.16631579 C24.4963197,2.79578947 24.3280757,2.35789474 23.9915878,2.15578947 L23.957939,2.15578947 C23.6214511,1.95368421 23.1840168,2.02105263 22.9148265,2.32421053 L20.424816,5.08631579 C19.9537329,5.59157895 17.7329127,4.98526316 17.5983176,4.37894737 L16.8243954,0.673684211 C16.7570978,0.269473684 16.3869611,0 15.9831756,0 C15.5793901,0 15.2429022,0.269473684 15.1419558,0.673684211 L14.3680336,4.34526316 C14.2334385,4.95157895 11.9789695,5.59157895 11.5078864,5.05263158 L9.05152471,2.32421053 C8.78233438,2.02105263 8.34490011,1.95368421 7.97476341,2.15578947 C7.6382755,2.35789474 7.47003155,2.79578947 7.60462671,3.16631579 L8.74868559,6.70315789 C8.95057834,7.34315789 7.33543638,8.96 6.72975815,8.75789474 L3.16298633,7.61263158 C2.79284963,7.47789474 2.35541535,7.64631579 2.15352261,7.98315789 C1.95162986,8.32 2.01892744,8.79157895 2.32176656,9.06105263 L5.04731861,11.5536842 C5.55205047,12.0252632 4.94637224,14.2484211 4.34069401,14.3831579 L0.672975815,15.1578947 C0.269190326,15.2252632 0,15.5957895 0,16 C0,16.4042105 0.269190326,16.7410526 0.672975815,16.8421053 L4.34069401,17.6168421 C4.94637224,17.7515789 5.58569926,20.0084211 5.04731861,20.48 L2.28811777,22.9389474 C1.98527865,23.2084211 1.91798107,23.6463158 2.11987382,23.9831579 L2.11987382,24.0168421 C2.32176656,24.3536842 2.72555205,24.5221053 3.12933754,24.3873684 L6.69610936,23.2421053 C7.30178759,23.04 8.95057834,24.6568421 8.74868559,25.2968421 L7.60462671,28.8673684 C7.47003155,29.2378947 7.6382755,29.6757895 7.97476341,29.8778947 L8.0084122,29.8778947 C8.34490011,30.08 8.78233438,30.0126316 9.05152471,29.7094737 L11.5415352,26.9473684 C12.0126183,26.4421053 14.2670873,27.0484211 14.4016824,27.6547368 L15.1756046,31.3263158 C15.2429022,31.7305263 15.6130389,32 16.0168244,32 C16.4206099,32 16.7570978,31.7305263 16.8580442,31.3263158 L17.6319664,27.6547368 C17.7665615,27.0484211 19.9873817,26.4084211 20.4584648,26.9473684 L22.9484753,29.7094737 C23.2176656,30.0126316 23.6550999,30.08 23.9915878,29.8778947 L24.0252366,29.8778947 C24.3617245,29.6757895 24.5299685,29.2715789 24.3953733,28.8673684 L23.2513144,25.2968421 C23.0494217,24.6568421 24.6645636,23.0736842 25.3038906,23.2757895 L28.8706625,24.4210526 C29.2407992,24.5557895 29.6782334,24.3873684 29.8801262,24.0505263 L29.8801262,24.0168421 C30.0820189,23.68 30.0147213,23.2421053 29.7118822,22.9726316 L26.9526814,20.48 C26.4143007,20.0084211 27.0536278,17.7515789 27.659306,17.6168421 L31.3270242,16.8421053 C31.7308097,16.7747368 32,16.4042105 32,16 C32,15.5957895 31.6971609,15.2589474 31.2933754,15.1578947 Z M9,20 C7.88888889,20 7,19.1111111 7,18 C7,16.8888889 7.88888889,16 9,16 C10.1111111,16 11,16.8888889 11,18 C11,19.1111111 10.1111111,20 9,20 Z M12,12 C10.8947368,12 10,11.1052632 10,10 C10,8.89473684 10.8947368,8 12,8 C13.1052632,8 14,8.89473684 14,10 C14,11.1052632 13.1578947,12 12,12 Z M15.5,13 C16.8414634,13 18,14.097561 18,15.5 C18,16.902439 16.902439,18 15.5,18 C14.1585366,18 13,16.902439 13,15.5 C13,14.097561 14.1585366,13 15.5,13 Z M16.5,25 C15.125,25 14,23.875 14,22.5 C14,21.125 15.125,20 16.5,20 C17.875,20 19,21.125 19,22.5 C19,23.875 17.875,25 16.5,25 Z M20,13 C18.9142857,13 18,12.0857143 18,11 C18,9.91428571 18.9142857,9 20,9 C21.0857143,9 22,9.91428571 22,11 C22,12.0857143 21.0857143,13 20,13 Z M22,20 C20.9142857,20 20,19.0857143 20,18 C20,16.9142857 20.9142857,16 22,16 C23.0857143,16 24,16.9142857 24,18 C24,19.0857143 23.1428571,20 22,20 Z" id="atom/icon/context/virus" fill="#001E62" fill-rule="nonzero"></path>
    </g>
</svg>