<?xml version="1.0" encoding="UTF-8"?>
<svg width="32px" height="32px" viewBox="0 0 32 32" version="1.1" xmlns="http://www.w3.org/2000/svg" xmlns:xlink="http://www.w3.org/1999/xlink">
    <!-- Generator: Sketch 64 (93537) - https://sketch.com -->
    <title>atom/icon/checkup/detail</title>
    <desc>Created with Sketch.</desc>
    <g id="atom/icon/checkup/detail" stroke="none" stroke-width="1" fill="none" fill-rule="evenodd">
        <path d="M7.00799754,4 C8.12230954,4 9.0256379,4.90332836 9.0256379,6.01764036 L9.0256379,25.9823596 C9.0256379,27.0966716 8.12230954,28 7.00799754,28 C5.89368554,28 4.99035718,27.0966716 4.99035718,25.9823596 L4.99035718,6.01764036 C4.99035718,4.90332836 5.89368554,4 7.00799754,4 Z M18.9970629,19 C20.0970099,19 20.988693,19.8916832 20.988693,20.9916301 L20.988693,26.0083699 C20.988693,27.1083168 20.0970099,28 18.9970629,28 C17.897116,28 17.0054328,27.1083168 17.0054328,26.0083699 L17.0054328,20.9916301 C17.0054328,19.8916832 17.897116,19 18.9970629,19 Z M24.9924566,8.8 C26.0958724,8.8 26.9903675,9.69449519 26.9903675,10.7979109 L26.9903675,26.0020891 C26.9903675,27.1055048 26.0958724,28 24.9924566,28 C23.8890409,28 22.9945457,27.1055048 22.9945457,26.0020891 L22.9945457,10.7979109 C22.9945457,9.69449519 23.8890409,8.8 24.9924566,8.8 Z M12.9728677,11.2 C14.075433,11.2 14.9692387,12.0938057 14.9692387,13.196371 L14.9692387,26.003629 C14.9692387,27.1061943 14.075433,28 12.9728677,28 C11.8703025,28 10.9764967,27.1061943 10.9764967,26.003629 L10.9764967,13.196371 C10.9764967,12.0938057 11.8703025,11.2 12.9728677,11.2 Z" id="Combined-Shape" fill="#001E62" fill-rule="nonzero"></path>
    </g>
</svg>