<?xml version="1.0" encoding="UTF-8"?>
<svg width="32px" height="32px" viewBox="0 0 32 32" version="1.1" xmlns="http://www.w3.org/2000/svg" xmlns:xlink="http://www.w3.org/1999/xlink">
    <!-- Generator: Sketch 63.1 (92452) - https://sketch.com -->
    <title>atom/icon/checkup/remediation</title>
    <desc>Created with Sketch.</desc>
    <g id="atom/icon/checkup/remediation" stroke="none" stroke-width="1" fill="none" fill-rule="evenodd">
        <path d="M25.0494808,18.2986788 C25.0494808,18.2986788 25.0213428,18.2986788 25.0213428,18.2986788 L18.6558055,20.8961015 C18.2055976,21.0404954 17.9804936,21.5314347 18.1211836,21.9934952 C18.2618735,22.4555557 18.7402195,22.686586 19.1904274,22.5421921 L25.4996887,19.9736481 C26.1750006,19.7714966 26.2312766,19.9158905 26.2875526,20.0891632 C26.3438286,20.2335571 26.1187246,20.4068298 26.0905866,20.4068298 C22.3482331,22.4283445 17.9587057,24.7675258 16.8050479,25.2584651 C15.3418721,25.8649195 13.1752464,25.2295863 13.1752464,25.2295863 C8.99833105,24.1140973 6.67393614,23.2766126 6.20206165,22.7171323 C5.4942499,21.8779119 5.19093826,18.0991881 6.20206165,17.3759784 C7.21318503,16.6527688 10.1453056,17.020169 10.8302051,17.2648482 C11.5151046,17.5095274 12.3311065,17.6633456 13.4284883,19.2805574 C13.5973163,19.5115876 13.8505583,19.6559815 14.1319383,19.6559815 L18.2400857,19.6559815 C18.6058796,19.6559815 18.9435356,19.9158905 18.9716736,20.2624359 C18.9716736,20.2913147 18.9716736,20.3201935 18.9716736,20.3490723 C18.9716736,20.3779511 18.9716736,20.4068298 18.9716736,20.4068298 C18.9716736,20.4357086 18.9716736,20.4357086 18.9716736,20.4645874 C18.9716736,20.4934662 18.9716736,20.522345 18.9435356,20.522345 C18.9435356,20.5512237 18.9435356,20.5512237 18.9153976,20.5801025 C18.8028456,20.8111328 18.5777416,20.9844055 18.2963617,20.9844055 L12.3592445,20.9844055 C11.8808986,20.9844055 11.5151046,21.3598296 11.5151046,21.8507689 C11.5151046,22.3417082 11.8808986,22.7171323 12.3592445,22.7171323 L18.3244997,22.7171323 C19.1405016,22.7171323 19.8720895,22.2839506 20.2941594,21.6197386 C20.2941594,21.6197386 20.2941594,21.6197386 20.3222974,21.5908599 C20.3504354,21.5619811 20.3504354,21.5331023 20.3785734,21.5042235 C20.3785734,21.4753447 20.4067114,21.446466 20.4067114,21.446466 C20.4348494,21.3887084 20.4629874,21.3309508 20.4911254,21.2443145 C20.4911254,21.2443145 20.4911254,21.2443145 20.4911254,21.2154357 C20.5192634,21.1576781 20.5474014,21.0999206 20.5474014,21.0132842 C20.5474014,21.0132842 20.5474014,20.9844055 20.5474014,20.9555267 C20.5755394,20.8977691 20.5755394,20.8400116 20.6036774,20.782254 C20.6036774,20.7533752 20.6036774,20.7533752 20.6036774,20.7244964 C20.6036774,20.6667389 20.6318154,20.6089813 20.6318154,20.5512237 C20.6318154,20.522345 20.6318154,20.522345 20.6318154,20.4934662 C20.6318154,20.3490723 20.6599534,20.2046784 20.6318154,20.0602845 C20.5192634,18.8184969 19.4781575,17.8654971 18.2119477,17.8654971 L14.5540082,17.8654971 C12.5843485,15.5551946 10.1910337,15.5263158 8.27923505,15.5263158 C7.00470262,15.5263158 6.36555241,15.5263158 6.36178441,15.5263158 C5.8089572,15.5263158 4.79382484,15.8242883 4.33667412,16.662951 C3.8795234,17.5016136 3.93600791,22.6857014 4.22037025,23.3900883 C4.50473258,24.0944752 4.94329831,24.3267447 5.49357343,24.5653743 L12.6969004,26.8756768 C12.7813144,26.9045556 13.9068343,27.2222222 15.2574581,27.2222222 C15.989046,27.2222222 16.7487719,27.1355859 17.4522218,26.8467981 C18.9435356,26.2403437 24.5429968,23.2080716 26.8784505,21.9374052 C27.6663144,21.5042235 28.2853503,20.4645874 27.8632804,19.3960725 C27.6100384,18.7607393 26.9065885,17.7788607 25.0494808,18.2986788 Z M16.610334,5 C15.8118772,5 15.0434769,5.3095109 14.4777533,5.87900668 C13.3061913,7.04311105 13.3061913,8.93517865 14.4778669,10.113782 L18.5040053,14.1543967 C18.7792186,14.4235034 19.2055887,14.4235034 19.4767987,14.1583622 L23.517627,10.1288833 C24.691164,8.9618055 24.691164,7.07031181 23.5200201,5.89173556 L23.4389378,5.81309245 C22.2606028,4.71218564 20.398416,4.7425401 19.2442397,5.88987033 L18.9923603,6.1423562 L18.7420545,5.89135557 C18.1733487,5.31836918 17.4024491,5 16.610334,5 Z" id="Combined-Shape" fill="#001E62" fill-rule="nonzero"></path>
    </g>
</svg>