<?xml version="1.0" encoding="UTF-8"?>
<svg width="24px" height="24px" viewBox="0 0 24 24" version="1.1" xmlns="http://www.w3.org/2000/svg" xmlns:xlink="http://www.w3.org/1999/xlink">
    <!-- Generator: Sketch 63.1 (92452) - https://sketch.com -->
    <title>atom/icon/bluetooth</title>
    <desc>Created with Sketch.</desc>
    <g id="atom/icon/bluetooth" stroke="none" stroke-width="1" fill="none" fill-rule="evenodd">
        <path d="M10.8333639,1.20217676 C10.8333639,0.1563901 12.0288963,-0.368971489 12.7630576,0.293806895 L12.8560651,0.387049163 L18.6893421,6.86576124 C19.1339038,7.35951243 19.0923426,8.12284729 18.6222506,8.56493564 L18.5149785,8.6545365 L13.5773373,12.3095687 L18.5676145,16.4666656 C19.08774,16.8999226 19.1415053,17.6836207 18.7129655,18.1873139 L18.6137475,18.2907327 L12.7804706,23.6896594 C12.0623437,24.354314 10.9365509,23.8818986 10.8400134,22.9305236 L10.8333639,22.7978837 L10.8333639,14.3407649 L6.84842456,17.2928193 C6.36575441,17.6502034 5.70739137,17.5736935 5.31284693,17.1368682 L5.21996139,17.0201979 C4.87243888,16.5238311 4.94683759,15.8467857 5.37160913,15.4410453 L5.48506005,15.345524 L9.73437449,12.1979909 L5.43242404,8.61318016 C4.97025563,8.22820066 4.86899434,7.55485071 5.17512865,7.04856125 L5.26017654,6.92573287 C5.63453295,6.45044953 6.28930255,6.34631477 6.78162151,6.66113623 L6.90106057,6.74859752 L10.8333639,10.024023 L10.8333639,1.20217676 Z M13,15 L13,20 L16,17.3686713 L13,15 Z M13,4 L13,9 L16,7 L13,4 Z" id="Path-2" fill="#001E62" fill-rule="nonzero"></path>
    </g>
</svg>