<?xml version="1.0" encoding="UTF-8"?>
<svg width="24px" height="24px" viewBox="0 0 24 24" version="1.1" xmlns="http://www.w3.org/2000/svg" xmlns:xlink="http://www.w3.org/1999/xlink">
    <!-- Generator: Sketch 63.1 (92452) - https://sketch.com -->
    <title>atom/icon/chart</title>
    <desc>Created with Sketch.</desc>
    <defs>
        <path d="M2,0 L2,22 L24,22 L24,24 L0,24 L0,0 L2,0 Z M9.6903242,12.202451 C9.80522895,12.2998943 9.88891059,12.4216388 9.94010396,12.5543276 L11.6423306,13.6168755 C12.0131224,13.8496631 12.1116771,14.3197731 11.8620591,14.6659313 C11.7118036,14.875289 11.4597621,15.0007524 11.1899485,15 C11.0316147,14.9992408 10.8773201,14.9538926 10.7456446,14.8715099 L9.343,13.996 L5.51748259,18.6850542 C5.35468179,18.884519 5.11219428,19 4.85771092,19 C4.38473175,19.0008734 4.00086459,18.6098176 4,18.126903 C3.9991509,17.9221892 4.0694123,17.7227245 4.19793925,17.5652523 L8.01286104,12.8898743 C7.97442896,12.6901419 8.02153329,12.476618 8.1622196,12.3017767 C8.35589112,12.0601771 8.67749814,11.9563681 8.97785414,12.0168842 C9.22150776,11.9676769 9.48430113,12.0272411 9.6903242,12.202451 Z M23.6652754,7.17684054 C24.0073109,7.44631483 24.1003646,7.94299293 23.8832392,8.32871103 L20.5299506,13.6125206 C20.3740227,13.8546952 20.1133045,14 19.8341432,14 C19.7161878,13.9993278 19.6040937,13.9731716 19.5025558,13.926536 C19.3963315,13.9749732 19.2798699,14.0005244 19.1615068,14 C18.9066363,13.9991324 18.6668074,13.8787997 18.5097069,13.6733745 L16.445,11.018 L13.5299506,15.6125206 C13.3740226,15.8546952 13.1133044,16 12.8341432,16 C12.3713893,15.9973581 11.9974976,15.6010724 12,15.1149619 C12.0008509,14.9441187 12.0486353,14.7776787 12.1383358,14.6350159 L15.337,9.594 L15.1671433,9.37577606 C14.8905461,8.99586837 14.9649182,8.45780905 15.3334358,8.17244851 C15.6860763,7.89998077 16.1841182,7.95584955 16.4707431,8.30137646 L19.454,12.137 L22.4916244,7.35120625 C22.7699474,6.96284625 23.2955754,6.88446974 23.6652754,7.17684054 Z" id="path-1"></path>
    </defs>
    <g id="atom/icon/chart" stroke="none" stroke-width="1" fill="none" fill-rule="evenodd">
        <mask id="mask-2" fill="white">
            <use xlink:href="#path-1"></use>
        </mask>
        <use id="Combined-Shape" fill="#001E62" fill-rule="nonzero" xlink:href="#path-1"></use>
    </g>
</svg>