<?xml version="1.0" encoding="UTF-8"?>
<svg width="24px" height="24px" viewBox="0 0 24 24" version="1.1" xmlns="http://www.w3.org/2000/svg" xmlns:xlink="http://www.w3.org/1999/xlink">
    <!-- Generator: Sketch 63.1 (92452) - https://sketch.com -->
    <title>atom/icon/checkup</title>
    <desc>Created with Sketch.</desc>
    <g id="atom/icon/checkup" stroke="none" stroke-width="1" fill="none" fill-rule="evenodd">
        <path d="M6.69227011,2 C8.4526917,2 10.1659633,2.68051412 11.4298728,3.90527254 L11.4298728,3.90527254 L11.9861603,4.44178638 L12.545945,3.90209783 C15.1110228,1.44967946 19.2496054,1.3847968 21.868374,3.73798512 L21.868374,3.73798512 L22.048574,3.90608475 C24.6513611,6.42529149 24.6513611,10.4683593 22.0432555,12.962988 L22.0432555,12.962988 L13.0627915,21.5759991 C12.4600459,22.1427385 11.5124676,22.1427385 10.9008248,21.567523 L10.9008248,21.567523 L1.95300814,12.930709 C-0.650960621,10.4114444 -0.650960621,6.36714986 1.95275559,3.87887679 C3.21003768,2.66157954 4.9177547,2 6.69227011,2 Z M6.69227011,3.8208019 C5.43098039,3.8208019 4.22277156,4.28886905 3.32877471,5.15440685 C1.46143899,6.93896863 1.46143899,9.84831656 3.33214164,11.6581682 L3.33214164,11.6581682 L11.9871245,20.0123738 L20.6723723,11.6825239 C22.5391065,9.89700817 22.5391065,6.98825431 20.6682322,5.17745718 C18.8192476,3.38709439 15.7876708,3.39388961 13.9211606,5.17840635 L13.9211606,5.17840635 L11.9862567,7.04651016 L10.0501187,5.17721265 C9.14840134,4.30342856 7.93333388,3.8208019 6.69227011,3.8208019 Z M16.3257971,6.35475798 L16.3396468,6.44107581 L16.751359,11.6963876 L17.4921746,10.0995425 C17.5586293,9.95620682 17.6892525,9.85740299 17.8392471,9.83209854 L17.9156514,9.82570538 L19.5313964,9.82570538 C19.790199,9.82570538 20,10.0401056 20,10.3045816 C20,10.5396715 19.8342313,10.7351952 19.6156285,10.7757426 L19.5313964,10.7834579 L18.2115276,10.7826917 L16.8480316,13.7257537 C16.6554666,14.1410955 16.0748924,14.0605731 15.9715062,13.6462287 L15.9574479,13.5589569 L15.5386129,8.22549248 L14.411256,10.5195127 C14.3449834,10.6543557 14.2214126,10.7477557 14.0795227,10.7751433 L13.9925023,10.7834579 L12.4686036,10.7834579 C12.209801,10.7834579 12,10.5690577 12,10.3045816 C12,10.0694918 12.1657687,9.87396809 12.3843715,9.83342072 L12.4686036,9.82570538 L13.7035614,9.82493918 L15.4537862,6.26438703 C15.6532506,5.85854202 16.2240355,5.94453575 16.3257971,6.35475798 Z" id="Combined-Shape" fill="#001E62" fill-rule="nonzero"></path>
    </g>
</svg>