<?xml version="1.0" encoding="UTF-8"?>
<svg width="24px" height="24px" viewBox="0 0 24 24" version="1.1" xmlns="http://www.w3.org/2000/svg" xmlns:xlink="http://www.w3.org/1999/xlink">
    <!-- Generator: Sketch 63.1 (92452) - https://sketch.com -->
    <title>atom/icon/checkup-detail_small</title>
    <desc>Created with Sketch.</desc>
    <g id="atom/icon/checkup-detail_small" stroke="none" stroke-width="1" fill="none" fill-rule="evenodd">
        <path d="M3.01764036,-9.05941988e-14 C4.13195236,-9.07988946e-14 5.03528071,0.903328357 5.03528071,2.01764036 L5.03528071,21.9823596 C5.03528071,23.0966716 4.13195236,24 3.01764036,24 C1.90332836,24 1,23.0966716 1,21.9823596 L1,2.01764036 C1,0.903328357 1.90332836,-9.0389503e-14 3.01764036,-9.05941988e-14 Z M15.0067057,15 C16.1066527,15 16.9983359,15.8916832 16.9983359,16.9916301 L16.9983359,22.0083699 C16.9983359,23.1083168 16.1066527,24 15.0067057,24 C13.9067588,24 13.0150756,23.1083168 13.0150756,22.0083699 L13.0150756,16.9916301 C13.0150756,15.8916832 13.9067588,15 15.0067057,15 Z M21.0020994,4.8 C22.1055152,4.8 23.0000104,5.69449519 23.0000104,6.79791092 L23.0000104,22.0020891 C23.0000104,23.1055048 22.1055152,24 21.0020994,24 C19.8986837,24 19.0041885,23.1055048 19.0041885,22.0020891 L19.0041885,6.79791092 C19.0041885,5.69449519 19.8986837,4.8 21.0020994,4.8 Z M8.98251053,7.2 C10.0850758,7.2 10.9788815,8.09380573 10.9788815,9.19637098 L10.9788815,22.003629 C10.9788815,23.1061943 10.0850758,24 8.98251053,24 C7.87994528,24 6.98613955,23.1061943 6.98613955,22.003629 L6.98613955,9.19637098 C6.98613955,8.09380573 7.87994528,7.2 8.98251053,7.2 Z" id="Combined-Shape" fill="#001E62" fill-rule="nonzero"></path>
    </g>
</svg>