<?xml version="1.0" encoding="UTF-8"?>
<svg width="24px" height="24px" viewBox="0 0 24 24" version="1.1" xmlns="http://www.w3.org/2000/svg" xmlns:xlink="http://www.w3.org/1999/xlink">
    <!-- Generator: Sketch 63.1 (92452) - https://sketch.com -->
    <title>atom/icon/close</title>
    <desc>Created with Sketch.</desc>
    <g id="atom/icon/close" stroke="none" stroke-width="1" fill="none" fill-rule="evenodd">
        <path d="M23.5415584,0.45844156 C24.1146104,1.03149351 24.1504261,1.93834124 23.6490057,2.55311766 L23.5415584,2.67199322 L14.213,12 L23.5415584,21.3280068 C24.1528139,21.9392622 24.1528139,22.930303 23.5415584,23.5415584 C22.9685065,24.1146104 22.0616588,24.1504261 21.4468823,23.6490057 L21.3280068,23.5415584 L12,14.213 L2.67199322,23.5415584 C2.06073781,24.1528139 1.06969697,24.1528139 0.45844156,23.5415584 C-0.11461039,22.9685065 -0.150426137,22.0616588 0.350994319,21.4468823 L0.45844156,21.3280068 L9.787,12 L0.45844156,2.67199322 C-0.152813853,2.06073781 -0.152813853,1.06969697 0.45844156,0.45844156 C1.03149351,-0.11461039 1.93834124,-0.150426137 2.55311766,0.350994319 L2.67199322,0.45844156 L12,9.787 L21.3280068,0.45844156 C21.9392622,-0.152813853 22.930303,-0.152813853 23.5415584,0.45844156 Z" id="Combined-Shape" fill="#001E62" fill-rule="nonzero"></path>
    </g>
</svg>