<?xml version="1.0" encoding="UTF-8"?>
<svg width="24px" height="24px" viewBox="0 0 24 24" version="1.1" xmlns="http://www.w3.org/2000/svg" xmlns:xlink="http://www.w3.org/1999/xlink">
    <!-- Generator: Sketch 64 (93537) - https://sketch.com -->
    <title>atom/icon/collapse-close</title>
    <desc>Created with Sketch.</desc>
    <g id="atom/icon/collapse-close" stroke="none" stroke-width="1" fill="none" fill-rule="evenodd">
        <path d="M7.69589432,17.7418649 L12.4870546,21.4701405 L17.2793117,17.7418649 C17.9375358,17.2295991 18.8589071,17.2273608 19.5196124,17.7364225 C19.9995658,18.1062181 20.0888664,18.7950757 19.7190708,19.2750291 C19.6625336,19.3484081 19.5969303,19.414331 19.5238268,19.471224 L13.7023965,24.0017777 C13.3466222,24.2786607 12.9139702,24.4065405 12.4871544,24.3852164 C12.0606292,24.4063612 11.6283344,24.2784666 11.2728095,24.0017777 L5.45137915,19.471224 C4.97322811,19.0991009 4.88727552,18.4098175 5.25939866,17.9316665 C5.31629172,17.858563 5.38221458,17.7929597 5.45559356,17.7364225 C6.11629888,17.2273608 7.03767015,17.2295991 7.69589432,17.7418649 Z" id="Combined-Shape" fill="#001E62" fill-rule="nonzero" transform="translate(12.487605, 20.871821) rotate(-180.000000) translate(-12.487605, -20.871821) "></path>
        <path d="M7.6958964,0.37002514 L12.4870567,4.09830067 L17.2793138,0.37002514 C17.9375379,-0.142240707 18.8589092,-0.144479026 19.5196145,0.364582701 C19.9995679,0.734378287 20.0888685,1.42323595 19.7190729,1.90318936 C19.6625357,1.97656835 19.5969323,2.0424912 19.5238289,2.09938426 L13.7023986,6.62993795 C13.3466242,6.90682088 12.9139722,7.03470076 12.4871565,7.01337663 C12.0606313,7.03452137 11.6283365,6.90662677 11.2728116,6.62993795 L5.45138123,2.09938426 C4.97323019,1.72726112 4.8872776,1.03797771 5.25940074,0.559826668 C5.3162938,0.486723242 5.38221666,0.421119908 5.45559565,0.364582701 C6.11630096,-0.144479026 7.03767223,-0.142240707 7.6958964,0.37002514 Z" id="Combined-Shape" fill="#001E62" fill-rule="nonzero" transform="translate(12.487607, 3.499982) rotate(-360.000000) translate(-12.487607, -3.499982) "></path>
        <line x1="2" y1="12" x2="22" y2="12" id="Line-13" stroke="#001E62" stroke-width="2" stroke-linecap="round"></line>
    </g>
</svg>