<?xml version="1.0" encoding="UTF-8"?>
<svg width="24px" height="24px" viewBox="0 0 24 24" version="1.1" xmlns="http://www.w3.org/2000/svg" xmlns:xlink="http://www.w3.org/1999/xlink">
    <!-- Generator: Sketch 64 (93537) - https://sketch.com -->
    <title>atom/icon/date</title>
    <desc>Created with Sketch.</desc>
    <g id="atom/icon/date" stroke="none" stroke-width="1" fill="none" fill-rule="evenodd">
        <path d="M6,17 C6.55225,17 7,17.44775 7,18 C7,18.55225 6.55225,19 6,19 C5.44775,19 5,18.55225 5,18 C5,17.44775 5.44775,17 6,17 Z M10,17 C10.55225,17 11,17.44775 11,18 C11,18.55225 10.55225,19 10,19 C9.44775,19 9,18.55225 9,18 C9,17.44775 9.44775,17 10,17 Z M14,17 C14.55225,17 15,17.44775 15,18 C15,18.55225 14.55225,19 14,19 C13.44775,19 13,18.55225 13,18 C13,17.44775 13.44775,17 14,17 Z M18,17 C18.55225,17 19,17.44775 19,18 C19,18.55225 18.55225,19 18,19 C17.44775,19 17,18.55225 17,18 C17,17.44775 17.44775,17 18,17 Z M6,13 C6.55225,13 7,13.44775 7,14 C7,14.55225 6.55225,15 6,15 C5.44775,15 5,14.55225 5,14 C5,13.44775 5.44775,13 6,13 Z M10,13 C10.55225,13 11,13.44775 11,14 C11,14.55225 10.55225,15 10,15 C9.44775,15 9,14.55225 9,14 C9,13.44775 9.44775,13 10,13 Z M14,13 C14.55225,13 15,13.44775 15,14 C15,14.55225 14.55225,15 14,15 C13.44775,15 13,14.55225 13,14 C13,13.44775 13.44775,13 14,13 Z M18,13 C18.55225,13 19,13.44775 19,14 C19,14.55225 18.55225,15 18,15 C17.44775,15 17,14.55225 17,14 C17,13.44775 17.44775,13 18,13 Z M20,22 L4,22 C2.8955,22 2,21.1045 2,20 L2,10 L22,10 L22,20 C22,21.1045 21.1045,22 20,22 M4,4 L5,4 L5,5 C5,5.55225 5.44775,6 6,6 C6.55225,6 7,5.55225 7,5 L7,4 L11,4 L11,5 C11,5.55225 11.44775,6 12,6 C12.55225,6 13,5.55225 13,5 L13,4 L17,4 L17,5 C17,5.55225 17.44775,6 18,6 C18.55225,6 19,5.55225 19,5 L19,4 L20,4 C21.1045,4 22,4.8955 22,6 L22,8 L2,8 L2,6 C2,4.8955 2.8955,4 4,4 M20,2 L19,2 L19,1 C19,0.44775 18.55225,0 18,0 C17.44775,0 17,0.44775 17,1 L17,2 L13,2 L13,1 C13,0.44775 12.55225,0 12,0 C11.44775,0 11,0.44775 11,1 L11,2 L7,2 L7,1 C7,0.44775 6.55225,0 6,0 C5.44775,0 5,0.44775 5,1 L5,2 L4,2 C1.791,2 0,3.791 0,6 L0,20 C0,22.20925 1.791,24 4,24 L20,24 C22.20925,24 24,22.20925 24,20 L24,6 C24,3.791 22.20925,2 20,2" id="Fill-1" fill="#001E62" fill-rule="nonzero"></path>
    </g>
</svg>