<?xml version="1.0" encoding="UTF-8"?>
<svg width="24px" height="24px" viewBox="0 0 24 24" version="1.1" xmlns="http://www.w3.org/2000/svg" xmlns:xlink="http://www.w3.org/1999/xlink">
    <!-- Generator: Sketch 64 (93537) - https://sketch.com -->
    <title>atom/icon/done</title>
    <desc>Created with Sketch.</desc>
    <g id="atom/icon/done" stroke="none" stroke-width="1" fill="none" fill-rule="evenodd">
        <path d="M12,0 C5.372583,0 0,5.372583 0,12 C0,18.627417 5.372583,24 12,24 C18.627417,24 24,18.627417 24,12 C24,5.372583 18.627417,0 12,0 Z M18.6644053,9.06355405 L11.2206046,16.6493663 C10.7965071,17.0820677 10.1236061,17.1187431 9.6572862,16.7345724 L6.55470043,14.2117311 C6.19068657,13.9785226 5.9788571,13.5605944 6.00167357,13.1206385 C6.02449004,12.6806827 6.27834701,12.2882208 6.66442233,12.0960316 C7.05049765,11.9038424 7.50778392,11.9422955 7.85826747,12.1964217 C7.91335897,12.2334438 7.96562109,12.2747258 8.01459931,12.3199088 L10.3054621,14.1660408 L16.9952623,7.34214394 C17.4589022,6.880789 18.1972513,6.88675141 18.653768,7.3555369 C19.1102847,7.8243224 19.1160911,8.58251446 18.6668105,9.05861457 L18.6644053,9.06355405 Z" id="Shape" fill="#001E62" fill-rule="nonzero"></path>
    </g>
</svg>