<?xml version="1.0" encoding="UTF-8"?>
<svg width="24px" height="24px" viewBox="0 0 24 24" version="1.1" xmlns="http://www.w3.org/2000/svg" xmlns:xlink="http://www.w3.org/1999/xlink">
    <!-- Generator: Sketch 63.1 (92452) - https://sketch.com -->
    <title>atom/icon/download</title>
    <desc>Created with Sketch.</desc>
    <g id="atom/icon/download" stroke="none" stroke-width="1" fill="none" fill-rule="evenodd">
        <path d="M22.8740554,17 C23.1838791,17 23.4710327,17.117357 23.675063,17.3037475 C23.8715365,17.4970414 24,17.7593688 24,18.0424063 L24,22.8954635 C24,22.9598948 23.993283,23.0212579 23.9820879,23.0795529 L23.9622166,23.1646943 L23.9622166,23.1646943 C23.8564232,23.6410256 23.395466,24 22.8513854,24 L1.14105793,24 C0.559193955,24 0.0755667506,23.5927022 0.0151133501,23.0749507 C0.00503778338,23.0335306 0.00167926113,22.9951786 0.000559753708,22.9537585 L0,18.035503 C0,17.4625247 0.513853904,17 1.13350126,17 C1.44332494,17 1.73047859,17.117357 1.93450882,17.3037475 C2.13853904,17.4901381 2.26700252,17.7524655 2.26700252,18.035503 L2.26700252,21.9220907 L21.7405542,21.9220907 L21.7405542,18.035503 C21.7405542,17.4625247 22.2544081,17 22.8740554,17 Z M12.0100092,0 C12.3769453,0 12.7133034,0.150313152 12.9579275,0.383298539 C13.2025516,0.623799582 13.3477972,0.94697286 13.3477972,1.31524008 L13.3477972,13.5131524 L16.734312,10.1837161 C17.2541381,9.67265136 18.102678,9.67265136 18.6301487,10.1837161 C19.1270414,10.7022965 19.1270414,11.5365344 18.6072152,12.0475992 L12.9732165,17.5866388 C12.965572,17.6016701 12.950283,17.6091858 12.9426385,17.6167015 C12.7362369,17.8196242 12.4686793,17.9473904 12.2011217,17.9849687 C12.1781882,17.9849687 12.1552547,17.9924843 12.1323212,17.9924843 L12.0635207,17.9990605 L12.0635207,17.9990605 L11.9947202,18 L11.8647636,17.9924843 C11.8418301,17.9924843 11.8188966,17.9849687 11.7959631,17.9849687 C11.520761,17.9473904 11.2608479,17.8196242 11.0544463,17.6167015 C11.0468018,17.6091858 11.0315128,17.5941545 11.0238683,17.5866388 L5.38986965,12.0475992 C5.12995655,11.7920668 5,11.4538622 5,11.1156576 C5,10.777453 5.12995655,10.4392484 5.38986965,10.1837161 C5.90969585,9.67265136 6.75823567,9.67265136 7.28570637,10.1837161 L10.6722212,13.5131524 L10.6722212,1.31524008 C10.6722212,0.593736952 11.2761369,0 12.0100092,0 Z" id="Combined-Shape" fill="#001E62" fill-rule="nonzero"></path>
    </g>
</svg>