<?xml version="1.0" encoding="UTF-8"?>
<svg width="24px" height="24px" viewBox="0 0 24 24" version="1.1" xmlns="http://www.w3.org/2000/svg" xmlns:xlink="http://www.w3.org/1999/xlink">
    <!-- Generator: Sketch 63.1 (92452) - https://sketch.com -->
    <title>atom/icon/edit</title>
    <desc>Created with Sketch.</desc>
    <g id="atom/icon/edit" stroke="none" stroke-width="1" fill="none" fill-rule="evenodd">
        <path d="M2.66666667,21.3328888 L2.66666667,18.6924487 C2.68,18.6124354 2.74666667,18.4524087 2.74666667,18.4257376 L15.0266667,6.14369062 L18.0266667,8.78413069 L5.61333333,21.2128688 C5.54666667,21.266211 5.4,21.3195533 5.37333333,21.3328888 L2.66666667,21.3328888 Z M18.7866667,0 C17.9333333,0 17.08,0.322720453 16.4266667,0.969494916 L0.866666667,16.5454242 C0.373333333,17.0388398 0,17.9456576 0,18.637773 L0,22.6664444 C0,23.3999 0.6,24 1.33333333,24 L5.37333333,24 C6.08,24 6.96,23.6266044 7.45333333,23.1331889 L21.9333333,8.66411069 L23.0266667,7.5705951 C24.32,6.26371062 24.32,4.15669278 23.0266667,2.8498083 L21.1466667,0.969494916 C20.4933333,0.322720453 19.64,0 18.7866667,0 L18.7866667,0 Z M22.6666667,21.3368895 L13.3333333,21.3368895 L10.3733333,24 L22.6666667,24 C23.4,24 24,23.3999 24,22.6664444 C24,21.9329888 23.4,21.3368895 22.6666667,21.3368895 L22.6666667,21.3368895 Z" id="Fill-1" fill="#001E62" fill-rule="nonzero"></path>
    </g>
</svg>