<?xml version="1.0" encoding="UTF-8"?>
<svg width="24px" height="24px" viewBox="0 0 24 24" version="1.1" xmlns="http://www.w3.org/2000/svg" xmlns:xlink="http://www.w3.org/1999/xlink">
    <!-- Generator: Sketch 64 (93537) - https://sketch.com -->
    <title>atom/icon/email-notification</title>
    <desc>Created with Sketch.</desc>
    <g id="atom/icon/email-notification" stroke="none" stroke-width="1" fill="none" fill-rule="evenodd">
        <g id="atom/icon/pending" transform="translate(11.000000, 10.000000)" fill="#001E62" fill-rule="nonzero">
            <path d="M6.5,0 C8.22390718,0 9.87720762,0.632141042 11.0961941,1.75735931 C12.3151805,2.88257758 13,4.40870106 13,6 C13,9.3137085 10.0898509,12 6.5,12 C2.91014913,12 0,9.3137085 0,6 C0,2.6862915 2.91014913,0 6.5,0 Z M6.5,1.2 C3.6281193,1.2 1.3,3.3490332 1.3,6 C1.3,8.6509668 3.6281193,10.8 6.5,10.8 C7.87912575,10.8 9.20176609,10.2942872 10.1769553,9.39411255 C11.1521444,8.49393793 11.7,7.27303915 11.7,6 C11.7,3.3490332 9.3718807,1.2 6.5,1.2 Z M6.39688904,2.5 C6.75298989,2.5 7.04166667,2.76775034 7.04166667,3.09803712 L7.04166667,3.09803712 L7.04166667,6.08822269 C7.03924421,6.24596651 6.96971868,6.39643281 6.84823338,6.50684867 L6.84823338,6.50684867 L4.91390048,8.30096002 C4.89224267,8.32447034 4.86851948,8.34627379 4.84297495,8.36614607 C4.57157657,8.57061444 4.17392908,8.53719091 3.94658186,8.29080139 C3.71923465,8.04441187 3.74504474,7.67485339 4.00476403,7.45772769 L4.00476403,7.45772769 L5.7521114,5.84302748 L5.7521114,3.09803712 C5.7521114,2.76775034 6.04078818,2.5 6.39688904,2.5 Z" id="Combined-Shape"></path>
        </g>
        <path d="M0.292186863,4.43216166 L8.15316462,11.7641242 L8.29871492,11.8891454 C9.44568584,12.8215985 11.034857,12.9179964 12.2731202,12.1797674 L12.4475422,12.0686286 L13.0766468,12.5697105 C12.3980243,13.5418928 12,14.7244646 12,16 C12,16.7015272 12.1203964,17.3749342 12.3416539,18.0006859 L2.625,18 C2.23929795,18 1.87302505,17.9161149 1.54314365,17.7654497 L8.66820544,12.3513554 L7.15383653,10.9411765 L0.302910497,16.5885103 C0.141743808,16.2811439 0.0388337555,15.9379241 0.00900725716,15.5738027 L0,15.3529412 L0,5.64705882 C0,5.20911331 0.105467357,4.79600803 0.292186863,4.43216166 Z M20.739887,4.49681725 C20.8787854,4.78667829 20.9668205,5.1059614 20.9923072,5.4428833 L21,5.64705882 L21.000963,10.8032504 C20.1182253,10.2923955 19.093259,10 18,10 C16.6969764,10 15.4909663,10.4153642 14.5071523,11.1209102 L13.9972975,10.6946471 L20.739887,4.49681725 Z M18.375,3 C18.7058149,3 19.0223368,3.06170932 19.3138634,3.17433551 L11.6685845,10.4478164 L11.5477553,10.548736 C10.9297227,11.0197913 10.0747129,11.0234198 9.45292394,10.5587746 L9.32342452,10.45204 L1.49403441,3.25760156 C1.77943859,3.11998831 2.09334763,3.0328405 2.42440132,3.00761383 L2.625,3 L18.375,3 Z" id="Combined-Shape" fill="#001E62" fill-rule="nonzero"></path>
    </g>
</svg>