<?xml version="1.0" encoding="UTF-8"?>
<svg width="24px" height="24px" viewBox="0 0 24 24" version="1.1" xmlns="http://www.w3.org/2000/svg" xmlns:xlink="http://www.w3.org/1999/xlink">
    <!-- Generator: Sketch 64 (93537) - https://sketch.com -->
    <title>atom/icon/email</title>
    <desc>Created with Sketch.</desc>
    <g id="atom/icon/email" stroke="none" stroke-width="1" fill="none" fill-rule="evenodd">
        <path d="M0.333400395,4.62413626 L9.31790242,12.9326741 L9.48424562,13.0743648 C10.857469,14.1814512 12.785324,14.2486502 14.2256973,13.277823 L14.2256973,13.277823 L22.3375719,19.6860496 C21.9348665,19.8869733 21.4806326,20 21,20 L21,20 L3,20 C2.55931414,20 2.14082128,19.9049805 1.76389162,19.7343117 L9.90652051,13.5982028 L8.17581318,12 L0.346485385,18.4008826 C0.125268814,17.9827272 0,17.5059927 0,17 L0,17 L0,6 C0,5.50407084 0.120335516,5.03624754 0.333400395,4.62413626 Z M23.7027404,4.6964185 C23.8932218,5.09062307 24,5.53284185 24,6 L24,6 L24,17 C24,17.4157708 23.915421,17.811787 23.7625301,18.1717818 L15.99634,11.721 Z M21,3 C21.3777992,3 21.7392874,3.06983555 22.0722599,3.19730187 L13.3355251,11.4408586 L13.1974346,11.5552341 C12.44066,12.1272299 11.3729823,12.0910938 10.6553423,11.4456454 L10.6553423,11.4456454 L1.70727122,3.29204249 C2.09873251,3.10482952 2.53712413,3 3,3 L3,3 Z" id="Combined-Shape" fill="#001E62" fill-rule="nonzero"></path>
    </g>
</svg>