<?xml version="1.0" encoding="UTF-8"?>
<svg width="24px" height="24px" viewBox="0 0 24 24" version="1.1" xmlns="http://www.w3.org/2000/svg" xmlns:xlink="http://www.w3.org/1999/xlink">
    <!-- Generator: Sketch 64 (93537) - https://sketch.com -->
    <title>atom/icon/eye-off</title>
    <desc>Created with Sketch.</desc>
    <g id="atom/icon/eye-off" stroke="none" stroke-width="1" fill="none" fill-rule="evenodd">
        <path d="M24,12.0198449 C22.9384061,13.6410998 21.8239227,15.0205804 20.6679816,16.1534551 L23.4739708,17.9335285 C23.7301901,18.0830452 23.9128531,18.3394462 23.9759589,18.638161 C24.0390648,18.9368757 23.9765995,19.2494365 23.8042939,19.49713 C23.5729621,19.8184105 23.2081402,20.0052411 22.8225643,20 C22.5940562,20.0011119 22.3697214,19.9361486 22.1746227,19.8122558 L22.1746227,19.8122558 L18.8535797,17.7047006 C12.9761956,22.0209816 6.23893899,20.3173794 -4.81385765e-14,12.0198449 C1.17708172,10.4467403 2.37190116,9.1094493 3.57533721,8.00411683 L0.52575093,6.06940132 C0.269431034,5.91994788 0.0867601002,5.66343229 0.0238523474,5.3646104 C-0.0390554054,5.06578852 0.0238115247,4.75321594 0.196582746,4.5057998 C0.581058431,3.98167527 1.28379494,3.84507643 1.82394405,4.18947119 L1.82394405,4.18947119 L5.43646676,6.48313271 C11.9927468,1.77994351 18.6643941,3.82999709 24,12.0198449 Z M7.27675881,10.3552517 C7.09472804,10.8780045 6.99707569,11.4400655 7,12.0249892 C7.01388567,14.7766448 9.24837986,17 12,17 C13.3608285,17 14.5951757,16.4562007 15.496987,15.5736373 Z M12.0502289,7 L11.9497711,7 C10.6059896,7.01350036 9.39087386,7.55604877 8.50086792,8.42820575 L16.7220326,13.6479621 C16.899467,13.1394906 16.997131,12.5935162 17,12.0249892 C17.0137568,9.27333365 14.8017102,7.02764287 12.0502289,7 L12.0502289,7 Z" id="Combined-Shape" fill="#001E62" fill-rule="nonzero"></path>
    </g>
</svg>