<?xml version="1.0" encoding="UTF-8"?>
<svg width="24px" height="24px" viewBox="0 0 24 24" version="1.1" xmlns="http://www.w3.org/2000/svg" xmlns:xlink="http://www.w3.org/1999/xlink">
    <!-- Generator: Sketch 64 (93537) - https://sketch.com -->
    <title>atom/icon/fullscreen</title>
    <desc>Created with Sketch.</desc>
    <g id="atom/icon/fullscreen" stroke="none" stroke-width="1" fill="none" fill-rule="evenodd">
        <path d="M9.11464677,12.9631579 C9.64544636,12.4323583 10.5060425,12.4323583 11.0368421,12.9631579 C11.5687795,13.4950953 11.5687795,14.3575363 11.0368421,14.8894737 L11.0368421,14.8894737 L4.64210526,21.2842105 L7.48421053,21.2842105 C8.23415508,21.2842105 8.84210526,21.8921607 8.84210526,22.6421053 C8.84210526,23.3920498 8.23415508,24 7.48421053,24 L7.48421053,24 L1.35789474,24 C0.607950182,24 0,23.3920498 0,22.6421053 L0,22.6421053 L0,16.5473684 C3.5224749e-16,15.7974239 0.607950182,15.1894737 1.35789474,15.1894737 C2.10783929,15.1894737 2.71578947,15.7974239 2.71578947,16.5473684 L2.71578947,16.5473684 L2.71578947,19.3894737 L9.11259096,12.9652181 L9.11259096,12.9652181 Z M22.6421053,0 C23.3920498,0 24,0.607950182 24,1.35789474 L24,1.35789474 L24,7.45263158 C24,8.20257613 23.3920498,8.81052632 22.6421053,8.81052632 C21.8921607,8.81052632 21.2842105,8.20257613 21.2842105,7.45263158 L21.2842105,7.45263158 L21.2842105,4.61052632 L14.887409,11.0347819 L14.887409,11.0347819 C14.3545536,11.5676417 13.4939575,11.5676417 12.9631579,11.0368421 C12.4312205,10.5049047 12.4312205,9.64246373 12.9631579,9.11052632 L12.9631579,9.11052632 L19.3578947,2.71578947 L16.5157895,2.71578947 C15.7658449,2.71578947 15.1578947,2.10783929 15.1578947,1.35789474 C15.1578947,0.607950182 15.7658449,1.37811825e-16 16.5157895,0 L16.5157895,0 Z" id="Combined-Shape" fill="#001E62" fill-rule="nonzero"></path>
    </g>
</svg>