<?xml version="1.0" encoding="UTF-8"?>
<svg width="16px" height="16px" viewBox="0 0 16 16" version="1.1" xmlns="http://www.w3.org/2000/svg" xmlns:xlink="http://www.w3.org/1999/xlink">
    <!-- Generator: Sketch 63.1 (92452) - https://sketch.com -->
    <title>atom/icon/goto</title>
    <desc>Created with Sketch.</desc>
    <g id="atom/icon/goto" stroke="none" stroke-width="1" fill="none" fill-rule="evenodd">
        <g id="Group-6" transform="translate(0.000000, 4.000000)" fill="#001E62">
            <path d="M5.6848,7.34656 L0.945035294,7.34656 C0.422682353,7.34656 9.41176472e-05,6.86762667 9.41176472e-05,6.27562667 L9.41176472e-05,1.72416 C9.41176472e-05,1.13322667 0.422682353,0.653226667 0.945035294,0.653226667 L5.6848,0.653226667 C6.20715294,0.653226667 6.62974118,1.13322667 6.62974118,1.72416 L6.62974118,6.27562667 C6.62974118,6.86762667 6.20715294,7.34656 5.6848,7.34656" id="Fill-4"></path>
        </g>
        <path d="M11.7808688,3.97608601 L17.700244,11.375305 C18.0452535,11.8065669 17.9753321,12.4358593 17.5440702,12.7808688 C17.3667572,12.9227192 17.1464466,13 16.9193752,13 L5.08062485,13 C4.5283401,13 4.08062485,12.5522847 4.08062485,12 C4.08062485,11.7729285 4.1579056,11.552618 4.29975604,11.375305 L10.2191312,3.97608601 C10.5641407,3.54482408 11.1934331,3.4749027 11.624695,3.81991225 C11.6823598,3.86604401 11.734737,3.91842131 11.7808688,3.97608601 Z" id="Triangle" fill="#001E62" transform="translate(11.000000, 8.000000) rotate(-270.000000) translate(-11.000000, -8.000000) "></path>
    </g>
</svg>