<?xml version="1.0" encoding="UTF-8"?>
<svg width="24px" height="24px" viewBox="0 0 24 24" version="1.1" xmlns="http://www.w3.org/2000/svg" xmlns:xlink="http://www.w3.org/1999/xlink">
    <!-- Generator: Sketch 63.1 (92452) - https://sketch.com -->
    <title>atom/icon/help-small</title>
    <desc>Created with Sketch.</desc>
    <g id="atom/icon/help-small" stroke="none" stroke-width="1" fill="none" fill-rule="evenodd">
        <circle id="Oval" stroke="#001E62" stroke-width="2" fill-rule="nonzero" cx="12" cy="12" r="11"></circle>
        <path d="M12.6171875,14.65625 C12.6276042,13.90625 12.8046875,13.3359375 13.1484375,12.9453125 L13.1484375,12.9453125 L14.109375,12 C14.9010417,11.1770833 15.296875,10.3411458 15.296875,9.4921875 C15.296875,8.5390625 15.0039062,7.796875 14.4179688,7.265625 C13.8320312,6.734375 13.015625,6.46875 11.96875,6.46875 C10.953125,6.46875 10.1367188,6.73697917 9.51953125,7.2734375 C8.90234375,7.80989583 8.58854167,8.5390625 8.578125,9.4609375 L8.578125,9.4609375 L10.4765625,9.4609375 C10.4765625,9.02864583 10.6132812,8.68619792 10.8867188,8.43359375 C11.1601562,8.18098958 11.5208333,8.0546875 11.96875,8.0546875 C12.4375,8.0546875 12.7929688,8.18359375 13.0351562,8.44140625 C13.2773438,8.69921875 13.3984375,9.07291667 13.3984375,9.5625 C13.3984375,9.93229167 13.2942708,10.2760417 13.0859375,10.59375 C12.9505208,10.8020833 12.6289062,11.1523438 12.1210938,11.6445312 C11.6132812,12.1367188 11.2734375,12.5885417 11.1015625,13 C10.9296875,13.4114583 10.84375,13.9635417 10.84375,14.65625 L10.84375,14.65625 L12.6171875,14.65625 Z M11.78125,18.09375 C12.125,18.09375 12.390625,17.9973958 12.578125,17.8046875 C12.765625,17.6119792 12.859375,17.3723958 12.859375,17.0859375 C12.859375,16.7890625 12.7630208,16.5429688 12.5703125,16.3476562 C12.3776042,16.1523438 12.1145833,16.0546875 11.78125,16.0546875 C11.453125,16.0546875 11.1927083,16.1497396 11,16.3398438 C10.8072917,16.5299479 10.7109375,16.7786458 10.7109375,17.0859375 C10.7109375,17.3723958 10.8033854,17.6119792 10.9882812,17.8046875 C11.1731771,17.9973958 11.4375,18.09375 11.78125,18.09375 Z" id="?" fill="#001E62" fill-rule="nonzero"></path>
    </g>
</svg>