<?xml version="1.0" encoding="UTF-8"?>
<svg width="24px" height="24px" viewBox="0 0 24 24" version="1.1" xmlns="http://www.w3.org/2000/svg" xmlns:xlink="http://www.w3.org/1999/xlink">
    <!-- Generator: Sketch 63.1 (92452) - https://sketch.com -->
    <title>atom/icon/history</title>
    <desc>Created with Sketch.</desc>
    <g id="atom/icon/history" stroke="none" stroke-width="1" fill="none" fill-rule="evenodd">
        <path d="M13.5022712,1 C19.3794943,1.33017658 23.980328,6.13601496 24,11.9654223 C24.0195462,17.7948296 19.451146,22.6309148 13.5762748,23 L13.5762748,23 L13.5054428,23 C9.02177795,23.0224018 4.97123655,20.3528486 3.26124337,16.2483076 C3.25490021,16.2336508 3.24855706,16.2200409 3.24327109,16.2053841 C3.05534734,15.738782 3.28488318,15.2096554 3.75600966,15.0234178 C4.24317432,14.8268349 4.80050541,15.0420808 5.02464117,15.5133737 C6.43503515,18.9152245 9.78881202,21.1293377 13.5022712,21.1101779 L13.5022712,21.1101779 L13.5731032,21.1101779 C18.434972,20.7955695 22.2103841,16.7891618 22.191633,11.9643303 C22.1728819,7.13949867 18.3664414,3.16198673 13.5022712,2.88444584 L13.5022712,2.88444584 L13.396552,2.88444584 C9.19929187,2.92482072 5.56368294,5.77779323 4.56476225,9.8150189 L4.56476225,9.8150189 L6.08606287,8.66131927 C6.35574169,8.43461076 6.72964823,8.3735555 7.05855121,8.50252152 C7.38745419,8.63148753 7.6177985,8.92947533 7.65765055,9.27755387 C7.69750259,9.62563241 7.54037328,9.96712422 7.24897509,10.1657352 L7.24897509,10.1657352 L3.89450194,12.6783297 C3.71350473,12.7882351 3.50628036,12.8485696 3.29401635,12.8531644 L3.29401635,12.8531644 L3.1523525,12.8531644 C2.88780827,12.8158426 2.65457362,12.6618646 2.51803675,12.4343986 L2.51803675,12.4343986 L0.150981783,9.0057541 C-0.131403205,8.55952295 -0.0066769551,7.97202382 0.433252295,7.67617286 L0.433252295,7.67617286 L0.479768783,7.64685926 C0.689016966,7.52264683 0.939562899,7.48595409 1.17615994,7.54487195 C1.41275699,7.60378982 1.61597376,7.75347947 1.74099994,7.96093357 L1.74099994,7.96093357 L2.69247358,9.36065806 C3.91721747,4.48229211 8.32051361,1.0429999 13.396552,1 L13.396552,1 Z M12.5800074,5.13723782 C12.8728442,4.95425406 13.2336339,4.95425406 13.5264707,5.13723782 C13.8193075,5.32022157 13.9997023,5.65838949 13.9997023,6.02435699 L13.9997023,6.02435699 L13.9997023,12.9103119 C14.0109384,13.3978961 13.7029759,13.8264347 13.2635642,13.9346688 L13.2635642,13.9346688 L9.18746234,15 L8.94138188,15 C8.50780411,14.9814612 8.13658695,14.6578274 8.027519,14.2032779 L8.027519,14.2032779 L8.02541575,14.2010016 L8.02541575,14.1793763 C7.96745251,13.914143 8.00954234,13.6348446 8.14237061,13.4032906 C8.27519889,13.1717366 8.4878127,13.0070208 8.73315996,12.9455953 L8.73315996,12.9455953 L12.1067758,12.1090371 L12.1067758,6.02435699 C12.1067757,5.65838949 12.2871706,5.32022157 12.5800074,5.13723782 Z" id="Combined-Shape" fill="#001E62" fill-rule="nonzero"></path>
    </g>
</svg>