<?xml version="1.0" encoding="UTF-8"?>
<svg width="24px" height="24px" viewBox="0 0 24 24" version="1.1" xmlns="http://www.w3.org/2000/svg" xmlns:xlink="http://www.w3.org/1999/xlink">
    <!-- Generator: Sketch 63.1 (92452) - https://sketch.com -->
    <title>atom/icon/info</title>
    <desc>Created with Sketch.</desc>
    <g id="atom/icon/info" stroke="none" stroke-width="1" fill="none" fill-rule="evenodd">
        <path d="M12,0 C18.627417,0 24,5.372583 24,12 C24,18.627417 18.627417,24 12,24 C5.372583,24 0,18.627417 0,12 C0,5.372583 5.372583,0 12,0 Z M12,2 C6.4771525,2 2,6.4771525 2,12 C2,17.5228475 6.4771525,22 12,22 C17.5228475,22 22,17.5228475 22,12 C22,6.4771525 17.5228475,2 12,2 Z M12.8898926,10.0751953 L12.8898926,18 L11.1101074,18 L11.1101074,10.0751953 L12.8898926,10.0751953 Z M12.0036621,7.06494141 C12.3259277,7.06494141 12.5749512,7.15527344 12.7507324,7.3359375 C12.9265137,7.51660156 13.0144043,7.74365234 13.0144043,8.01708984 C13.0144043,8.28564453 12.9265137,8.5090332 12.7507324,8.68725586 C12.5749512,8.86547852 12.3259277,8.95458984 12.0036621,8.95458984 C11.6813965,8.95458984 11.4335938,8.86547852 11.2602539,8.68725586 C11.0869141,8.5090332 11.0002441,8.28564453 11.0002441,8.01708984 C11.0002441,7.74365234 11.0869141,7.51660156 11.2602539,7.3359375 C11.4335938,7.15527344 11.6813965,7.06494141 12.0036621,7.06494141 Z" id="Combined-Shape" fill="#001E62" fill-rule="nonzero"></path>
    </g>
</svg>