<?xml version="1.0" encoding="UTF-8"?>
<svg width="111px" height="111px" viewBox="0 0 111 111" version="1.1" xmlns="http://www.w3.org/2000/svg" xmlns:xlink="http://www.w3.org/1999/xlink">
    <!-- Generator: Sketch 63.1 (92452) - https://sketch.com -->
    <title>atom/icon/loading</title>
    <desc>Created with Sketch.</desc>
    <g id="atom/icon/loading" stroke="none" stroke-width="1" fill="none" fill-rule="evenodd">
        <path d="M55.5,91 C57.4301953,91 59,92.4950521 59,94.3333333 L59,94.3333333 L59,107.666667 C59,109.505208 57.4301953,111 55.5,111 C53.5700781,111 52,109.505208 52,107.666667 L52,107.666667 L52,94.3333333 C52,92.4950521 53.5700781,91 55.5,91 Z M83.3128806,80 C84.1979035,80 85.0301047,80.344562 85.6561975,80.9702618 L85.6561975,80.9702618 L95.0307601,90.3428146 C96.32308,91.6348575 96.32308,93.7369187 95.0307601,95.0292205 C94.4046672,95.6551791 93.572466,96 92.6871842,96 C91.8024202,96 90.9697011,95.6551791 90.3438672,95.0294793 L90.3438672,95.0294793 L80.9690457,85.6566676 C79.6769848,84.3643659 79.6769848,82.2625635 80.9690457,80.9702618 C81.5956564,80.344562 82.4275987,80 83.3128806,80 Z M27.6873035,80 C28.5723551,80 29.4045832,80.344562 30.0306963,80.9702618 C31.3230581,82.2623046 31.3230581,84.3646248 30.0309553,85.6566676 L30.0309553,85.6566676 L20.6563482,95.0292205 C20.0302351,95.6551791 19.197748,96 18.3126965,96 C17.4276449,96 16.5954168,95.6551791 15.9693037,95.0294793 C14.6769419,93.7366599 14.6769419,91.6345986 15.9690447,90.3428146 L15.9690447,90.3428146 L25.3436518,80.9702618 C25.9697649,80.344562 26.801993,80 27.6873035,80 Z M107.666667,52 C109.504948,52 111,53.5700781 111,55.5 C111,57.4301953 109.505208,59 107.666667,59 L107.666667,59 L94.3333333,59 C92.4950521,59 91,57.4301953 91,55.5 C91,53.5700781 92.4950521,52 94.3333333,52 L94.3333333,52 Z M16.6666667,52 C18.5046875,52 20,53.5700781 20,55.5 C20,57.4301953 18.5046875,59 16.6666667,59 L16.6666667,59 L3.33333333,59 C1.4953125,59 0,57.4301953 0,55.5 C0,53.5700781 1.4953125,52 3.33333333,52 L3.33333333,52 Z M92.6876764,15 C93.5726975,15 94.404897,15.3450853 95.0309886,15.9707952 C96.323047,17.262859 96.323047,19.3649543 95.0307297,20.657018 L95.0307297,20.657018 L85.656445,30.0294636 C85.0300945,30.6554324 84.1981539,31 83.3128739,31 C82.4275938,31 81.5953943,30.6551735 80.9690438,30.0292048 C79.6769854,28.737141 79.6769854,26.6350457 80.9690438,25.342982 L80.9690438,25.342982 L90.3435873,15.9705364 C90.9699379,15.3443087 91.8026552,15 92.6876764,15 Z M18.3127154,15 C19.1977634,15 20.0302471,15.3445676 20.6560988,15.9702775 L20.6560988,15.9702775 L30.0309268,25.342982 C31.3230244,26.6350457 31.3230244,28.7373999 30.0309268,30.0292048 C29.4050752,30.6554324 28.5725915,31 27.6872846,31 C26.8019776,31 25.9694939,30.6551735 25.3436423,30.0294636 L25.3436423,30.0294636 L15.9690732,20.6567592 C14.6769756,19.3646954 14.6769756,17.2623412 15.9690732,15.9705364 C16.5951838,15.3445676 17.4276675,15 18.3127154,15 Z M55.5,0 C57.4301953,0 59,1.49505208 59,3.33333333 L59,3.33333333 L59,16.6666667 C59,18.5052083 57.4301953,20 55.5,20 C53.5700781,20 52,18.5052083 52,16.6666667 L52,16.6666667 L52,3.33333333 C52,1.49505208 53.5700781,0 55.5,0 Z" id="Combined-Shape" fill="#001E62" fill-rule="nonzero"></path>
    </g>
</svg>