<?xml version="1.0" encoding="UTF-8"?>
<svg width="64px" height="26px" viewBox="0 0 64 26" version="1.1" xmlns="http://www.w3.org/2000/svg" xmlns:xlink="http://www.w3.org/1999/xlink">
    <!-- Generator: Sketch 63.1 (92452) - https://sketch.com -->
    <title>atom/icon/lying</title>
    <desc>Created with Sketch.</desc>
    <g id="atom/icon/lying" stroke="none" stroke-width="1" fill="none" fill-rule="evenodd">
        <path d="M13.5116501,10.9935673 C14.6445592,9.0865908 17.051989,8.45093323 18.9637728,9.51036345 L18.9637728,9.51036345 L30.7885101,16.2907203 L44.2418006,11.9823698 C44.8082542,11.7704811 45.4455155,11.7704811 46.0827767,11.8411107 C46.5076226,11.8411107 46.9324609,11.9117403 47.3572993,12.1236252 L47.3572993,12.1236252 L61.5894663,18.2683235 C63.6428691,19.1158688 64.5633572,21.446616 63.6428691,23.6361079 C62.7931774,25.613713 60.3857551,26.531886 58.4031637,25.6843407 L58.4031637,25.6843407 L45.3747116,20.0340455 L32.2754518,24.2011387 C31.5673866,24.5542828 30.7177024,24.7661677 29.868022,24.6249104 C28.9475302,24.5542828 28.0978535,24.1305092 27.4605884,23.5654802 L27.4605884,23.5654802 L14.9985937,16.4319775 C13.0868099,15.3019177 12.4495486,12.9005428 13.5116501,10.9935673 Z M5.87962049,0.0127267626 C8.84758271,0.219921386 11.1943439,2.7753215 10.9872762,5.81417537 C10.7802084,8.85302924 8.15735807,11.1321696 5.18939676,10.994041 C2.15241249,10.7868458 -0.194348294,8.23144624 0.0127189441,5.19259192 C0.219786081,2.15373759 2.77361394,-0.194467851 5.87962049,0.0127267626 Z" id="Combined-Shape" fill="#001E62" fill-rule="nonzero"></path>
    </g>
</svg>