<?xml version="1.0" encoding="UTF-8"?>
<svg width="32px" height="32px" viewBox="0 0 32 32" version="1.1" xmlns="http://www.w3.org/2000/svg" xmlns:xlink="http://www.w3.org/1999/xlink">
    <!-- Generator: Sketch 64 (93537) - https://sketch.com -->
    <title>atom/icon/menu-settings</title>
    <desc>Created with Sketch.</desc>
    <g id="atom/icon/menu-settings" stroke="none" stroke-width="1" fill="none" fill-rule="evenodd">
        <path d="M3.43470299,7.58695318 L15.999306,20.083 L28.565297,7.58695318 C29.3522125,6.80434894 30.6234881,6.80434894 31.4104036,7.58695318 C32.1917537,8.3640226 32.1952239,9.62737128 31.4181545,10.4087214 C31.415578,10.4113122 31.4129943,10.4138959 31.4104036,10.4164724 L17.9159397,23.837643 C17.820681,24.0439656 17.6882893,24.2373993 17.518737,24.4078856 L17.5109861,24.4156365 L17.5109861,24.4156365 C17.0950304,24.8293133 16.543741,25.0243247 16.0001899,25.0006706 C15.456259,25.0243247 14.9049696,24.8293133 14.4890139,24.4156365 C14.3160766,24.2436466 14.1812457,24.047835 14.0845501,23.8387003 L0.589596438,10.4164724 C-0.19175372,9.63940299 -0.195223944,8.37605431 0.581845474,7.59470415 L0.589596438,7.58695318 L0.589596438,7.58695318 C1.37651191,6.80434894 2.64778751,6.80434894 3.43470299,7.58695318 Z" id="Combined-Shape" fill="#001E62" fill-rule="nonzero"></path>
    </g>
</svg>