<?xml version="1.0" encoding="UTF-8"?>
<svg width="20px" height="20px" viewBox="0 0 20 20" version="1.1" xmlns="http://www.w3.org/2000/svg" xmlns:xlink="http://www.w3.org/1999/xlink">
    <!-- Generator: Sketch 63.1 (92452) - https://sketch.com -->
    <title>atom/icon/more</title>
    <desc>Created with Sketch.</desc>
    <g id="atom/icon/more" stroke="none" stroke-width="1" fill="none" fill-rule="evenodd">
        <path d="M10,0 C10.7796961,0 11.4204487,0.594888083 11.4931334,1.35553999 L11.5,1.5 L11.5,8.5 L18.5,8.5 C19.3284271,8.5 20,9.17157288 20,10 C20,10.7796961 19.4051119,11.4204487 18.64446,11.4931334 L18.5,11.5 L11.5,11.5 L11.5,18.5 C11.5,19.3284271 10.8284271,20 10,20 C9.22030388,20 8.57955132,19.4051119 8.50686658,18.64446 L8.5,18.5 L8.5,11.499 L1.5,11.5 C0.671572875,11.5 0,10.8284271 0,10 C0,9.22030388 0.594888083,8.57955132 1.35553999,8.50686658 L1.5,8.5 L8.5,8.499 L8.5,1.5 C8.5,0.671572875 9.17157288,0 10,0 Z" id="Combined-Shape" fill="#001E62" fill-rule="nonzero"></path>
    </g>
</svg>