<?xml version="1.0" encoding="UTF-8"?>
<svg width="24px" height="24px" viewBox="0 0 24 24" version="1.1" xmlns="http://www.w3.org/2000/svg" xmlns:xlink="http://www.w3.org/1999/xlink">
    <!-- Generator: Sketch 64 (93537) - https://sketch.com -->
    <title>atom/icon/notification</title>
    <desc>Created with Sketch.</desc>
    <g id="atom/icon/notification" stroke="none" stroke-width="1" fill="none" fill-rule="evenodd">
        <path d="M16,19 C15.3957447,20.79 13.7976359,21.988 12,22 C10.2033097,21.988 8.60425532,20.79 8,19 L8,19 Z M12.0000866,2 C15.9490331,2 19.1513842,4.98466667 19.1513842,8.66666667 L19.1513842,8.66666667 L19.1513842,13.3733333 C19.1520993,13.6453333 19.2422057,13.9106667 19.4088309,14.1333333 L19.4088309,14.1333333 L20.6317028,15.7733333 C20.8676956,16.0173333 20.9992795,16.3346667 21,16.6633333 C21.00214,17.3993333 20.362814,17.998 19.5733108,18 L19.5733108,18 L4.42686252,18 C4.07358842,17.9993333 3.73390179,17.8766667 3.47144917,17.656 C2.8857579,17.1633333 2.83927446,16.32 3.36847048,15.7733333 L3.36847048,15.7733333 L4.59134237,14.1333333 C4.7579676,13.9106667 4.84807395,13.6453333 4.84878908,13.3733333 L4.84878908,13.3733333 L4.84878908,8.66666667 C4.84878908,4.98466667 8.050425,2 12.0000866,2 Z" id="Combined-Shape" fill="#001E62" fill-rule="nonzero"></path>
    </g>
</svg>