<?xml version="1.0" encoding="UTF-8"?>
<svg width="24px" height="24px" viewBox="0 0 24 24" version="1.1" xmlns="http://www.w3.org/2000/svg" xmlns:xlink="http://www.w3.org/1999/xlink">
    <!-- Generator: Sketch 64 (93537) - https://sketch.com -->
    <title>atom/icon/notification-off</title>
    <desc>Created with Sketch.</desc>
    <g id="atom/icon/notification-off" stroke="none" stroke-width="1" fill="none" fill-rule="evenodd">
        <path d="M16,19 C15.3957447,20.79 13.7976359,21.988 12,22 C10.2724132,21.9884615 8.72755186,20.8803994 8.0740912,19.2038774 L8,19 L16,19 Z M12.0000866,2 C15.8667634,2 19.0176289,4.86160098 19.1472367,8.43747034 L19.1513842,8.66666667 L19.1513842,13.3733333 C19.1519801,13.6 19.2146533,13.822037 19.3319545,14.0186111 L19.4088309,14.1333333 L19.719,14.55 L23.4739708,16.9335285 C23.6935873,17.0616857 23.8591625,17.2683701 23.9417279,17.5129193 L23.9759589,17.638161 C24.0390648,17.9368757 23.9765995,18.2494365 23.8042939,18.49713 C23.5729621,18.8184105 23.2081402,19.0052411 22.8225643,19 C22.6397578,19.0008896 22.4596223,18.959491 22.2949897,18.8794628 L22.1746227,18.8122558 L21.659,18.485 L21.6831846,18.4518401 L4.89660646,7.89152977 C4.89842062,7.8769229 4.90028543,7.86233041 4.90220071,7.84775248 L0.52575093,5.06940132 C0.269431034,4.91994788 0.0867601002,4.66343229 0.0238523474,4.3646104 C-0.0390554054,4.06578852 0.0238115247,3.75321594 0.196582746,3.5057998 C0.555426718,3.0166169 1.19151123,2.86501194 1.71388887,3.12697779 L1.82394405,3.18947119 L5.64120695,5.61331593 C6.82932103,3.46723055 9.23084307,2 12.0000866,2 Z M4.848,10.275 L16.456,18 L4.42686252,18 C4.07358842,17.9993333 3.73390179,17.8766667 3.47144917,17.656 C2.9223636,17.194125 2.84719117,16.4240469 3.27598357,15.8791519 L3.36847048,15.7733333 L4.59134237,14.1333333 C4.73019673,13.9477778 4.81591297,13.7325926 4.84104184,13.5086111 L4.84878908,13.3733333 L4.848,10.275 Z" id="Combined-Shape" fill="#001E62" fill-rule="nonzero"></path>
    </g>
</svg>