<?xml version="1.0" encoding="UTF-8"?>
<svg width="24px" height="24px" viewBox="0 0 24 24" version="1.1" xmlns="http://www.w3.org/2000/svg" xmlns:xlink="http://www.w3.org/1999/xlink">
    <!-- Generator: Sketch 63.1 (92452) - https://sketch.com -->
    <title>atom/icon/parasympathique</title>
    <desc>Created with Sketch.</desc>
    <g id="atom/icon/parasympathique" stroke="none" stroke-width="1" fill="none" fill-rule="evenodd">
        <path d="M4.99413398,5.81936702 L6.32799746,7.30960465 C4.84608349,8.6360179 4,10.4449618 4,12.375 C4,15.6328658 6.40949701,18.3964259 9.70300556,19.2084123 L9.01396067,18.5392387 C8.61742004,18.1548248 8.6075893,17.5217362 8.99200311,17.1251956 C9.34684662,16.7591581 9.91357876,16.7226248 10.3105586,17.0215221 L10.4060462,17.103238 L13.4961751,20.1041063 L13.5420521,20.1612021 L13.5988616,20.2460867 L13.6408903,20.3241224 L13.6844198,20.4294234 L13.7127406,20.5266382 L13.7287753,20.6104727 L13.7384871,20.7086474 L13.7387714,20.8018149 L13.724124,20.9346659 L13.6970864,21.0477995 L13.6447267,21.1843019 L13.601753,21.2655647 L13.5297236,21.3715193 L13.4577086,21.4543328 L13.3937403,21.5146052 L10.3262235,24.1667431 C9.90843838,24.5279551 9.27693652,24.4820934 8.91572459,24.0643084 C8.58229819,23.6786606 8.59572735,23.1109109 8.9283656,22.7417438 L9.01815935,22.6538095 L10.4933336,21.3795359 C5.71715733,20.8215967 2,17.0175441 2,12.375 C2,9.96781541 3.00772163,7.71298649 4.76121029,6.03493717 L4.99413398,5.81936702 Z M14.2749359,-0.0319597361 C14.6130402,0.349593439 14.6065354,0.917464627 14.2784237,1.29066062 L14.1897089,1.37968341 L12.3527808,3.00559172 C17.6927264,3.17511311 22,7.178075 22,12.1415782 C22,14.5759451 20.9545566,16.8538947 19.1385402,18.5449532 L18.9075447,18.7532477 L17.5920707,17.2467523 C19.1259528,15.9073642 20,14.0842857 20,12.1415782 C20,8.67232112 17.2119812,5.75085361 13.4941211,5.12420672 L14.1923986,5.81861404 C14.5841807,6.20787642 14.5862234,6.8410381 14.196961,7.23282024 C13.8376419,7.59446529 13.2705032,7.62402463 12.87723,7.3202669 L12.7827548,7.23738265 L9.62032784,4.09261138 L9.57039019,4.03165029 L9.51062045,3.94312557 L9.46669253,3.86158823 L9.4211611,3.74966686 L9.39612811,3.66253607 L9.37633731,3.55290936 L9.37024914,3.48406058 L9.37154547,3.35444578 L9.39044041,3.22157838 L9.41142896,3.13961997 L9.44169618,3.05391809 L9.49220112,2.94754807 L9.54054928,2.8685568 L9.59973076,2.78993748 L9.6593786,2.72442133 L9.70555483,2.68096824 L12.8632928,-0.117186726 C13.276642,-0.483466432 13.9086562,-0.445309009 14.2749359,-0.0319597361 Z" id="Combined-Shape" fill="#001E62" fill-rule="nonzero"></path>
    </g>
</svg>