<?xml version="1.0" encoding="UTF-8"?>
<svg width="24px" height="24px" viewBox="0 0 24 24" version="1.1" xmlns="http://www.w3.org/2000/svg" xmlns:xlink="http://www.w3.org/1999/xlink">
    <!-- Generator: Sketch 63.1 (92452) - https://sketch.com -->
    <title>atom/icon/pending</title>
    <desc>Created with Sketch.</desc>
    <g id="atom/icon/pending" stroke="none" stroke-width="1" fill="none" fill-rule="evenodd">
        <path d="M12,0 C15.1825979,0 18.2348448,1.26428208 20.4852814,3.51471863 C22.7357179,5.76515517 24,8.81740212 24,12 C24,18.627417 18.627417,24 12,24 C5.372583,24 0,18.627417 0,12 C0,5.372583 5.372583,0 12,0 Z M12,2.4 C6.6980664,2.4 2.4,6.6980664 2.4,12 C2.4,17.3019336 6.6980664,21.6 12,21.6 C14.5460783,21.6 16.9878759,20.5885743 18.7882251,18.7882251 C20.5885743,16.9878759 21.6,14.5460783 21.6,12 C21.6,6.6980664 17.3019336,2.4 12,2.4 Z M11.8096413,5 C12.4670583,5 13,5.53550067 13,6.19607423 L13,6.19607423 L13,12.1764454 C12.9955278,12.491933 12.8671729,12.7928656 12.6428924,13.0136973 L12.6428924,13.0136973 L9.07181628,16.60192 C9.03183263,16.6489407 8.98803597,16.6925476 8.94087682,16.7322921 C8.43983366,17.1412289 7.70571522,17.0743818 7.28599728,16.5816028 C6.86627935,16.0888237 6.91392876,15.3497068 7.39341051,14.9154554 L7.39341051,14.9154554 L10.6192826,11.686055 L10.6192826,6.19607423 C10.6192826,5.53550067 11.1522243,5 11.8096413,5 Z" id="Combined-Shape" fill="#001E62" fill-rule="nonzero"></path>
    </g>
</svg>