<?xml version="1.0" encoding="UTF-8"?>
<svg width="16px" height="16px" viewBox="0 0 16 16" version="1.1" xmlns="http://www.w3.org/2000/svg" xmlns:xlink="http://www.w3.org/1999/xlink">
    <!-- Generator: Sketch 64 (93537) - https://sketch.com -->
    <title>atom/icon/plus</title>
    <desc>Created with Sketch.</desc>
    <g id="atom/icon/plus" stroke="none" stroke-width="1" fill="none" fill-rule="evenodd">
        <path d="M8,-5.844214e-13 C8.72490424,-5.83533222e-13 9.32113357,0.550922812 9.39283058,1.25691103 L9.40005893,1.40005893 L9.4,6.599 L14.5999411,6.59994107 C15.3731723,6.59994107 16,7.22676881 16,8 C16,8.72490424 15.4490772,9.32113357 14.743089,9.39283058 L14.5999411,9.40005893 L9.4,9.4 L9.40005893,14.5999411 C9.40005893,15.3731723 8.77323119,16 8,16 C7.27509576,16 6.67886643,15.4490772 6.60716942,14.743089 L6.59994107,14.5999411 L6.599,9.4 L1.40005893,9.40005893 C0.626827733,9.40005893 5.59552404e-14,8.77323119 5.59552404e-14,8 C5.5067062e-14,7.27509576 0.550922812,6.67886643 1.25691103,6.60716942 L1.40005893,6.59994107 L6.599,6.599 L6.59994107,1.40005893 C6.59994107,0.626827733 7.22676881,-5.85309579e-13 8,-5.844214e-13 Z" id="Combined-Shape" fill="#FFFFFF" fill-rule="nonzero"></path>
    </g>
</svg>