<?xml version="1.0" encoding="UTF-8"?>
<svg width="24px" height="24px" viewBox="0 0 24 24" version="1.1" xmlns="http://www.w3.org/2000/svg" xmlns:xlink="http://www.w3.org/1999/xlink">
    <!-- Generator: Sketch 63.1 (92452) - https://sketch.com -->
    <title>atom/icon/radar</title>
    <desc>Created with Sketch.</desc>
    <g id="atom/icon/radar" stroke="none" stroke-width="1" fill="none" fill-rule="evenodd">
        <path d="M12,0 C14.6900441,0 17.173352,0.885142782 19.174561,2.38006561 C19.558496,2.13925794 20.0129853,2 20.5,2 C21.8807119,2 23,3.11928813 23,4.5 C23,5.09838455 22.7897691,5.64766705 22.4391387,6.07801612 C23.4324937,7.82462394 24,9.84603788 24,12 C24,18.627417 18.627417,24 12,24 C5.372583,24 0,18.627417 0,12 C0,5.372583 5.372583,0 12,0 Z M12,2.4 C6.6980664,2.4 2.4,6.6980664 2.4,12 C2.4,17.3019336 6.6980664,21.6 12,21.6 C17.3019336,21.6 21.6,17.3019336 21.6,12 C21.6,10.159474 21.0820493,8.43992196 20.1839553,6.97915124 C18.9519761,6.82433852 18,5.77334223 18,4.5 C16.3572508,3.18835226 14.2706902,2.4 12,2.4 Z M12,5 C15.8659932,5 19,8.13400675 19,12 C19,15.8659932 15.8659932,19 12,19 C8.13400675,19 5,15.8659932 5,12 C5,8.13400675 8.13400675,5 12,5 Z M12,7.33333333 C9.42267117,7.33333333 7.33333333,9.42267117 7.33333333,12 C7.33333333,14.5773288 9.42267117,16.6666667 12,16.6666667 C14.5773288,16.6666667 16.6666667,14.5773288 16.6666667,12 C16.6666667,9.42267117 14.5773288,7.33333333 12,7.33333333 Z M12,10 C13.1045695,10 14,10.8954305 14,12 C14,13.1045695 13.1045695,14 12,14 C10.8954305,14 10,13.1045695 10,12 C10,10.8954305 10.8954305,10 12,10 Z" id="Combined-Shape" fill="#001E62" fill-rule="nonzero"></path>
    </g>
</svg>