<?xml version="1.0" encoding="UTF-8"?>
<svg width="24px" height="24px" viewBox="0 0 24 24" version="1.1" xmlns="http://www.w3.org/2000/svg" xmlns:xlink="http://www.w3.org/1999/xlink">
    <!-- Generator: Sketch 63.1 (92452) - https://sketch.com -->
    <title>atom/icon/resend-invitation</title>
    <desc>Created with Sketch.</desc>
    <g id="atom/icon/resend-invitation" stroke="none" stroke-width="1" fill="none" fill-rule="evenodd">
        <path d="M16.5550357,4.16804571 L16.6549305,4.24431092 L24.192779,10.7788483 L24.2803112,10.874551 L24.344312,10.9639118 L24.3983588,11.0602253 L24.4417014,11.1627412 L24.4791808,11.2961131 L24.4908677,11.3645576 C24.496883,11.4085642 24.5,11.4539181 24.5,11.5 C24.5,11.5583006 24.4950109,11.6154359 24.4854364,11.6710024 L24.4520941,11.8064383 L24.3951461,11.9462642 L24.3220426,12.0695742 L24.247486,12.1642936 L24.1823183,12.2310553 L16.6823183,19.2310553 C16.2785676,19.6078892 15.6457787,19.5860689 15.2689447,19.1823183 C14.921098,18.8096253 14.912933,18.2417756 15.231296,17.8602292 L15.3176817,17.7689447 L20.961,12.5 L0.5,12.5 C-0.0522847498,12.5 -0.5,12.0522847 -0.5,11.5 C-0.5,10.9871642 -0.11395981,10.5644928 0.383378875,10.5067277 L0.5,10.5 L20.82,10.5 L15.3450695,5.75568908 C14.9277139,5.39398093 14.8826028,4.76242502 15.2443109,4.34506946 C15.5503717,3.99192245 16.049637,3.90529364 16.448858,4.10612937 L16.5550357,4.16804571 Z" id="Combined-Shape" fill="#001E62" fill-rule="nonzero"></path>
    </g>
</svg>