<?xml version="1.0" encoding="UTF-8"?>
<svg width="24px" height="24px" viewBox="0 0 24 24" version="1.1" xmlns="http://www.w3.org/2000/svg" xmlns:xlink="http://www.w3.org/1999/xlink">
    <!-- Generator: Sketch 63.1 (92452) - https://sketch.com -->
    <title>atom/icon/reverse</title>
    <desc>Created with Sketch.</desc>
    <g id="atom/icon/reverse" stroke="none" stroke-width="1" fill="none" fill-rule="evenodd">
        <path d="M3.85417726,15.2334639 C3.55048163,14.475249 2.70232409,14.1034916 1.94824486,14.3980714 C1.19416564,14.6926513 0.812648685,15.5447791 1.09092121,16.3129256 C2.95079337,21.2056793 7.73446549,24.3088604 12.9031717,23.9755647 C18.0718779,23.6422689 22.4278502,19.9497323 23.6593093,14.857639 C24.8907685,9.7655457 22.7123429,4.45390976 18.2801553,1.74169533 C13.8479677,-0.970519104 8.18910935,-0.454798163 4.3068204,3.01515738 L1,0 L1,8.87465644 L9.92965506,8.87465644 L6.41362539,5.14649445 C9.41107631,2.57403354 13.7225005,2.30179094 17.0125638,4.47723008 C20.302627,6.65266922 21.7887476,10.7583353 20.6659505,14.5703454 C19.5431535,18.3823556 16.0785099,20.9939765 12.1486851,20.9905928 C8.47869225,20.9761546 5.1899845,18.6934978 3.85417726,15.2334639 Z" id="Path" fill="#001E62" fill-rule="nonzero"></path>
    </g>
</svg>