<?xml version="1.0" encoding="UTF-8"?>
<svg width="24px" height="24px" viewBox="0 0 24 24" version="1.1" xmlns="http://www.w3.org/2000/svg" xmlns:xlink="http://www.w3.org/1999/xlink">
    <!-- Generator: Sketch 63.1 (92452) - https://sketch.com -->
    <title>atom/icon/save</title>
    <desc>Created with Sketch.</desc>
    <g id="atom/icon/save" stroke="none" stroke-width="1" fill="none" fill-rule="evenodd">
        <path d="M23.2020034,3.58691043e-06 C23.4136319,-0.000631431041 23.6167941,0.0830733212 23.7665513,0.232606255 C23.9163085,0.382139189 24.0003183,0.585176534 23.9999991,0.796807096 L23.9999991,0.796807096 L23.9999991,23.2032037 C23.9993361,23.6434582 23.6422555,24.0000036 23.2020034,24.0000036 L23.2020034,24.0000036 L0.796948839,24.0000036 C0.357632431,23.999345 0.00147477247,23.6437214 7.49576474e-05,23.2044037 L7.49576474e-05,23.2044037 L7.49576474e-05,3.68040666 C-0.00280661857,3.47138042 0.0774954709,3.26976046 0.223352563,3.12000675 L0.223352563,3.12000675 L3.00733449,0.240007179 C3.15845482,0.0860902384 3.36522891,-0.000426666571 3.58093076,3.58691043e-06 L3.58093076,3.58691043e-06 Z M6.88090934,1.59480698 L3.92052856,1.59480698 L1.59494366,4.00200662 L1.59494366,22.4064039 L22.3968086,22.4064039 L22.3968086,1.59480698 L18.5568335,1.59480698 L18.5568335,5.62320637 C18.5561727,6.06299278 18.1998223,6.41934542 17.7600387,6.42000626 L17.7600387,6.42000626 L7.68010415,6.42000626 C7.4683655,6.42064403 7.26508051,6.33697735 7.11513302,6.1874792 C6.96518553,6.03798106 6.88090838,5.83494733 6.88090934,5.62320637 L6.88090934,5.62320637 L6.88090934,1.59480698 Z M13,9 C15.7614237,9 18,11.2385763 18,14 C18,16.7614237 15.7614237,19 13,19 C10.240011,18.9965392 8.00346081,16.759989 8,14 C8,11.2385763 10.2385763,9 13,9 Z M13.0012563,10.660804 C11.1605384,10.660804 9.66834171,12.1530007 9.66834171,13.9937186 C9.67041869,15.8335755 11.1613994,17.3245562 13.0012563,17.3266332 C14.8419742,17.3266332 16.3341709,15.8344365 16.3341709,13.9937186 C16.3341709,12.1530007 14.8419742,10.660804 13.0012563,10.660804 Z M16.9692438,1.59480698 L8.473299,1.59480698 L8.473299,4.82520649 L16.9692438,4.82520649 L16.9692438,1.59480698 Z" id="Combined-Shape" fill="#001E62" fill-rule="nonzero"></path>
    </g>
</svg>