<?xml version="1.0" encoding="UTF-8"?>
<svg width="24px" height="24px" viewBox="0 0 24 24" version="1.1" xmlns="http://www.w3.org/2000/svg" xmlns:xlink="http://www.w3.org/1999/xlink">
    <!-- Generator: Sketch 63.1 (92452) - https://sketch.com -->
    <title>atom/icon/search</title>
    <desc>Created with Sketch.</desc>
    <g id="atom/icon/search" stroke="none" stroke-width="1" fill="none" fill-rule="evenodd">
        <path d="M9.67201909,0 C12.2748084,0 14.7007099,1.01026012 16.5454071,2.8287297 C19.8052133,6.08681939 20.3106095,11.1886333 17.7583596,15.0276237 L17.7583596,15.0276237 L23.772571,21.0639292 C24.0758097,21.3417507 24.0758097,21.8216258 23.772571,22.1247027 L23.772571,22.1247027 L22.1047639,23.7916321 C21.8267984,24.069456 21.3466707,24.069456 21.0687028,23.7916321 L21.0687028,23.7916321 L15.0292172,17.7553278 C11.1882068,20.2809772 6.08370572,19.7758492 2.82390073,16.5177606 C-0.941300245,12.7545383 -0.941300245,6.61720499 2.82390073,2.8287297 C4.64332769,1.01026012 7.06922858,0 9.67201909,0 Z M14.5487691,4.63680586 C11.7999729,1.91495805 7.35338915,1.91495805 4.63154186,4.63680586 C1.90969335,7.38560071 1.90969335,11.8321856 4.63154186,14.5540328 C7.38033802,17.2758824 11.8269206,17.2758824 14.5487691,14.5540328 C17.2706176,11.8321856 17.2706176,7.38560071 14.5487691,4.63680586 Z" id="search" fill="#001E62" fill-rule="nonzero"></path>
    </g>
</svg>