<?xml version="1.0" encoding="UTF-8"?>
<svg width="24px" height="24px" viewBox="0 0 24 24" version="1.1" xmlns="http://www.w3.org/2000/svg" xmlns:xlink="http://www.w3.org/1999/xlink">
    <!-- Generator: Sketch 64 (93537) - https://sketch.com -->
    <title>atom/icon/setting</title>
    <desc>Created with Sketch.</desc>
    <g id="atom/icon/setting" stroke="none" stroke-width="1" fill="none" fill-rule="evenodd">
        <path d="M23.6255758,10.4951935 C23.433576,10.3751936 21.9191776,9.46799413 21.3191782,9.1919943 L20.5751789,7.39199542 C20.7959787,6.79199579 21.2207783,5.12879682 21.2951782,4.838397 C21.355756,4.56975856 21.2741963,4.28883066 21.0791784,4.09439746 L19.9055796,2.92799819 C19.7116298,2.73216575 19.4302467,2.65047385 19.1615804,2.71199832 C18.9407806,2.76239829 17.2415824,3.19199802 16.607983,3.43199787 L14.8079848,2.68799833 C14.5463851,2.11199869 13.665586,0.635999606 13.5047862,0.381599763 C13.3602434,0.144846734 13.1029756,0.000303996241 12.8255869,0 L11.1743886,0 C10.8987824,0 10.6424534,0.141436077 10.4951893,0.374399768 C10.3751894,0.566399649 9.46799031,2.08079871 9.19199059,2.68079834 L7.39199243,3.42479788 C6.79199305,3.20399801 5.12879475,2.77919828 4.83839505,2.70479832 C4.56975672,2.64422049 4.28882893,2.7257802 4.09439581,2.92079819 L2.927997,4.09439746 C2.73216465,4.28834736 2.65047278,4.56973058 2.71199722,4.838397 C2.76239717,5.05919686 3.19199673,6.75839581 3.43199649,7.39199542 L2.68799725,9.1919943 C2.11199784,9.45359414 0.635999349,10.3343936 0.381599609,10.4951935 C0.144846676,10.6397364 0.000303996118,10.8970043 0,11.1743931 L0,12.8231921 C0,13.0987983 0.141436019,13.3551274 0.374399617,13.5023916 C0.56639942,13.6223916 2.08079787,14.529591 2.68079726,14.8055908 L3.42479649,16.6055897 C3.20399672,17.2055893 2.77919716,18.8687883 2.70479723,19.1591881 C2.64421942,19.4278266 2.7257791,19.7087545 2.92079701,19.9031877 L4.08719582,21.0695869 C4.28114564,21.2654194 4.56252874,21.3471113 4.83119506,21.2855868 C5.05199483,21.2351868 6.75119309,20.8055871 7.38479244,20.5655873 L9.1847906,21.3095868 C9.44639033,21.8855864 10.3271894,23.3615855 10.4879893,23.6159854 C10.6332712,23.8558576 10.8939558,24.0016951 11.1743886,24 L12.8231869,24 C13.098793,24 13.355122,23.858549 13.5023862,23.6255854 C13.6223861,23.4335855 14.5295851,21.9191864 14.8055848,21.3191868 L16.605583,20.5751872 C17.2055824,20.7959871 18.8687807,21.2207868 19.1591804,21.2951868 C19.4278187,21.3557646 19.7087465,21.2742049 19.9031796,21.0791869 L21.0695784,19.9127877 C21.2654108,19.7188378 21.3471027,19.4374545 21.2855782,19.1687881 C21.2351783,18.9479883 20.8055787,17.2487893 20.565579,16.6151897 L21.3095782,14.8151908 C21.8855776,14.553591 23.3615761,13.6727915 23.6159758,13.5119916 C23.8558479,13.3667096 24.0016855,13.1060249 24,12.8255921 L24,11.1743931 C24.0021465,10.898197 23.860271,10.6408201 23.6255758,10.4951935 Z M11.9954086,17 C9.23398662,16.9974621 6.99746719,14.7568321 7,11.9954101 C7.00253712,9.23398804 9.24316654,6.99746796 12.0045886,7 C14.7660106,7.00253634 17.0025313,9.24316515 17,12.0045872 C16.9987813,13.3306698 16.4708299,14.6019562 15.5322873,15.5387775 C14.5937446,16.4755989 13.3214912,17.0012156 11.9954086,17 Z" id="Shape" fill="#001E62" fill-rule="nonzero"></path>
    </g>
</svg>