<?xml version="1.0" encoding="UTF-8"?>
<svg width="24px" height="24px" viewBox="0 0 24 24" version="1.1" xmlns="http://www.w3.org/2000/svg" xmlns:xlink="http://www.w3.org/1999/xlink">
    <!-- Generator: Sketch 64 (93537) - https://sketch.com -->
    <title>atom/icon/share</title>
    <desc>Created with Sketch.</desc>
    <g id="atom/icon/share" stroke="none" stroke-width="1" fill="none" fill-rule="evenodd">
        <path d="M17.050257,2.2501153 L24,7.6374627 L24,7.6374627 L17.092314,13.620767 C16.6748581,13.9823593 16.0433147,13.9370729 15.6817224,13.5196169 C15.5242646,13.337833 15.4375932,13.1053922 15.4375932,12.8648962 L15.4375932,10.1342651 L15.4375932,10.1342651 C8.47919775,10.1342651 5,12.4228434 5,17 C5,9.6480721 8.47919775,5.97210816 15.4375932,5.97210816 L15.4375932,3.04045895 C15.4375932,2.4881742 15.8853085,2.04045895 16.4375932,2.04045895 C16.6594153,2.04045895 16.8749414,2.11421296 17.050257,2.2501153 Z" id="Path-14" fill="#001E62"></path>
        <path d="M6.96072882,1 C7.51301357,1 7.96072882,1.44771525 7.96072882,2 C7.96072882,2.51283584 7.57468863,2.93550716 7.07734994,2.99327227 L6.96072882,3 L2,3 L2,22 L14,22 L14,17.0137322 C14,16.5008963 14.3860402,16.078225 14.8833789,16.0204599 L15,16.0137322 C15.5128358,16.0137322 15.9355072,16.3997724 15.9932723,16.897111 L16,17.0137322 L16,23 C16,23.5128358 15.6139598,23.9355072 15.1166211,23.9932723 L15,24 L1,24 C0.487164161,24 0.0644928393,23.6139598 0.00672773133,23.1166211 L0,23 L0,2 C0,1.48716416 0.38604019,1.06449284 0.883378875,1.00672773 L1,1 L6.96072882,1 Z" id="Path-15" fill="#001E62" fill-rule="nonzero"></path>
    </g>
</svg>