<?xml version="1.0" encoding="UTF-8"?>
<svg width="24px" height="56px" viewBox="0 0 24 56" version="1.1" xmlns="http://www.w3.org/2000/svg" xmlns:xlink="http://www.w3.org/1999/xlink">
    <!-- Generator: Sketch 64 (93537) - https://sketch.com -->
    <title>atom/icon/standing</title>
    <desc>Created with Sketch.</desc>
    <g id="atom/icon/standing" stroke="none" stroke-width="1" fill="none" fill-rule="evenodd">
        <path d="M15.0922702,12 C15.5176053,12 16.3367438,12.0638182 16.8404054,12.196398 L17.1648069,12.2855911 C17.6250199,12.4210559 17.9910192,12.5836659 18.594066,13.038104 C19.7291199,13.8934468 19.9869078,14.3377263 20.9023014,16.0506382 C22.9916527,20.7510974 24.0240769,25.6443725 23.999574,30.7304635 C23.999574,32.2175888 23.4391497,33.347809 22.1901222,33.4358472 L22.030398,33.4413744 L21.9453317,33.4413744 C20.5842584,33.4413744 19.856512,32.2795563 19.856512,30.7304635 C19.94158,28.6004657 19.3081799,24.6774562 18.4575797,21.7574514 C18.2047431,20.8894949 18.2696995,23.8636626 18.3584587,26.3397124 L18.4575797,28.7941 L18.7127803,34.89364 L18.7127803,53.192278 C18.7127803,54.7413688 17.6069078,56 16.2458328,56 C14.9371043,56 13.8643289,54.8363247 13.7837437,53.3696751 L13.7788844,53.192278 L12.9300983,34.3195431 L11.0699017,34.3195431 L10.2211156,53.192278 L10.2162563,53.3696751 C10.1356711,54.8363247 9.06289569,56 7.75416719,56 C6.39309221,56 5.28721966,54.7413688 5.28721966,53.192278 L5.28721966,53.192278 L5.28721966,34.89364 L5.54242034,28.7941 L5.64154128,26.3397124 C5.73030045,23.8636626 5.7952569,20.8894949 5.54242034,21.7574514 C4.69182006,24.6774562 4.05841995,28.6004657 4.14348802,30.7304635 C4.14348802,32.2795563 3.41574156,33.4413744 2.05466834,33.4413744 L2.05466834,33.4413744 L1.96960204,33.4413744 L1.80987785,33.4358472 C0.560850304,33.347809 0.000426041849,32.2175888 0.000426041849,30.7304635 C-0.024076888,25.6443725 1.00834729,20.7510974 3.09769857,16.0506382 C4.01309221,14.3377263 4.27088007,13.8934468 5.40593403,13.038104 C6.00898081,12.5836659 6.37498006,12.4210559 6.83519307,12.2855911 L6.83519307,12.2855911 L7.15959458,12.196398 C7.66325622,12.0638182 8.48239472,12 8.90772977,12 L8.90772977,12 L15.0922702,12 Z M12,0 C14.7614237,0 17,2.23857625 17,5 C17,7.76142375 14.7614237,10 12,10 C9.23857625,10 7,7.76142375 7,5 C7,2.23857625 9.23857625,0 12,0 Z" id="Combined-Shape" fill="#001E62" fill-rule="nonzero"></path>
    </g>
</svg>