<?xml version="1.0" encoding="UTF-8"?>
<svg width="24px" height="24px" viewBox="0 0 24 24" version="1.1" xmlns="http://www.w3.org/2000/svg" xmlns:xlink="http://www.w3.org/1999/xlink">
    <!-- Generator: Sketch 63.1 (92452) - https://sketch.com -->
    <title>atom/icon/users</title>
    <desc>Created with Sketch.</desc>
    <g id="atom/icon/users" stroke="none" stroke-width="1" fill="none" fill-rule="evenodd">
        <path d="M15.5,16 C18.7443938,16 21.6841216,17.9641785 23,21.0111233 C18.7522257,24.9962922 12.2477743,24.9962922 8,21.0111233 C9.31587841,17.9641785 12.2556062,16 15.5,16 Z M1,16.0610882 C2.54888437,12.4204952 6.30878,10.3867362 10.0519244,11.1648265 C10.9586718,13.1635074 12.8811986,14.4444833 15,14.4617197 L15,14.4617197 L14.6928831,14.4682404 C11.629527,14.5861158 8.81099502,16.2780143 7.17513633,19 C4.8717808,18.7227364 2.71089558,17.6943136 1,16.0610882 Z M15.5,5 C17.9852814,5 20,7.01471863 20,9.5 C20,11.9852814 17.9852814,14 15.5,14 C13.0147186,14 11,11.9852814 11,9.5 C11,7.01471863 13.0147186,5 15.5,5 Z M4.76852987,1.9902618 C5.81477157,0.440627575 7.7137826,-0.304999213 9.54122325,0.11631374 C11.3686639,0.537626692 12.7448795,2.03835073 13,3.88801153 C11.0070949,4.75648625 9.69892335,6.69407619 9.64400693,8.85871927 C7.82697199,9.32247811 5.91095082,8.62128362 4.82856276,7.09644077 C3.74617471,5.57159792 3.72228817,3.53989603 4.76852987,1.9902618 Z" id="Combined-Shape" fill="#001E62" fill-rule="nonzero"></path>
    </g>
</svg>