<?xml version="1.0" encoding="UTF-8"?>
<svg width="24px" height="24px" viewBox="0 0 24 24" version="1.1" xmlns="http://www.w3.org/2000/svg" xmlns:xlink="http://www.w3.org/1999/xlink">
    <!-- Generator: Sketch 63.1 (92452) - https://sketch.com -->
    <title>atom/icon/warning</title>
    <desc>Created with Sketch.</desc>
    <g id="atom/icon/warning" stroke="none" stroke-width="1" fill="none" fill-rule="evenodd">
        <path d="M13.2023546,1.30557954 C13.6169918,1.53084557 13.9582386,1.86792585 14.1862891,2.27750045 L23.6906433,19.3471514 C24.3548136,20.5399894 23.9142911,22.0388181 22.7067087,22.694879 C22.3382734,22.8950442 21.9246067,23 21.5041221,23 L2.49541375,23 C1.11723479,23 -1.77635684e-15,21.8964064 -1.77635684e-15,20.5350547 C-1.77635684e-15,20.1197041 0.106253098,19.7110882 0.308892523,19.3471514 L9.81324668,2.27750045 C10.477417,1.08466245 11.9947723,0.649518633 13.2023546,1.30557954 Z M11.5128258,4.37934912 C11.3507852,4.4697437 11.2170898,4.6034391 11.1266952,4.76547976 L3.01144014,19.3128258 C2.74238127,19.7951388 2.91525785,20.404246 3.39757079,20.6733048 C3.5465024,20.7563865 3.71420702,20.8 3.88474497,20.8 L20.115255,20.8 C20.6675398,20.8 21.115255,20.3522847 21.115255,19.8 C21.115255,19.629462 21.0716415,19.4617574 20.9885599,19.3128258 L12.8733048,4.76547976 C12.604246,4.28316682 11.9951388,4.11029025 11.5128258,4.37934912 Z M12.0012477,18.0010841 C12.1384971,17.993889 12.2657648,18.0226693 12.3855461,18.0826283 C12.5103183,18.121002 12.6176224,18.188156 12.7074583,18.2816919 C12.8047806,18.3680328 12.8746531,18.4711622 12.9145802,18.59108 C12.9769663,18.7062012 13.0044161,18.8285174 12.9994253,18.9604271 L12.9994253,18.9604271 L12.9994253,19.0395729 C12.9969298,19.2122546 12.9520118,19.3753429 12.8621758,19.5240411 L12.8621758,19.5240411 L12.7049629,19.7183081 C12.5801907,19.8382259 12.4329595,19.9197701 12.2632693,19.9653389 C12.1759288,19.9749323 12.0860928,19.9869241 11.9987523,19.9989159 C11.8615029,20.006111 11.7342352,19.9773307 11.6144539,19.9173717 C11.4896817,19.878998 11.3823776,19.811844 11.2925417,19.7183081 C11.1952194,19.6319672 11.1253469,19.5288378 11.0854198,19.40892 C11.0230337,19.2937988 10.9955839,19.1714826 11.0005747,19.0395729 L11.0005747,19.0395729 L11.0005747,18.9604271 C11.0005747,18.7877454 11.0454927,18.6246571 11.1378242,18.4759589 L11.1378242,18.4759589 L11.2950371,18.2816919 C11.4198093,18.1617741 11.5670405,18.0802299 11.7367307,18.0346611 C11.8240712,18.0250677 11.9139072,18.0130759 12.0012477,18.0010841 Z M12,8.00091644 C12.54,7.97533166 13,8.48958574 13,9.02430764 L13,9.02430764 L13,15.9756924 C13,16.5487914 12.5425,16.9734988 12,16.9990836 C11.46,17.0246683 11,16.5104143 11,15.9756924 L11,15.9756924 L11,9.02430764 C11,8.45120857 11.4575,8.02650122 12,8.00091644 Z" id="Combined-Shape" fill="#001E62" fill-rule="nonzero"></path>
    </g>
</svg>